<svg width="167" height="167" viewBox="0 0 167 167" fill="none" xmlns="http://www.w3.org/2000/svg">
<g clip-path="url(#clip0)">
<g filter="url(#filter0_di)">
<path d="M26.0742 46.5613H61.1504L65.1857 4.3457L140.926 4.3457V162.033H26.0742V46.5613Z" fill="url(#paint0_linear)"/>
<path d="M65.6402 4.8457H140.426V161.533H26.5742V47.0613H61.1504H61.6049L61.6482 46.6089L65.6402 4.8457Z" stroke="white"/>
</g>
<g filter="url(#filter1_d)">
<path d="M70.4532 76.8821L55.5425 88.8106C54.2567 89.8401 52.3783 89.6319 51.3503 88.3461C50.3208 87.0604 50.529 85.182 51.8148 84.1539L60.087 77.5359H50.6965C49.0496 77.5359 47.7144 76.2006 47.7144 74.5537C47.7144 72.9068 49.0496 71.5716 50.6965 71.5716H60.087L51.8148 64.9535C50.529 63.9255 50.3208 62.0471 51.3503 60.7613C52.3783 59.4756 54.2567 59.2673 55.5425 60.2968L70.4532 72.2254C70.4954 72.2574 70.51 72.3084 70.5493 72.3433C70.7634 72.5443 70.9468 72.7758 71.091 73.0292C71.1652 73.1238 71.2322 73.2243 71.2905 73.3277C71.6647 74.1052 71.6647 75.0095 71.2905 75.7856C71.2308 75.889 71.1638 75.988 71.091 76.0841C70.9468 76.3375 70.7634 76.5675 70.5493 76.767C70.51 76.7991 70.4954 76.85 70.4532 76.8821ZM119.286 74.5537C119.286 76.2006 117.951 77.5359 116.304 77.5359H106.913L115.185 84.1539C116.471 85.182 116.679 87.0604 115.65 88.3461C114.622 89.6319 112.743 89.8401 111.458 88.8106L96.547 76.8821C96.5047 76.85 96.4902 76.7991 96.4508 76.7641C96.2368 76.5646 96.0533 76.3346 95.9092 76.0812C95.8364 75.9851 95.7694 75.8861 95.7097 75.7827C95.3355 75.0066 95.3355 74.1009 95.7097 73.3247C95.7694 73.2214 95.8364 73.1224 95.9092 73.0262C96.0533 72.7729 96.2368 72.5428 96.4508 72.3433C96.4902 72.3084 96.5047 72.2574 96.547 72.2254L111.458 60.2968C112.743 59.2673 114.622 59.4756 115.65 60.7613C116.679 62.0471 116.471 63.9255 115.185 64.9535L106.913 71.5716H116.304C117.951 71.5716 119.286 72.9068 119.286 74.5537ZM108.387 115.185C108.794 116.174 108.64 117.307 107.985 118.152C107.328 118.998 106.268 119.426 105.209 119.274C104.149 119.124 103.252 118.417 102.858 117.422C99.6703 109.53 92.0111 104.362 83.5001 104.362C74.989 104.362 67.3298 109.53 64.1424 117.422C63.5177 118.938 61.7878 119.664 60.2676 119.05C58.7489 118.435 58.0092 116.709 58.6135 115.185C62.7124 105.041 72.5588 98.3978 83.5001 98.3978C94.4414 98.3978 104.288 105.041 108.387 115.185Z" fill="#F7F7F7"/>
<path d="M70.4532 76.8821L55.5425 88.8106C54.2567 89.8401 52.3783 89.6319 51.3503 88.3461C50.3208 87.0604 50.529 85.182 51.8148 84.1539L60.087 77.5359H50.6965C49.0496 77.5359 47.7144 76.2006 47.7144 74.5537C47.7144 72.9068 49.0496 71.5716 50.6965 71.5716H60.087L51.8148 64.9535C50.529 63.9255 50.3208 62.0471 51.3503 60.7613C52.3783 59.4756 54.2567 59.2673 55.5425 60.2968L70.4532 72.2254C70.4954 72.2574 70.51 72.3084 70.5493 72.3433C70.7634 72.5443 70.9468 72.7758 71.091 73.0292C71.1652 73.1238 71.2322 73.2243 71.2905 73.3277C71.6647 74.1052 71.6647 75.0095 71.2905 75.7856C71.2308 75.889 71.1638 75.988 71.091 76.0841C70.9468 76.3375 70.7634 76.5675 70.5493 76.767C70.51 76.7991 70.4954 76.85 70.4532 76.8821ZM119.286 74.5537C119.286 76.2006 117.951 77.5359 116.304 77.5359H106.913L115.185 84.1539C116.471 85.182 116.679 87.0604 115.65 88.3461C114.622 89.6319 112.743 89.8401 111.458 88.8106L96.547 76.8821C96.5047 76.85 96.4902 76.7991 96.4508 76.7641C96.2368 76.5646 96.0533 76.3346 95.9092 76.0812C95.8364 75.9851 95.7694 75.8861 95.7097 75.7827C95.3355 75.0066 95.3355 74.1009 95.7097 73.3247C95.7694 73.2214 95.8364 73.1224 95.9092 73.0262C96.0533 72.7729 96.2368 72.5428 96.4508 72.3433C96.4902 72.3084 96.5047 72.2574 96.547 72.2254L111.458 60.2968C112.743 59.2673 114.622 59.4756 115.65 60.7613C116.679 62.0471 116.471 63.9255 115.185 64.9535L106.913 71.5716H116.304C117.951 71.5716 119.286 72.9068 119.286 74.5537ZM108.387 115.185C108.794 116.174 108.64 117.307 107.985 118.152C107.328 118.998 106.268 119.426 105.209 119.274C104.149 119.124 103.252 118.417 102.858 117.422C99.6703 109.53 92.0111 104.362 83.5001 104.362C74.989 104.362 67.3298 109.53 64.1424 117.422C63.5177 118.938 61.7878 119.664 60.2676 119.05C58.7489 118.435 58.0092 116.709 58.6135 115.185C62.7124 105.041 72.5588 98.3978 83.5001 98.3978C94.4414 98.3978 104.288 105.041 108.387 115.185Z" fill="url(#paint1_linear)"/>
<path d="M70.4532 76.8821L55.5425 88.8106C54.2567 89.8401 52.3783 89.6319 51.3503 88.3461C50.3208 87.0604 50.529 85.182 51.8148 84.1539L60.087 77.5359H50.6965C49.0496 77.5359 47.7144 76.2006 47.7144 74.5537C47.7144 72.9068 49.0496 71.5716 50.6965 71.5716H60.087L51.8148 64.9535C50.529 63.9255 50.3208 62.0471 51.3503 60.7613C52.3783 59.4756 54.2567 59.2673 55.5425 60.2968L70.4532 72.2254C70.4954 72.2574 70.51 72.3084 70.5493 72.3433C70.7634 72.5443 70.9468 72.7758 71.091 73.0292C71.1652 73.1238 71.2322 73.2243 71.2905 73.3277C71.6647 74.1052 71.6647 75.0095 71.2905 75.7856C71.2308 75.889 71.1638 75.988 71.091 76.0841C70.9468 76.3375 70.7634 76.5675 70.5493 76.767C70.51 76.7991 70.4954 76.85 70.4532 76.8821ZM119.286 74.5537C119.286 76.2006 117.951 77.5359 116.304 77.5359H106.913L115.185 84.1539C116.471 85.182 116.679 87.0604 115.65 88.3461C114.622 89.6319 112.743 89.8401 111.458 88.8106L96.547 76.8821C96.5047 76.85 96.4902 76.7991 96.4508 76.7641C96.2368 76.5646 96.0533 76.3346 95.9092 76.0812C95.8364 75.9851 95.7694 75.8861 95.7097 75.7827C95.3355 75.0066 95.3355 74.1009 95.7097 73.3247C95.7694 73.2214 95.8364 73.1224 95.9092 73.0262C96.0533 72.7729 96.2368 72.5428 96.4508 72.3433C96.4902 72.3084 96.5047 72.2574 96.547 72.2254L111.458 60.2968C112.743 59.2673 114.622 59.4756 115.65 60.7613C116.679 62.0471 116.471 63.9255 115.185 64.9535L106.913 71.5716H116.304C117.951 71.5716 119.286 72.9068 119.286 74.5537ZM108.387 115.185C108.794 116.174 108.64 117.307 107.985 118.152C107.328 118.998 106.268 119.426 105.209 119.274C104.149 119.124 103.252 118.417 102.858 117.422C99.6703 109.53 92.0111 104.362 83.5001 104.362C74.989 104.362 67.3298 109.53 64.1424 117.422C63.5177 118.938 61.7878 119.664 60.2676 119.05C58.7489 118.435 58.0092 116.709 58.6135 115.185C62.7124 105.041 72.5588 98.3978 83.5001 98.3978C94.4414 98.3978 104.288 105.041 108.387 115.185Z" fill="url(#paint2_linear)"/>
<path d="M70.104 76.5211L55.2301 88.4202L55.23 88.4203C54.1597 89.2773 52.5962 89.1037 51.7408 88.0339L51.7406 88.0336C50.8837 86.9634 51.0572 85.3998 52.127 84.5445L52.1272 84.5444L60.3994 77.9263L61.5124 77.0359H60.087H50.6965C49.3258 77.0359 48.2144 75.9245 48.2144 74.5537C48.2144 73.183 49.3258 72.0716 50.6965 72.0716H60.087H61.5124L60.3994 71.1811L52.1272 64.5631L52.127 64.563C51.0572 63.7076 50.8837 62.1441 51.7406 61.0738L51.7408 61.0735C52.5962 60.0037 54.1597 59.8302 55.23 60.6871L55.2301 60.6872L70.1027 72.5853C70.1085 72.5937 70.1151 72.6031 70.1219 72.6124C70.1414 72.6387 70.1703 72.6743 70.2101 72.7107C70.3872 72.8775 70.5382 73.0687 70.6564 73.2764L70.6747 73.3086L70.6976 73.3378C70.7528 73.4081 70.8029 73.4826 70.847 73.5592C71.1456 74.1909 71.1458 74.9215 70.8482 75.5515C70.8025 75.6289 70.7506 75.7054 70.6924 75.7822L70.6726 75.8083L70.6564 75.8368C70.5396 76.0421 70.3906 76.2302 70.2155 76.3946C70.1764 76.429 70.1476 76.4628 70.1279 76.4884C70.1191 76.4999 70.1108 76.5113 70.104 76.5211ZM106.913 77.0359H105.488L106.601 77.9263L114.873 84.5444L114.873 84.5445C115.943 85.3998 116.116 86.9634 115.26 88.0336L115.259 88.0339C114.404 89.1037 112.84 89.2773 111.77 88.4203L111.77 88.4202L96.8974 76.5221C96.8917 76.5137 96.8851 76.5043 96.8782 76.4951C96.8585 76.4685 96.8294 76.4326 96.7891 76.3959C96.6121 76.2305 96.4615 76.0409 96.3438 75.8339L96.3275 75.8054L96.3077 75.7793C96.2496 75.7025 96.1976 75.626 96.152 75.5486C95.8547 74.9192 95.8547 74.1883 96.152 73.5588C96.1976 73.4814 96.2496 73.4049 96.3077 73.3282L96.3275 73.302L96.3438 73.2735C96.4615 73.0665 96.6121 72.877 96.7891 72.7116C96.8294 72.6748 96.8585 72.6389 96.8782 72.6124C96.8851 72.6031 96.8917 72.5937 96.8974 72.5853L111.77 60.6872L111.77 60.6871C112.84 59.8302 114.404 60.0037 115.259 61.0735L115.26 61.0738C116.116 62.1441 115.943 63.7076 114.873 64.563L114.873 64.5631L106.601 71.1811L105.488 72.0716H106.913H116.304C117.674 72.0716 118.786 73.183 118.786 74.5537C118.786 75.9245 117.674 77.0359 116.304 77.0359H106.913ZM107.923 115.373L107.924 115.376C108.264 116.199 108.135 117.142 107.59 117.845C107.043 118.549 106.161 118.905 105.28 118.779L105.279 118.779C104.398 118.654 103.651 118.066 103.323 117.238L103.321 117.235C100.058 109.154 92.215 103.862 83.5001 103.862C74.7858 103.862 66.9436 109.153 63.6794 117.233C63.159 118.494 61.7201 119.098 60.4551 118.586C59.1915 118.075 58.5759 116.639 59.0776 115.371C63.1005 105.416 72.7631 98.8978 83.5001 98.8978C94.2375 98.8978 103.9 105.417 107.923 115.373Z" stroke="white"/>
</g>
<g filter="url(#filter2_di)">
<path d="M21.1488 43.509C21.1167 43.5876 21.1022 43.6677 21.0745 43.7478C20.9813 44.0114 20.9245 44.2866 20.9085 44.5647C20.9085 44.6215 20.875 44.6724 20.875 44.7321V164.018C20.875 165.665 22.2103 167 23.8571 167H143.143C144.79 167 146.125 165.665 146.125 164.018V2.98214C146.125 1.33527 144.79 0 143.143 0H62.625C62.5624 0 62.5114 0.0334909 62.4517 0.0364031C62.1736 0.049508 61.8998 0.104841 61.6377 0.199489C61.5358 0.231524 61.4368 0.269383 61.3392 0.313067C61.0946 0.431013 60.8675 0.583906 60.6651 0.765922C60.601 0.812518 60.5384 0.862026 60.4772 0.915902C60.4772 0.915902 60.4452 0.936288 60.4335 0.950849L21.6657 42.7008C21.4502 42.9411 21.2754 43.2134 21.1488 43.509ZM59.6429 10.5773V41.75H30.6951L59.6429 10.5773ZM26.8393 47.7143H62.625C64.2719 47.7143 65.6071 46.379 65.6071 44.7321V5.96429H140.161V161.036H26.8393V47.7143Z" fill="url(#paint3_linear)"/>
<path d="M21.1488 43.509C21.1303 43.5544 21.1176 43.6002 21.1049 43.6463C21.0956 43.68 21.0862 43.7139 21.0745 43.7478C20.9813 44.0114 20.9245 44.2866 20.9085 44.5647M21.1488 43.509L21.6083 43.706C21.6091 43.7042 21.6098 43.7024 21.6106 43.7007M21.1488 43.509L21.6118 43.6976C21.6114 43.6986 21.611 43.6996 21.6106 43.7007M21.1488 43.509C21.2754 43.2134 21.4502 42.9411 21.6657 42.7008M21.6106 43.7007C21.6064 43.7115 21.6012 43.7278 21.5916 43.762C21.5905 43.7662 21.5892 43.771 21.5877 43.7763C21.5787 43.8091 21.5645 43.8606 21.5471 43.9111L21.5459 43.9145C21.4688 44.1325 21.4221 44.3583 21.4082 44.5848M21.6106 43.7007C21.7147 43.4593 21.8579 43.236 22.0352 43.0378M21.4082 44.5848C21.4084 44.5782 21.4085 44.5715 21.4085 44.5647H20.9085M21.4082 44.5848C21.408 44.5877 21.4078 44.5906 21.4077 44.5934L20.9085 44.5647M21.4082 44.5848C21.4065 44.6391 21.3982 44.6849 21.3906 44.7181C21.3854 44.7407 21.3794 44.762 21.375 44.7768M20.9085 44.5647C20.9085 44.5927 20.9003 44.6193 20.8921 44.6463C20.8836 44.6739 20.875 44.7019 20.875 44.7321V164.018C20.875 165.665 22.2103 167 23.8571 167H143.143C144.79 167 146.125 165.665 146.125 164.018V2.98214C146.125 1.33527 144.79 0 143.143 0H62.625C62.592 0 62.5622 0.00930625 62.5327 0.018534C62.5062 0.0268116 62.4799 0.035026 62.4517 0.0364031C62.1736 0.049508 61.8998 0.104841 61.6377 0.199489C61.5358 0.231524 61.4368 0.269383 61.3392 0.313067M21.375 44.7768V44.7321C21.375 44.764 21.3705 44.7875 21.3682 44.7977C21.3673 44.8017 21.3665 44.8048 21.3665 44.8047C21.3666 44.8046 21.3674 44.8016 21.3698 44.7939L21.3706 44.7914C21.3716 44.7879 21.3732 44.7829 21.375 44.7768ZM21.375 44.7768V164.018C21.375 165.389 22.4864 166.5 23.8571 166.5H143.143C144.514 166.5 145.625 165.389 145.625 164.018V2.98214C145.625 1.61141 144.514 0.5 143.143 0.5H62.6683M62.6683 0.5C62.6745 0.498096 62.6796 0.496495 62.683 0.495409L62.6861 0.49446C62.6925 0.492458 62.695 0.49174 62.695 0.491735C62.695 0.49173 62.6917 0.492652 62.6871 0.493659C62.6763 0.496023 62.6543 0.5 62.625 0.5H62.6683ZM62.6683 0.5C62.6548 0.504117 62.636 0.509652 62.6168 0.514466C62.5824 0.523094 62.534 0.532986 62.4761 0.535809L62.4753 0.53585C62.248 0.546558 62.0235 0.591789 61.8076 0.669766L61.7977 0.673335L61.7877 0.676486C61.7072 0.701763 61.6285 0.73168 61.55 0.76653M61.55 0.76653C61.5521 0.765501 61.5543 0.764474 61.5564 0.763451L61.3392 0.313067M61.55 0.76653C61.5479 0.767485 61.5457 0.768444 61.5436 0.769406L61.3392 0.313067M61.55 0.76653C61.3509 0.863272 61.1653 0.988484 60.9994 1.1377L60.9801 1.15504L60.9591 1.17029C60.9061 1.2089 60.8558 1.24873 60.8077 1.29108L60.7785 1.31683L60.7724 1.3207M61.3392 0.313067C61.0946 0.431013 60.8675 0.583906 60.6651 0.765922C60.601 0.812518 60.5384 0.862026 60.4772 0.915902M60.7724 1.3207L60.7999 1.29107L60.8039 1.28676L60.8125 1.27759L60.8239 1.26322C60.8169 1.27197 60.8101 1.2798 60.8038 1.28665C60.8025 1.28814 60.8011 1.28957 60.7998 1.29096C60.7848 1.30679 60.7734 1.31659 60.77 1.31947L60.7697 1.31967C60.7617 1.32651 60.7561 1.3306 60.7547 1.33162L60.7507 1.33443L60.7724 1.3207ZM60.7724 1.3207L22.0352 43.0378M22.0352 43.0378C22.0361 43.0367 22.037 43.0357 22.0379 43.0347L21.6657 42.7008M22.0352 43.0378L22.0321 43.0411L21.6657 42.7008M21.6657 42.7008L60.4335 0.950849C60.4452 0.936288 60.4772 0.915902 60.4772 0.915902M60.4772 0.915902L60.5678 1.0583L60.5947 1.10048L60.7456 1.33774L60.7457 1.33769L60.5948 1.10057L60.5679 1.05835L60.4772 0.915902ZM60.1429 10.5773V9.30407L59.2765 10.2371L30.3287 41.4098L29.5485 42.25H30.6951H59.6429H60.1429V41.75V10.5773ZM26.8393 47.2143H26.3393V47.7143V161.036V161.536H26.8393H140.161H140.661V161.036V5.96429V5.46429H140.161H65.6071H65.1071V5.96429V44.7321C65.1071 46.1029 63.9957 47.2143 62.625 47.2143H26.8393Z" stroke="white"/>
</g>
</g>
<defs>
<filter id="filter0_di" x="26.0742" y="4.3457" width="114.851" height="158.688" filterUnits="userSpaceOnUse" color-interpolation-filters="sRGB">
<feFlood flood-opacity="0" result="BackgroundImageFix"/>
<feColorMatrix in="SourceAlpha" type="matrix" values="0 0 0 0 0 0 0 0 0 0 0 0 0 0 0 0 0 0 127 0"/>
<feOffset dy="1"/>
<feColorMatrix type="matrix" values="0 0 0 0 0.876333 0 0 0 0 0.87824 0 0 0 0 0.88 0 0 0 0.4 0"/>
<feBlend mode="normal" in2="BackgroundImageFix" result="effect1_dropShadow"/>
<feBlend mode="normal" in="SourceGraphic" in2="effect1_dropShadow" result="shape"/>
<feColorMatrix in="SourceAlpha" type="matrix" values="0 0 0 0 0 0 0 0 0 0 0 0 0 0 0 0 0 0 127 0" result="hardAlpha"/>
<feOffset dy="1"/>
<feGaussianBlur stdDeviation="2"/>
<feComposite in2="hardAlpha" operator="arithmetic" k2="-1" k3="1"/>
<feColorMatrix type="matrix" values="0 0 0 0 0 0 0 0 0 0 0 0 0 0 0 0 0 0 0.15 0"/>
<feBlend mode="normal" in2="shape" result="effect2_innerShadow"/>
</filter>
<filter id="filter1_d" x="47.7144" y="59.6426" width="71.5714" height="60.6617" filterUnits="userSpaceOnUse" color-interpolation-filters="sRGB">
<feFlood flood-opacity="0" result="BackgroundImageFix"/>
<feColorMatrix in="SourceAlpha" type="matrix" values="0 0 0 0 0 0 0 0 0 0 0 0 0 0 0 0 0 0 127 0"/>
<feOffset dy="1"/>
<feColorMatrix type="matrix" values="0 0 0 0 0.876333 0 0 0 0 0.87824 0 0 0 0 0.88 0 0 0 0.4 0"/>
<feBlend mode="normal" in2="BackgroundImageFix" result="effect1_dropShadow"/>
<feBlend mode="normal" in="SourceGraphic" in2="effect1_dropShadow" result="shape"/>
</filter>
<filter id="filter2_di" x="20.875" y="0" width="125.25" height="168" filterUnits="userSpaceOnUse" color-interpolation-filters="sRGB">
<feFlood flood-opacity="0" result="BackgroundImageFix"/>
<feColorMatrix in="SourceAlpha" type="matrix" values="0 0 0 0 0 0 0 0 0 0 0 0 0 0 0 0 0 0 127 0"/>
<feOffset dy="1"/>
<feColorMatrix type="matrix" values="0 0 0 0 0.876333 0 0 0 0 0.87824 0 0 0 0 0.88 0 0 0 0.4 0"/>
<feBlend mode="normal" in2="BackgroundImageFix" result="effect1_dropShadow"/>
<feBlend mode="normal" in="SourceGraphic" in2="effect1_dropShadow" result="shape"/>
<feColorMatrix in="SourceAlpha" type="matrix" values="0 0 0 0 0 0 0 0 0 0 0 0 0 0 0 0 0 0 127 0" result="hardAlpha"/>
<feOffset dy="1"/>
<feGaussianBlur stdDeviation="2"/>
<feComposite in2="hardAlpha" operator="arithmetic" k2="-1" k3="1"/>
<feColorMatrix type="matrix" values="0 0 0 0 0 0 0 0 0 0 0 0 0 0 0 0 0 0 0.15 0"/>
<feBlend mode="normal" in2="shape" result="effect2_innerShadow"/>
</filter>
<linearGradient id="paint0_linear" x1="140.926" y1="38.1634" x2="6.65808" y2="71.7902" gradientUnits="userSpaceOnUse">
<stop stop-color="#F0F6FC"/>
<stop offset="1" stop-color="#E1E7EB"/>
</linearGradient>
<linearGradient id="paint1_linear" x1="93.0429" y1="41.8029" x2="93.0429" y2="119.304" gradientUnits="userSpaceOnUse">
<stop stop-color="white"/>
<stop offset="1" stop-color="#EDEDED"/>
</linearGradient>
<linearGradient id="paint2_linear" x1="145.529" y1="41.8029" x2="29.548" y2="95.5456" gradientUnits="userSpaceOnUse">
<stop stop-color="#EE3C6B"/>
<stop offset="1" stop-color="#E63262"/>
</linearGradient>
<linearGradient id="paint3_linear" x1="146.125" y1="-12.1454" x2="-4.12476" y2="16.2293" gradientUnits="userSpaceOnUse">
<stop stop-color="#F0F6FC"/>
<stop offset="1" stop-color="#E1E7EB"/>
</linearGradient>
<clipPath id="clip0">
<rect width="167" height="167" fill="white"/>
</clipPath>
</defs>
</svg>
