<svg width="94" height="94" viewBox="0 0 94 94" fill="none" xmlns="http://www.w3.org/2000/svg">
<g filter="url(#filter0_d)">
<path d="M28.6557 60.5953C29.2228 57.9528 30.4008 55.4797 32.0952 53.3741C28.1879 53.3333 10.3154 52.955 3 49.2329V67.4524C3.31397 68.0897 6.36257 70.0033 16.2132 71.2404C17.7561 65.4577 22.704 61.2246 28.6557 60.5953ZM9.27931 64.3629C9.27931 65.2299 8.57647 65.9328 7.70948 65.9328C6.84249 65.9328 6.13965 65.2299 6.13965 64.3629V61.2233C6.13965 60.3563 6.84249 59.6534 7.70948 59.6534C8.57647 59.6534 9.27931 60.3563 9.27931 61.2233V64.3629ZM7.70948 56.5138C6.84249 56.5138 6.13965 55.8109 6.13965 54.944C6.13965 54.077 6.84249 53.3741 7.70948 53.3741C8.57647 53.3741 9.27931 54.077 9.27931 54.944C9.27931 55.8109 8.57647 56.5138 7.70948 56.5138Z" fill="#F7F7F7"/>
<path d="M28.6557 60.5953C29.2228 57.9528 30.4008 55.4797 32.0952 53.3741C28.1879 53.3333 10.3154 52.955 3 49.2329V67.4524C3.31397 68.0897 6.36257 70.0033 16.2132 71.2404C17.7561 65.4577 22.704 61.2246 28.6557 60.5953ZM9.27931 64.3629C9.27931 65.2299 8.57647 65.9328 7.70948 65.9328C6.84249 65.9328 6.13965 65.2299 6.13965 64.3629V61.2233C6.13965 60.3563 6.84249 59.6534 7.70948 59.6534C8.57647 59.6534 9.27931 60.3563 9.27931 61.2233V64.3629ZM7.70948 56.5138C6.84249 56.5138 6.13965 55.8109 6.13965 54.944C6.13965 54.077 6.84249 53.3741 7.70948 53.3741C8.57647 53.3741 9.27931 54.077 9.27931 54.944C9.27931 55.8109 8.57647 56.5138 7.70948 56.5138Z" fill="url(#paint0_linear)"/>
<path d="M3.5 50.0232C7.3152 51.7137 13.2765 52.6523 18.7777 53.1817C23.8644 53.6712 28.6302 53.8163 31.0987 53.86C29.7488 55.7458 28.7789 57.879 28.2457 60.1402C22.3927 60.901 17.5349 65.0384 15.8493 70.6898C11.187 70.0829 8.12664 69.3266 6.19579 68.6496C5.20078 68.3008 4.51496 67.9762 4.06774 67.7096C3.84398 67.5763 3.6868 67.4616 3.58259 67.3706C3.54688 67.3395 3.51998 67.3133 3.5 67.2924V50.0232ZM7.70948 66.4328C8.85261 66.4328 9.77931 65.5061 9.77931 64.3629V61.2233C9.77931 60.0801 8.85261 59.1534 7.70948 59.1534C6.56634 59.1534 5.63965 60.0801 5.63965 61.2233V64.3629C5.63965 65.5061 6.56635 66.4328 7.70948 66.4328ZM5.63965 54.944C5.63965 56.0871 6.56634 57.0138 7.70948 57.0138C8.85261 57.0138 9.77931 56.0871 9.77931 54.944C9.77931 53.8008 8.85261 52.8741 7.70948 52.8741C6.56635 52.8741 5.63965 53.8008 5.63965 54.944Z" stroke="white"/>
</g>
<g filter="url(#filter1_d)">
<path d="M32.8267 50.2345C33.7215 50.2345 34.5975 50.2204 35.4687 50.2079C38.8112 47.8107 43.0089 46.9326 47.0321 47.7887C50.4429 42.5092 56.2802 39.2988 62.5655 39.2457H62.6534V28.8252C54.6332 32.9052 33.9115 32.9664 32.8267 32.9664C31.742 32.9664 11.0202 32.9052 3 28.8252V45.4764C3.78491 47.1985 14.3341 50.2345 32.8267 50.2345ZM7.70948 32.9664C8.57647 32.9664 9.27931 33.6692 9.27931 34.5362C9.27931 35.4032 8.57647 36.1061 7.70948 36.1061C6.84249 36.1061 6.13965 35.4032 6.13965 34.5362C6.13965 33.6692 6.84249 32.9664 7.70948 32.9664ZM6.13965 40.8156C6.13965 39.9486 6.84249 39.2457 7.70948 39.2457C8.57647 39.2457 9.27931 39.9486 9.27931 40.8156V43.9552C9.27931 44.8222 8.57647 45.5251 7.70948 45.5251C6.84249 45.5251 6.13965 44.8222 6.13965 43.9552V40.8156Z" fill="#F7F7F7"/>
<path d="M32.8267 50.2345C33.7215 50.2345 34.5975 50.2204 35.4687 50.2079C38.8112 47.8107 43.0089 46.9326 47.0321 47.7887C50.4429 42.5092 56.2802 39.2988 62.5655 39.2457H62.6534V28.8252C54.6332 32.9052 33.9115 32.9664 32.8267 32.9664C31.742 32.9664 11.0202 32.9052 3 28.8252V45.4764C3.78491 47.1985 14.3341 50.2345 32.8267 50.2345ZM7.70948 32.9664C8.57647 32.9664 9.27931 33.6692 9.27931 34.5362C9.27931 35.4032 8.57647 36.1061 7.70948 36.1061C6.84249 36.1061 6.13965 35.4032 6.13965 34.5362C6.13965 33.6692 6.84249 32.9664 7.70948 32.9664ZM6.13965 40.8156C6.13965 39.9486 6.84249 39.2457 7.70948 39.2457C8.57647 39.2457 9.27931 39.9486 9.27931 40.8156V43.9552C9.27931 44.8222 8.57647 45.5251 7.70948 45.5251C6.84249 45.5251 6.13965 44.8222 6.13965 43.9552V40.8156Z" fill="url(#paint1_linear)"/>
<path d="M54.8542 31.6849C57.6074 31.1682 60.166 30.4962 62.1534 29.6155V38.7535C55.9696 38.9369 50.2504 42.0939 46.8 47.2321C42.7941 46.474 38.6481 47.3659 35.3062 49.7102C35.2759 49.7106 35.2456 49.711 35.2153 49.7115C34.4247 49.723 33.6333 49.7345 32.8267 49.7345C23.6059 49.7345 16.3778 48.9775 11.3678 48.0103C8.86105 47.5264 6.92093 46.9921 5.56843 46.4789C4.89113 46.2219 4.37461 45.9752 4.01197 45.7503C3.72194 45.5705 3.57078 45.429 3.5 45.339V29.6155C5.48738 30.4962 8.04597 31.1682 10.7992 31.6849C13.9094 32.2687 17.3038 32.6606 20.4727 32.9241C26.811 33.451 32.2781 33.4664 32.8267 33.4664C33.3753 33.4664 38.8424 33.451 45.1807 32.9241C48.3496 32.6606 51.744 32.2687 54.8542 31.6849ZM9.77931 34.5362C9.77931 33.3931 8.85261 32.4664 7.70948 32.4664C6.56634 32.4664 5.63965 33.3931 5.63965 34.5362C5.63965 35.6794 6.56634 36.6061 7.70948 36.6061C8.85261 36.6061 9.77931 35.6794 9.77931 34.5362ZM7.70948 38.7457C6.56634 38.7457 5.63965 39.6724 5.63965 40.8156V43.9552C5.63965 45.0984 6.56634 46.0251 7.70948 46.0251C8.85261 46.0251 9.77931 45.0984 9.77931 43.9552V40.8156C9.77931 39.6724 8.85261 38.7457 7.70948 38.7457Z" stroke="white"/>
</g>
<g filter="url(#filter2_d)">
<path d="M32.8267 29.8268C51.3585 29.8268 61.9093 26.7767 62.6534 25.0577V8.41748C54.6332 12.4975 33.9115 12.5587 32.8267 12.5587C31.742 12.5587 11.0202 12.4975 3 8.41748V25.1173C3.68287 26.7594 14.2447 29.8268 32.8267 29.8268ZM45.2079 22.345C49.3671 22.0423 53.4959 21.4124 57.5562 20.4612C58.3942 20.2525 59.2435 20.7599 59.4568 21.5968C59.6701 22.4336 59.1674 23.2857 58.3317 23.5036C54.1046 24.4987 49.8056 25.1596 45.4748 25.48H45.3398C44.4728 25.5164 43.7404 24.8431 43.704 23.9761C43.6676 23.1091 44.3409 22.3767 45.2079 22.3403V22.345ZM7.70948 12.5587C8.57647 12.5587 9.27931 13.2615 9.27931 14.1285C9.27931 14.9955 8.57647 15.6984 7.70948 15.6984C6.84249 15.6984 6.13965 14.9955 6.13965 14.1285C6.13965 13.2615 6.84249 12.5587 7.70948 12.5587ZM6.13965 20.4079C6.13965 19.5409 6.84249 18.838 7.70948 18.838C8.57647 18.838 9.27931 19.5409 9.27931 20.4079V23.5475C9.27931 24.4145 8.57647 25.1173 7.70948 25.1173C6.84249 25.1173 6.13965 24.4145 6.13965 23.5475V20.4079Z" fill="#F7F7F7"/>
<path d="M32.8267 29.8268C51.3585 29.8268 61.9093 26.7767 62.6534 25.0577V8.41748C54.6332 12.4975 33.9115 12.5587 32.8267 12.5587C31.742 12.5587 11.0202 12.4975 3 8.41748V25.1173C3.68287 26.7594 14.2447 29.8268 32.8267 29.8268ZM45.2079 22.345C49.3671 22.0423 53.4959 21.4124 57.5562 20.4612C58.3942 20.2525 59.2435 20.7599 59.4568 21.5968C59.6701 22.4336 59.1674 23.2857 58.3317 23.5036C54.1046 24.4987 49.8056 25.1596 45.4748 25.48H45.3398C44.4728 25.5164 43.7404 24.8431 43.704 23.9761C43.6676 23.1091 44.3409 22.3767 45.2079 22.3403V22.345ZM7.70948 12.5587C8.57647 12.5587 9.27931 13.2615 9.27931 14.1285C9.27931 14.9955 8.57647 15.6984 7.70948 15.6984C6.84249 15.6984 6.13965 14.9955 6.13965 14.1285C6.13965 13.2615 6.84249 12.5587 7.70948 12.5587ZM6.13965 20.4079C6.13965 19.5409 6.84249 18.838 7.70948 18.838C8.57647 18.838 9.27931 19.5409 9.27931 20.4079V23.5475C9.27931 24.4145 8.57647 25.1173 7.70948 25.1173C6.84249 25.1173 6.13965 24.4145 6.13965 23.5475V20.4079Z" fill="url(#paint2_linear)"/>
<path d="M45.3272 21.8349L45.1869 21.8408C44.0441 21.8888 43.1565 22.8542 43.2045 23.9971C43.2523 25.1362 44.2116 26.0217 45.3496 25.98H45.4748H45.4933L45.5117 25.9786C49.8687 25.6563 54.1936 24.9915 58.4463 23.9903L58.4463 23.9904L58.4578 23.9874C59.5597 23.7001 60.2226 22.5767 59.9413 21.4733C59.6603 20.3711 58.5428 19.7023 57.439 19.9751C53.456 20.908 49.4065 21.5298 45.3272 21.8349ZM3.5 9.20781C5.48738 10.0885 8.04597 10.7605 10.7992 11.2772C13.9094 11.861 17.3038 12.2529 20.4727 12.5164C26.811 13.0433 32.2781 13.0587 32.8267 13.0587C33.3753 13.0587 38.8424 13.0433 45.1807 12.5164C48.3496 12.2529 51.744 11.861 54.8542 11.2772C57.6074 10.7605 60.166 10.0885 62.1534 9.20781V24.925C62.0869 25.0119 61.9408 25.1521 61.6529 25.3324C61.2945 25.5568 60.7816 25.8035 60.1069 26.0609C58.7597 26.5748 56.8222 27.1105 54.3154 27.596C49.3052 28.5662 42.0671 29.3268 32.8267 29.3268C23.5614 29.3268 16.3077 28.5619 11.2957 27.5969C8.78801 27.114 6.85275 26.5832 5.51165 26.078C4.83988 25.825 4.33116 25.5836 3.97816 25.3657C3.69841 25.193 3.56084 25.0617 3.5 24.9849V9.20781ZM9.77931 14.1285C9.77931 12.9854 8.85262 12.0587 7.70948 12.0587C6.56634 12.0587 5.63965 12.9854 5.63965 14.1285C5.63965 15.2717 6.56634 16.1984 7.70948 16.1984C8.85261 16.1984 9.77931 15.2717 9.77931 14.1285ZM7.70948 18.338C6.56634 18.338 5.63965 19.2647 5.63965 20.4079V23.5475C5.63965 24.6906 6.56635 25.6173 7.70948 25.6173C8.85261 25.6173 9.77931 24.6906 9.77931 23.5475V20.4079C9.77931 19.2647 8.85262 18.338 7.70948 18.338Z" stroke="white"/>
</g>
<g filter="url(#filter3_d)">
<path d="M32.8267 9.41899C51.1387 9.41899 61.6644 6.43631 62.6283 4.70949C61.6644 2.98268 51.1387 0 32.8267 0C14.3028 0 3.7441 3.05018 3 4.76915V4.79897C3.7441 6.3688 14.3028 9.41899 32.8267 9.41899Z" fill="#F7F7F7"/>
<path d="M32.8267 9.41899C51.1387 9.41899 61.6644 6.43631 62.6283 4.70949C61.6644 2.98268 51.1387 0 32.8267 0C14.3028 0 3.7441 3.05018 3 4.76915V4.79897C3.7441 6.3688 14.3028 9.41899 32.8267 9.41899Z" fill="url(#paint3_linear)"/>
<path d="M61.9603 4.70949C61.8642 4.78734 61.7358 4.87743 61.5669 4.97768C61.1859 5.20383 60.6542 5.44994 59.9664 5.70506C58.5925 6.21471 56.6431 6.74308 54.1394 7.22065C49.1348 8.17524 41.9574 8.91899 32.8267 8.91899C23.5905 8.91899 16.3516 8.15843 11.3392 7.20645C8.83144 6.73016 6.89136 6.2079 5.54132 5.7136C4.86514 5.46603 4.34996 5.23015 3.98951 5.01754C3.82587 4.92102 3.70852 4.8375 3.62582 4.76948C3.70979 4.69366 3.83048 4.60109 4.00075 4.49452C4.3593 4.27011 4.8725 4.02336 5.54754 3.76597C6.89542 3.25204 8.83367 2.7163 11.341 2.23084C16.3521 1.2606 23.5902 0.5 32.8267 0.5C41.9574 0.5 49.1348 1.24375 54.1394 2.19834C56.6431 2.67591 58.5925 3.20427 59.9664 3.71392C60.6542 3.96905 61.1859 4.21515 61.5669 4.44131C61.7358 4.54156 61.8642 4.63165 61.9603 4.70949Z" stroke="white"/>
</g>
<g filter="url(#filter4_d)">
<path d="M79.7111 58.6063C79.0428 58.4866 78.5272 57.9507 78.4333 57.2782C77.2402 48.7886 70.4193 42.3853 62.5655 42.3853C56.9706 42.4614 51.84 45.5122 49.1011 50.3914C48.7338 51.0127 47.9902 51.3035 47.2989 51.0962C46.2214 50.7725 45.1023 50.608 43.9772 50.608C37.8077 50.608 32.4578 55.6503 31.5331 62.3362C31.4258 63.1124 30.7626 63.6905 29.979 63.691H29.9492H29.7231C23.6432 63.6879 18.6982 69.121 18.6982 75.7991C18.6982 82.4772 23.6432 87.9103 29.7231 87.9103H77.5463C84.9653 87.9103 90.9997 81.2951 90.9997 73.1539C90.9997 65.8935 86.2526 59.7711 79.7111 58.6063Z" fill="#F7F7F7"/>
<path d="M79.7111 58.6063C79.0428 58.4866 78.5272 57.9507 78.4333 57.2782C77.2402 48.7886 70.4193 42.3853 62.5655 42.3853C56.9706 42.4614 51.84 45.5122 49.1011 50.3914C48.7338 51.0127 47.9902 51.3035 47.2989 51.0962C46.2214 50.7725 45.1023 50.608 43.9772 50.608C37.8077 50.608 32.4578 55.6503 31.5331 62.3362C31.4258 63.1124 30.7626 63.6905 29.979 63.691H29.9492H29.7231C23.6432 63.6879 18.6982 69.121 18.6982 75.7991C18.6982 82.4772 23.6432 87.9103 29.7231 87.9103H77.5463C84.9653 87.9103 90.9997 81.2951 90.9997 73.1539C90.9997 65.8935 86.2526 59.7711 79.7111 58.6063Z" fill="url(#paint4_linear)"/>
<path d="M79.6229 59.0985L79.6235 59.0986C85.895 60.2153 90.4997 66.1025 90.4997 73.1539C90.4997 81.0634 84.6468 87.4103 77.5463 87.4103H29.7231C23.9625 87.4103 19.1982 82.2463 19.1982 75.7991C19.1982 69.3518 23.9626 64.188 29.7229 64.191H29.7231H29.9492H29.979H29.9793C31.0124 64.1904 31.8869 63.4281 32.0284 62.4047C32.9237 55.9311 38.0912 51.108 43.9772 51.108C45.0536 51.108 46.1242 51.2654 47.155 51.5751L47.1553 51.5752C48.0668 51.8484 49.0472 51.465 49.5315 50.6458L49.5316 50.6459L49.5371 50.6361C52.1881 45.9135 57.1537 42.9602 62.5689 42.8853C70.1391 42.8871 76.7751 49.0721 77.9381 57.3478C78.0621 58.2343 78.7419 58.9406 79.6229 59.0985ZM29.9492 63.691H29.7231L47.2989 51.0962C46.2214 50.7725 45.1023 50.608 43.9772 50.608C37.8077 50.608 32.4578 55.6503 31.5331 62.3362C31.4258 63.1124 30.7626 63.6905 29.979 63.691H29.9492Z" stroke="white"/>
</g>
<defs>
<filter id="filter0_d" x="0" y="49.2329" width="35.0952" height="28.0075" filterUnits="userSpaceOnUse" color-interpolation-filters="sRGB">
<feFlood flood-opacity="0" result="BackgroundImageFix"/>
<feColorMatrix in="SourceAlpha" type="matrix" values="0 0 0 0 0 0 0 0 0 0 0 0 0 0 0 0 0 0 127 0"/>
<feOffset dy="3"/>
<feGaussianBlur stdDeviation="1.5"/>
<feColorMatrix type="matrix" values="0 0 0 0 0.876333 0 0 0 0 0.87824 0 0 0 0 0.88 0 0 0 1 0"/>
<feBlend mode="normal" in2="BackgroundImageFix" result="effect1_dropShadow"/>
<feBlend mode="normal" in="SourceGraphic" in2="effect1_dropShadow" result="shape"/>
</filter>
<filter id="filter1_d" x="0" y="28.8252" width="65.6534" height="27.4093" filterUnits="userSpaceOnUse" color-interpolation-filters="sRGB">
<feFlood flood-opacity="0" result="BackgroundImageFix"/>
<feColorMatrix in="SourceAlpha" type="matrix" values="0 0 0 0 0 0 0 0 0 0 0 0 0 0 0 0 0 0 127 0"/>
<feOffset dy="3"/>
<feGaussianBlur stdDeviation="1.5"/>
<feColorMatrix type="matrix" values="0 0 0 0 0.876333 0 0 0 0 0.87824 0 0 0 0 0.88 0 0 0 1 0"/>
<feBlend mode="normal" in2="BackgroundImageFix" result="effect1_dropShadow"/>
<feBlend mode="normal" in="SourceGraphic" in2="effect1_dropShadow" result="shape"/>
</filter>
<filter id="filter2_d" x="0" y="8.41748" width="65.6534" height="27.4094" filterUnits="userSpaceOnUse" color-interpolation-filters="sRGB">
<feFlood flood-opacity="0" result="BackgroundImageFix"/>
<feColorMatrix in="SourceAlpha" type="matrix" values="0 0 0 0 0 0 0 0 0 0 0 0 0 0 0 0 0 0 127 0"/>
<feOffset dy="3"/>
<feGaussianBlur stdDeviation="1.5"/>
<feColorMatrix type="matrix" values="0 0 0 0 0.876333 0 0 0 0 0.87824 0 0 0 0 0.88 0 0 0 1 0"/>
<feBlend mode="normal" in2="BackgroundImageFix" result="effect1_dropShadow"/>
<feBlend mode="normal" in="SourceGraphic" in2="effect1_dropShadow" result="shape"/>
</filter>
<filter id="filter3_d" x="0" y="0" width="65.6283" height="15.419" filterUnits="userSpaceOnUse" color-interpolation-filters="sRGB">
<feFlood flood-opacity="0" result="BackgroundImageFix"/>
<feColorMatrix in="SourceAlpha" type="matrix" values="0 0 0 0 0 0 0 0 0 0 0 0 0 0 0 0 0 0 127 0"/>
<feOffset dy="3"/>
<feGaussianBlur stdDeviation="1.5"/>
<feColorMatrix type="matrix" values="0 0 0 0 0.876333 0 0 0 0 0.87824 0 0 0 0 0.88 0 0 0 1 0"/>
<feBlend mode="normal" in2="BackgroundImageFix" result="effect1_dropShadow"/>
<feBlend mode="normal" in="SourceGraphic" in2="effect1_dropShadow" result="shape"/>
</filter>
<filter id="filter4_d" x="15.6982" y="42.3853" width="78.3015" height="51.5251" filterUnits="userSpaceOnUse" color-interpolation-filters="sRGB">
<feFlood flood-opacity="0" result="BackgroundImageFix"/>
<feColorMatrix in="SourceAlpha" type="matrix" values="0 0 0 0 0 0 0 0 0 0 0 0 0 0 0 0 0 0 127 0"/>
<feOffset dy="3"/>
<feGaussianBlur stdDeviation="1.5"/>
<feColorMatrix type="matrix" values="0 0 0 0 0.876333 0 0 0 0 0.87824 0 0 0 0 0.88 0 0 0 1 0"/>
<feBlend mode="normal" in2="BackgroundImageFix" result="effect1_dropShadow"/>
<feBlend mode="normal" in="SourceGraphic" in2="effect1_dropShadow" result="shape"/>
</filter>
<linearGradient id="paint0_linear" x1="17.5476" y1="49.2329" x2="17.5476" y2="71.2404" gradientUnits="userSpaceOnUse">
<stop stop-color="white"/>
<stop offset="1" stop-color="#EDEDED"/>
</linearGradient>
<linearGradient id="paint1_linear" x1="32.8267" y1="28.8252" x2="32.8267" y2="50.2345" gradientUnits="userSpaceOnUse">
<stop stop-color="white"/>
<stop offset="1" stop-color="#EDEDED"/>
</linearGradient>
<linearGradient id="paint2_linear" x1="32.8267" y1="8.41748" x2="32.8267" y2="29.8268" gradientUnits="userSpaceOnUse">
<stop stop-color="white"/>
<stop offset="1" stop-color="#EDEDED"/>
</linearGradient>
<linearGradient id="paint3_linear" x1="32.8141" y1="0" x2="32.8141" y2="9.41899" gradientUnits="userSpaceOnUse">
<stop stop-color="white"/>
<stop offset="1" stop-color="#EDEDED"/>
</linearGradient>
<linearGradient id="paint4_linear" x1="54.849" y1="42.3853" x2="54.849" y2="87.9103" gradientUnits="userSpaceOnUse">
<stop stop-color="white"/>
<stop offset="1" stop-color="#EDEDED"/>
</linearGradient>
</defs>
</svg>
