<svg width="90" height="91" viewBox="0 0 90 91" fill="none" xmlns="http://www.w3.org/2000/svg">
<g filter="url(#filter0_d)">
<path d="M32.625 68.125H35.375V70.875H32.625V68.125Z" fill="#F7F7F7"/>
<path d="M32.625 68.125H35.375V70.875H32.625V68.125Z" fill="url(#paint0_linear)"/>
<path d="M33.125 68.625H34.875V70.375H33.125V68.625Z" stroke="white"/>
</g>
<g filter="url(#filter1_d)">
<path d="M78 81.8754V31.9766L45 9.57373L12 31.9766V46.652C13.9718 46.652 15.7208 47.8331 16.4605 49.6619C19.887 58.1346 21.625 63.8849 21.625 66.7504C21.625 72.4841 18.1614 76.9157 13.375 77.6362V74.8491C16.5127 74.152 18.875 71.0734 18.875 66.7504C18.875 63.5274 15.9449 55.7229 13.9099 50.6917C13.2141 48.9716 10.7845 48.9716 10.0888 50.6917C8.05513 55.7229 5.125 63.5274 5.125 66.7504C5.125 71.0747 7.48725 74.152 10.625 74.8491V81.8754H3.75V84.6254H86.25V81.8754H78ZM58.75 64.0004L61.5 59.8754L64.25 64.0004V68.1254H69.75V64.0004L72.5 59.8754L75.25 64.0004V81.8754H69.75V73.6254H64.25V81.8754H58.75V73.6254H53.25V81.8754H47.75V64.0004L50.5 59.8754L53.25 64.0004V68.1254H58.75V64.0004ZM46.375 36.5004H53.25V39.2504C53.25 41.5287 51.4034 43.3754 49.125 43.3754H46.375V36.5004ZM49.125 26.8754C51.4034 26.8754 53.25 28.722 53.25 31.0004V33.7504H46.375V26.8754H49.125ZM36.75 31.0004C36.75 28.722 38.5966 26.8754 40.875 26.8754H43.625V33.7504H36.75V31.0004ZM36.75 36.5004H43.625V43.3754H40.875C38.5966 43.3754 36.75 41.5287 36.75 39.2504V36.5004ZM39.5 55.7504V81.8754H24.375V55.7504H39.5Z" fill="#F7F7F7"/>
<path d="M78 81.8754V31.9766L45 9.57373L12 31.9766V46.652C13.9718 46.652 15.7208 47.8331 16.4605 49.6619C19.887 58.1346 21.625 63.8849 21.625 66.7504C21.625 72.4841 18.1614 76.9157 13.375 77.6362V74.8491C16.5127 74.152 18.875 71.0734 18.875 66.7504C18.875 63.5274 15.9449 55.7229 13.9099 50.6917C13.2141 48.9716 10.7845 48.9716 10.0888 50.6917C8.05513 55.7229 5.125 63.5274 5.125 66.7504C5.125 71.0747 7.48725 74.152 10.625 74.8491V81.8754H3.75V84.6254H86.25V81.8754H78ZM58.75 64.0004L61.5 59.8754L64.25 64.0004V68.1254H69.75V64.0004L72.5 59.8754L75.25 64.0004V81.8754H69.75V73.6254H64.25V81.8754H58.75V73.6254H53.25V81.8754H47.75V64.0004L50.5 59.8754L53.25 64.0004V68.1254H58.75V64.0004ZM46.375 36.5004H53.25V39.2504C53.25 41.5287 51.4034 43.3754 49.125 43.3754H46.375V36.5004ZM49.125 26.8754C51.4034 26.8754 53.25 28.722 53.25 31.0004V33.7504H46.375V26.8754H49.125ZM36.75 31.0004C36.75 28.722 38.5966 26.8754 40.875 26.8754H43.625V33.7504H36.75V31.0004ZM36.75 36.5004H43.625V43.3754H40.875C38.5966 43.3754 36.75 41.5287 36.75 39.2504V36.5004ZM39.5 55.7504V81.8754H24.375V55.7504H39.5Z" fill="url(#paint1_linear)"/>
<path d="M77.5 81.8754V82.3754H78H85.75V84.1254H4.25V82.3754H10.625H11.125V81.8754V74.8491V74.448L10.7334 74.361C7.87495 73.7259 5.625 70.8963 5.625 66.7504C5.625 66.0057 5.79646 64.9604 6.10052 63.7069C6.40263 62.4613 6.82798 61.0404 7.31897 59.5561C8.30082 56.588 9.53723 53.3904 10.5523 50.8791C11.0796 49.5758 12.9192 49.5758 13.4464 50.8792C14.4621 53.3905 15.6989 56.588 16.6809 59.5561C17.1719 61.0404 17.5973 62.4613 17.8995 63.7069C18.2035 64.9604 18.375 66.0057 18.375 66.7504C18.375 70.895 16.125 73.7259 13.2666 74.361L12.875 74.448V74.8491V77.6362V78.2171L13.4494 78.1307C18.529 77.366 22.125 72.6789 22.125 66.7504C22.125 65.2397 21.6714 63.0264 20.8063 60.1642C19.9375 57.2894 18.6403 53.7183 16.924 49.4744L16.924 49.4744C16.1711 47.6131 14.468 46.3581 12.5 46.1751V32.2415L45 10.1781L77.5 32.2415V81.8754ZM58.334 63.723L58.25 63.849V64.0004V67.6254H53.75V64.0004V63.849L53.666 63.723L50.916 59.598L50.5 58.974L50.084 59.598L47.334 63.723L47.25 63.849V64.0004V81.8754V82.3754H47.75H53.25H53.75V81.8754V74.1254H58.25V81.8754V82.3754H58.75H64.25H64.75V81.8754V74.1254H69.25V81.8754V82.3754H69.75H75.25H75.75V81.8754V64.0004V63.849L75.666 63.723L72.916 59.598L72.5 58.974L72.084 59.598L69.334 63.723L69.25 63.849V64.0004V67.6254H64.75V64.0004V63.849L64.666 63.723L61.916 59.598L61.5 58.974L61.084 59.598L58.334 63.723ZM46.375 36.0004H45.875V36.5004V43.3754V43.8754H46.375H49.125C51.6795 43.8754 53.75 41.8049 53.75 39.2504V36.5004V36.0004H53.25H46.375ZM53.25 34.2504H53.75V33.7504V31.0004C53.75 28.4458 51.6795 26.3754 49.125 26.3754H46.375H45.875V26.8754V33.7504V34.2504H46.375H53.25ZM44.125 26.8754V26.3754H43.625H40.875C38.3205 26.3754 36.25 28.4458 36.25 31.0004V33.7504V34.2504H36.75H43.625H44.125V33.7504V26.8754ZM36.75 36.0004H36.25V36.5004V39.2504C36.25 41.8049 38.3205 43.8754 40.875 43.8754H43.625H44.125V43.3754V36.5004V36.0004H43.625H36.75ZM40 55.7504V55.2504H39.5H24.375H23.875V55.7504V81.8754V82.3754H24.375H39.5H40V81.8754V55.7504Z" stroke="white"/>
</g>
<g filter="url(#filter2_d)">
<path d="M42.1922 8.72861C43.8872 7.57844 46.1122 7.57844 47.8072 8.72861L79.6792 30.3561C80.9363 31.2091 82.647 30.8814 83.4999 29.6241C84.3526 28.3671 84.025 26.6568 82.768 25.8039L47.8071 2.08168C46.1122 0.931613 43.8872 0.931614 42.1923 2.08168L7.23135 25.8039C5.97442 26.6568 5.64676 28.3671 6.49947 29.6241C7.35235 30.8814 9.06305 31.2091 10.3202 30.3561L42.1922 8.72861Z" fill="#F7F7F7"/>
<path d="M42.1922 8.72861C43.8872 7.57844 46.1122 7.57844 47.8072 8.72861L79.6792 30.3561C80.9363 31.2091 82.647 30.8814 83.4999 29.6241C84.3526 28.3671 84.025 26.6568 82.768 25.8039L47.8071 2.08168C46.1122 0.931613 43.8872 0.931614 42.1923 2.08168L7.23135 25.8039C5.97442 26.6568 5.64676 28.3671 6.49947 29.6241C7.35235 30.8814 9.06305 31.2091 10.3202 30.3561L42.1922 8.72861Z" fill="url(#paint2_linear)"/>
<path d="M6.91325 29.3434L6.49947 29.6241L6.91325 29.3434C6.21555 28.3149 6.48365 26.9155 7.51209 26.2177L42.473 2.49543C43.9985 1.46037 46.0009 1.46036 47.5264 2.49543L82.4873 26.2177C83.5157 26.9155 83.7838 28.3149 83.0861 29.3434C82.3883 30.3722 80.9885 30.6403 79.9599 29.9423L48.0879 8.31487C46.2235 7.04969 43.7759 7.04969 41.9114 8.31487L10.0395 29.9423C9.01083 30.6403 7.6111 30.3722 6.91325 29.3434Z" stroke="white"/>
</g>
<defs>
<filter id="filter0_d" x="29.625" y="68.125" width="8.75" height="8.75" filterUnits="userSpaceOnUse" color-interpolation-filters="sRGB">
<feFlood flood-opacity="0" result="BackgroundImageFix"/>
<feColorMatrix in="SourceAlpha" type="matrix" values="0 0 0 0 0 0 0 0 0 0 0 0 0 0 0 0 0 0 127 0"/>
<feOffset dy="3"/>
<feGaussianBlur stdDeviation="1.5"/>
<feColorMatrix type="matrix" values="0 0 0 0 0.876333 0 0 0 0 0.87824 0 0 0 0 0.88 0 0 0 1 0"/>
<feBlend mode="normal" in2="BackgroundImageFix" result="effect1_dropShadow"/>
<feBlend mode="normal" in="SourceGraphic" in2="effect1_dropShadow" result="shape"/>
</filter>
<filter id="filter1_d" x="0.75" y="9.57373" width="88.5" height="81.0516" filterUnits="userSpaceOnUse" color-interpolation-filters="sRGB">
<feFlood flood-opacity="0" result="BackgroundImageFix"/>
<feColorMatrix in="SourceAlpha" type="matrix" values="0 0 0 0 0 0 0 0 0 0 0 0 0 0 0 0 0 0 127 0"/>
<feOffset dy="3"/>
<feGaussianBlur stdDeviation="1.5"/>
<feColorMatrix type="matrix" values="0 0 0 0 0.876333 0 0 0 0 0.87824 0 0 0 0 0.88 0 0 0 1 0"/>
<feBlend mode="normal" in2="BackgroundImageFix" result="effect1_dropShadow"/>
<feBlend mode="normal" in="SourceGraphic" in2="effect1_dropShadow" result="shape"/>
</filter>
<filter id="filter2_d" x="3.0249" y="1.21924" width="83.9496" height="35.6117" filterUnits="userSpaceOnUse" color-interpolation-filters="sRGB">
<feFlood flood-opacity="0" result="BackgroundImageFix"/>
<feColorMatrix in="SourceAlpha" type="matrix" values="0 0 0 0 0 0 0 0 0 0 0 0 0 0 0 0 0 0 127 0"/>
<feOffset dy="3"/>
<feGaussianBlur stdDeviation="1.5"/>
<feColorMatrix type="matrix" values="0 0 0 0 0.876333 0 0 0 0 0.87824 0 0 0 0 0.88 0 0 0 1 0"/>
<feBlend mode="normal" in2="BackgroundImageFix" result="effect1_dropShadow"/>
<feBlend mode="normal" in="SourceGraphic" in2="effect1_dropShadow" result="shape"/>
</filter>
<linearGradient id="paint0_linear" x1="34" y1="68.125" x2="34" y2="70.875" gradientUnits="userSpaceOnUse">
<stop stop-color="white"/>
<stop offset="1" stop-color="#EDEDED"/>
</linearGradient>
<linearGradient id="paint1_linear" x1="45" y1="9.57373" x2="45" y2="84.6254" gradientUnits="userSpaceOnUse">
<stop stop-color="white"/>
<stop offset="1" stop-color="#EDEDED"/>
</linearGradient>
<linearGradient id="paint2_linear" x1="44.9997" y1="0.176758" x2="44.9997" y2="31.9008" gradientUnits="userSpaceOnUse">
<stop stop-color="white"/>
<stop offset="1" stop-color="#EDEDED"/>
</linearGradient>
</defs>
</svg>
