<svg width="94" height="95" viewBox="0 0 94 95" fill="none" xmlns="http://www.w3.org/2000/svg">
<g filter="url(#filter0_d)">
<path d="M15.1387 60.9116H36.3801V73.0607H15.1387V60.9116Z" fill="#F7F7F7"/>
<path d="M15.1387 60.9116H36.3801V73.0607H15.1387V60.9116Z" fill="url(#paint0_linear)"/>
<path d="M15.6387 61.4116H35.8801V72.5607H15.6387V61.4116Z" stroke="white"/>
</g>
<g filter="url(#filter1_d)">
<path d="M51.5518 49.037V57.8751H72.7932V45.7261H67.0884L51.5518 49.037Z" fill="#F7F7F7"/>
<path d="M51.5518 49.037V57.8751H72.7932V45.7261H67.0884L51.5518 49.037Z" fill="url(#paint1_linear)"/>
<path d="M72.2932 57.3751H52.0518V49.4417L67.1411 46.2261H72.2932V57.3751Z" stroke="white"/>
</g>
<g filter="url(#filter2_d)">
<path d="M35.4693 45.7261H27.2764V57.8751H48.5178V49.6747L38.8377 51.7398C38.598 51.7875 38.3543 51.813 38.1092 51.8157C36.8725 51.8016 35.7325 51.1451 35.0981 50.0826C34.4636 49.0202 34.426 47.7038 34.9987 46.6071L35.4693 45.7261Z" fill="#F7F7F7"/>
<path d="M35.4693 45.7261H27.2764V57.8751H48.5178V49.6747L38.8377 51.7398C38.598 51.7875 38.3543 51.813 38.1092 51.8157C36.8725 51.8016 35.7325 51.1451 35.0981 50.0826C34.4636 49.0202 34.426 47.7038 34.9987 46.6071L35.4693 45.7261Z" fill="url(#paint2_linear)"/>
<path d="M38.9353 52.2302L38.9353 52.2302L38.942 52.2288L48.0178 50.2926V57.3751H27.7764V46.2261H34.6353L34.5577 46.3715L34.5577 46.3715L34.5555 46.3756C33.9024 47.6263 33.9453 49.1274 34.6688 50.339C35.3923 51.5505 36.6926 52.2996 38.1035 52.3157L38.1035 52.3158L38.1147 52.3157C38.3909 52.3127 38.6655 52.2839 38.9353 52.2302Z" stroke="white"/>
</g>
<g filter="url(#filter3_d)">
<path d="M6.03468 51.8009H3V57.8751H24.2414V45.7261H3V48.7635H6.03468C6.87258 48.7635 7.55202 49.4436 7.55202 50.2822C7.55202 51.1209 6.87258 51.8009 6.03468 51.8009ZM12.1034 48.7635H18.1727C19.0106 48.7635 19.6894 49.4436 19.6894 50.2822C19.6894 51.1209 19.0106 51.8009 18.1727 51.8009H12.1034C11.2655 51.8009 10.586 51.1209 10.586 50.2822C10.586 49.4436 11.2655 48.7635 12.1034 48.7635Z" fill="#F7F7F7"/>
<path d="M6.03468 51.8009H3V57.8751H24.2414V45.7261H3V48.7635H6.03468C6.87258 48.7635 7.55202 49.4436 7.55202 50.2822C7.55202 51.1209 6.87258 51.8009 6.03468 51.8009ZM12.1034 48.7635H18.1727C19.0106 48.7635 19.6894 49.4436 19.6894 50.2822C19.6894 51.1209 19.0106 51.8009 18.1727 51.8009H12.1034C11.2655 51.8009 10.586 51.1209 10.586 50.2822C10.586 49.4436 11.2655 48.7635 12.1034 48.7635Z" fill="url(#paint3_linear)"/>
<path d="M3.5 57.3751V52.3009H6.03468C7.14914 52.3009 8.05202 51.3966 8.05202 50.2822C8.05202 49.1678 7.14914 48.2635 6.03468 48.2635H3.5V46.2261H23.7414V57.3751H3.5ZM18.1727 48.2635H12.1034C10.9889 48.2635 10.086 49.1678 10.086 50.2822C10.086 51.3966 10.9889 52.3009 12.1034 52.3009H18.1727C19.2875 52.3009 20.1894 51.3963 20.1894 50.2822C20.1894 49.1681 19.2875 48.2635 18.1727 48.2635Z" stroke="white"/>
</g>
<g filter="url(#filter4_d)">
<path d="M39.4141 60.9116H60.6555V73.0607H39.4141V60.9116Z" fill="#F7F7F7"/>
<path d="M39.4141 60.9116H60.6555V73.0607H39.4141V60.9116Z" fill="url(#paint4_linear)"/>
<path d="M39.9141 61.4116H60.1555V72.5607H39.9141V61.4116Z" stroke="white"/>
</g>
<g filter="url(#filter5_d)">
<path d="M54.4505 37.5254C53.9738 37.522 53.5253 37.2976 53.2366 36.9179C52.7364 36.2466 52.8721 35.2964 53.5401 34.7917L59.8062 30.0844L52.9486 20.9418C52.8533 20.8101 52.7015 20.7315 52.5384 20.7295H52.5082C52.3913 20.7376 52.288 20.8068 52.2356 20.9116L37.6698 48.0341C37.5912 48.2068 37.6127 48.4091 37.7268 48.5609C37.8403 48.7128 38.0283 48.7901 38.2156 48.7632L68.3181 42.3544C68.4362 42.3436 68.5343 42.2576 68.5611 42.142C68.6209 41.9827 68.592 41.8033 68.4852 41.6709L61.627 32.5136L55.3609 37.2216C55.097 37.4159 54.7781 37.522 54.4505 37.5254Z" fill="#F7F7F7"/>
<path d="M54.4505 37.5254C53.9738 37.522 53.5253 37.2976 53.2366 36.9179C52.7364 36.2466 52.8721 35.2964 53.5401 34.7917L59.8062 30.0844L52.9486 20.9418C52.8533 20.8101 52.7015 20.7315 52.5384 20.7295H52.5082C52.3913 20.7376 52.288 20.8068 52.2356 20.9116L37.6698 48.0341C37.5912 48.2068 37.6127 48.4091 37.7268 48.5609C37.8403 48.7128 38.0283 48.7901 38.2156 48.7632L68.3181 42.3544C68.4362 42.3436 68.5343 42.2576 68.5611 42.142C68.6209 41.9827 68.592 41.8033 68.4852 41.6709L61.627 32.5136L55.3609 37.2216C55.097 37.4159 54.7781 37.522 54.4505 37.5254Z" fill="url(#paint5_linear)"/>
<path d="M54.447 38.0254V38.0255L54.4556 38.0254C54.8878 38.0209 55.3087 37.8809 55.6573 37.6243L55.6573 37.6244L55.6612 37.6214L61.527 33.2142L68.0347 41.9035L38.1391 48.2683C38.1341 48.2676 38.1298 48.2649 38.1274 48.2617L38.1265 48.2605C38.1239 48.257 38.1224 48.2518 38.1233 48.2464L52.5936 21.3018L59.1064 29.9847L53.2398 34.3919L53.2387 34.3928C52.3514 35.0631 52.1713 36.3249 52.8357 37.2166L52.8357 37.2167L52.8386 37.2205C53.2211 37.7235 53.8152 38.0209 54.447 38.0254ZM37.6698 48.0341C37.5912 48.2068 37.6127 48.4091 37.7268 48.5609C37.8403 48.7128 38.0283 48.7901 38.2156 48.7632L68.3181 42.3544C68.4362 42.3436 68.5343 42.2576 68.5611 42.142L37.6698 48.0341Z" stroke="white"/>
</g>
<g filter="url(#filter6_d)">
<path d="M63.6895 60.9116H84.9315V73.0607H63.6895V60.9116Z" fill="#F7F7F7"/>
<path d="M63.6895 60.9116H84.9315V73.0607H63.6895V60.9116Z" fill="url(#paint6_linear)"/>
<path d="M64.1895 61.4116H84.4315V72.5607H64.1895V61.4116Z" stroke="white"/>
</g>
<g filter="url(#filter7_d)">
<path d="M51.5518 76.0981H72.7932V88.2471H51.5518V76.0981Z" fill="#F7F7F7"/>
<path d="M51.5518 76.0981H72.7932V88.2471H51.5518V76.0981Z" fill="url(#paint7_linear)"/>
<path d="M52.0518 76.5981H72.2932V87.7471H52.0518V76.5981Z" stroke="white"/>
</g>
<g filter="url(#filter8_d)">
<path d="M3 76.0981H24.2414V88.2471H3V76.0981Z" fill="#F7F7F7"/>
<path d="M3 76.0981H24.2414V88.2471H3V76.0981Z" fill="url(#paint8_linear)"/>
<path d="M3.5 76.5981H23.7414V87.7471H3.5V76.5981Z" stroke="white"/>
</g>
<g filter="url(#filter9_d)">
<path d="M27.2764 76.0981H48.5178V88.2471H27.2764V76.0981Z" fill="#F7F7F7"/>
<path d="M27.2764 76.0981H48.5178V88.2471H27.2764V76.0981Z" fill="url(#paint9_linear)"/>
<path d="M27.7764 76.5981H48.0178V87.7471H27.7764V76.5981Z" stroke="white"/>
</g>
<g filter="url(#filter10_d)">
<path d="M89.2408 1.98961C87.7288 -0.0176432 84.8808 -0.424874 82.8679 1.07839L70.3505 10.479C69.6825 10.9836 69.5469 11.9332 70.0471 12.6052L71.3825 14.3819L68.2262 16.7507C66.8157 17.8064 66.0288 19.5012 66.1328 21.2612L66.2846 23.9949C66.3242 24.7381 65.9878 25.4511 65.3896 25.8926L59.8057 30.0845L61.6265 32.5138L67.2098 28.3225C68.6204 27.2729 69.4072 25.5835 69.3038 23.8275L69.1521 21.0938C69.1152 20.3473 69.4509 19.6302 70.0471 19.1807L73.2033 16.8112L74.538 18.588C74.7837 18.9072 75.1422 19.1195 75.5397 19.1807C75.6095 19.1934 75.6807 19.1988 75.7519 19.1955C76.0802 19.1948 76.3998 19.0886 76.6623 18.8917L89.1797 9.4918C91.1898 7.98182 91.5974 5.1265 90.0901 3.1132L89.2408 1.98961ZM87.3589 7.06186L76.0553 15.5512L74.7206 13.7744L73.3852 11.9977L84.6887 3.50833C85.3595 3.00635 86.3095 3.14209 86.813 3.81207L87.6623 4.93565C87.906 5.2562 88.0101 5.66141 87.951 6.05991C87.8933 6.45907 87.6805 6.81926 87.3589 7.06186Z" fill="#F7F7F7"/>
<path d="M89.2408 1.98961C87.7288 -0.0176432 84.8808 -0.424874 82.8679 1.07839L70.3505 10.479C69.6825 10.9836 69.5469 11.9332 70.0471 12.6052L71.3825 14.3819L68.2262 16.7507C66.8157 17.8064 66.0288 19.5012 66.1328 21.2612L66.2846 23.9949C66.3242 24.7381 65.9878 25.4511 65.3896 25.8926L59.8057 30.0845L61.6265 32.5138L67.2098 28.3225C68.6204 27.2729 69.4072 25.5835 69.3038 23.8275L69.1521 21.0938C69.1152 20.3473 69.4509 19.6302 70.0471 19.1807L73.2033 16.8112L74.538 18.588C74.7837 18.9072 75.1422 19.1195 75.5397 19.1807C75.6095 19.1934 75.6807 19.1988 75.7519 19.1955C76.0802 19.1948 76.3998 19.0886 76.6623 18.8917L89.1797 9.4918C91.1898 7.98182 91.5974 5.1265 90.0901 3.1132L89.2408 1.98961ZM87.3589 7.06186L76.0553 15.5512L74.7206 13.7744L73.3852 11.9977L84.6887 3.50833C85.3595 3.00635 86.3095 3.14209 86.813 3.81207L87.6623 4.93565C87.906 5.2562 88.0101 5.66141 87.951 6.05991C87.8933 6.45907 87.6805 6.81926 87.3589 7.06186Z" fill="url(#paint10_linear)"/>
<path d="M88.8414 2.29045L88.8419 2.29112L89.6898 3.41285C89.69 3.41311 89.6902 3.41336 89.6904 3.41362C91.0318 5.20621 90.6686 7.748 88.8794 9.09203L76.3623 18.4917C76.1866 18.6234 75.9721 18.695 75.7508 18.6955L75.7396 18.6955L75.7283 18.696C75.6979 18.6974 75.6649 18.6953 75.6296 18.6888L75.6297 18.6886L75.6157 18.6865C75.3467 18.6451 75.1034 18.5016 74.9358 18.2851L73.603 16.5109L73.3028 16.1112L72.9031 16.4113L69.7469 18.7808L69.746 18.7814C69.0176 19.3307 68.6076 20.2065 68.6527 21.1185L68.6529 21.1216L68.8046 23.8552L68.8047 23.8569C68.8982 25.4448 68.1866 26.9724 66.9113 27.9214L66.9096 27.9227L61.7265 31.8135L60.5054 30.1844L65.6865 26.2949C65.6871 26.2945 65.6877 26.294 65.6882 26.2936C66.4208 25.7521 66.8324 24.8786 66.7839 23.9683L66.7838 23.9672L66.6321 21.2335L66.632 21.2317C66.5378 19.6394 67.2498 18.1061 68.5258 17.151L68.5264 17.1506L71.6826 14.7818L72.0828 14.4815L71.7821 14.0815L70.4481 12.3066C70.448 12.3064 70.4478 12.3061 70.4476 12.3059C70.1121 11.8543 70.2034 11.2172 70.6514 10.8783C70.6516 10.8782 70.6518 10.878 70.6519 10.8779L83.1671 1.47899C83.1674 1.47881 83.1676 1.47864 83.1678 1.47846C84.9599 0.140673 87.4952 0.503239 88.8414 2.29045ZM87.6591 7.46166L87.66 7.46102C88.0869 7.13899 88.3691 6.66115 88.4458 6.13192C88.5242 5.60094 88.3855 5.06097 88.0608 4.63363C88.0607 4.63343 88.0605 4.63323 88.0604 4.63303L87.2127 3.51167C87.2126 3.51152 87.2125 3.51137 87.2124 3.51122C86.5431 2.62127 85.2806 2.44088 84.3891 3.10803L84.3885 3.10853L73.0849 11.5979L72.685 11.8983L72.9855 12.2981L74.3208 14.0748L74.3209 14.0749L75.6556 15.8515L75.9558 16.2512L76.3556 15.951L87.6591 7.46166Z" stroke="white"/>
</g>
<defs>
<filter id="filter0_d" x="12.1387" y="60.9116" width="27.2414" height="18.149" filterUnits="userSpaceOnUse" color-interpolation-filters="sRGB">
<feFlood flood-opacity="0" result="BackgroundImageFix"/>
<feColorMatrix in="SourceAlpha" type="matrix" values="0 0 0 0 0 0 0 0 0 0 0 0 0 0 0 0 0 0 127 0"/>
<feOffset dy="3"/>
<feGaussianBlur stdDeviation="1.5"/>
<feColorMatrix type="matrix" values="0 0 0 0 0.876333 0 0 0 0 0.87824 0 0 0 0 0.88 0 0 0 1 0"/>
<feBlend mode="normal" in2="BackgroundImageFix" result="effect1_dropShadow"/>
<feBlend mode="normal" in="SourceGraphic" in2="effect1_dropShadow" result="shape"/>
</filter>
<filter id="filter1_d" x="48.5518" y="45.7261" width="27.2415" height="18.149" filterUnits="userSpaceOnUse" color-interpolation-filters="sRGB">
<feFlood flood-opacity="0" result="BackgroundImageFix"/>
<feColorMatrix in="SourceAlpha" type="matrix" values="0 0 0 0 0 0 0 0 0 0 0 0 0 0 0 0 0 0 127 0"/>
<feOffset dy="3"/>
<feGaussianBlur stdDeviation="1.5"/>
<feColorMatrix type="matrix" values="0 0 0 0 0.876333 0 0 0 0 0.87824 0 0 0 0 0.88 0 0 0 1 0"/>
<feBlend mode="normal" in2="BackgroundImageFix" result="effect1_dropShadow"/>
<feBlend mode="normal" in="SourceGraphic" in2="effect1_dropShadow" result="shape"/>
</filter>
<filter id="filter2_d" x="24.2764" y="45.7261" width="27.2414" height="18.149" filterUnits="userSpaceOnUse" color-interpolation-filters="sRGB">
<feFlood flood-opacity="0" result="BackgroundImageFix"/>
<feColorMatrix in="SourceAlpha" type="matrix" values="0 0 0 0 0 0 0 0 0 0 0 0 0 0 0 0 0 0 127 0"/>
<feOffset dy="3"/>
<feGaussianBlur stdDeviation="1.5"/>
<feColorMatrix type="matrix" values="0 0 0 0 0.876333 0 0 0 0 0.87824 0 0 0 0 0.88 0 0 0 1 0"/>
<feBlend mode="normal" in2="BackgroundImageFix" result="effect1_dropShadow"/>
<feBlend mode="normal" in="SourceGraphic" in2="effect1_dropShadow" result="shape"/>
</filter>
<filter id="filter3_d" x="0" y="45.7261" width="27.2414" height="18.149" filterUnits="userSpaceOnUse" color-interpolation-filters="sRGB">
<feFlood flood-opacity="0" result="BackgroundImageFix"/>
<feColorMatrix in="SourceAlpha" type="matrix" values="0 0 0 0 0 0 0 0 0 0 0 0 0 0 0 0 0 0 127 0"/>
<feOffset dy="3"/>
<feGaussianBlur stdDeviation="1.5"/>
<feColorMatrix type="matrix" values="0 0 0 0 0.876333 0 0 0 0 0.87824 0 0 0 0 0.88 0 0 0 1 0"/>
<feBlend mode="normal" in2="BackgroundImageFix" result="effect1_dropShadow"/>
<feBlend mode="normal" in="SourceGraphic" in2="effect1_dropShadow" result="shape"/>
</filter>
<filter id="filter4_d" x="36.4141" y="60.9116" width="27.2414" height="18.149" filterUnits="userSpaceOnUse" color-interpolation-filters="sRGB">
<feFlood flood-opacity="0" result="BackgroundImageFix"/>
<feColorMatrix in="SourceAlpha" type="matrix" values="0 0 0 0 0 0 0 0 0 0 0 0 0 0 0 0 0 0 127 0"/>
<feOffset dy="3"/>
<feGaussianBlur stdDeviation="1.5"/>
<feColorMatrix type="matrix" values="0 0 0 0 0.876333 0 0 0 0 0.87824 0 0 0 0 0.88 0 0 0 1 0"/>
<feBlend mode="normal" in2="BackgroundImageFix" result="effect1_dropShadow"/>
<feBlend mode="normal" in="SourceGraphic" in2="effect1_dropShadow" result="shape"/>
</filter>
<filter id="filter5_d" x="34.623" y="20.7295" width="36.9687" height="34.039" filterUnits="userSpaceOnUse" color-interpolation-filters="sRGB">
<feFlood flood-opacity="0" result="BackgroundImageFix"/>
<feColorMatrix in="SourceAlpha" type="matrix" values="0 0 0 0 0 0 0 0 0 0 0 0 0 0 0 0 0 0 127 0"/>
<feOffset dy="3"/>
<feGaussianBlur stdDeviation="1.5"/>
<feColorMatrix type="matrix" values="0 0 0 0 0.876333 0 0 0 0 0.87824 0 0 0 0 0.88 0 0 0 1 0"/>
<feBlend mode="normal" in2="BackgroundImageFix" result="effect1_dropShadow"/>
<feBlend mode="normal" in="SourceGraphic" in2="effect1_dropShadow" result="shape"/>
</filter>
<filter id="filter6_d" x="60.6895" y="60.9116" width="27.2421" height="18.149" filterUnits="userSpaceOnUse" color-interpolation-filters="sRGB">
<feFlood flood-opacity="0" result="BackgroundImageFix"/>
<feColorMatrix in="SourceAlpha" type="matrix" values="0 0 0 0 0 0 0 0 0 0 0 0 0 0 0 0 0 0 127 0"/>
<feOffset dy="3"/>
<feGaussianBlur stdDeviation="1.5"/>
<feColorMatrix type="matrix" values="0 0 0 0 0.876333 0 0 0 0 0.87824 0 0 0 0 0.88 0 0 0 1 0"/>
<feBlend mode="normal" in2="BackgroundImageFix" result="effect1_dropShadow"/>
<feBlend mode="normal" in="SourceGraphic" in2="effect1_dropShadow" result="shape"/>
</filter>
<filter id="filter7_d" x="48.5518" y="76.0981" width="27.2415" height="18.149" filterUnits="userSpaceOnUse" color-interpolation-filters="sRGB">
<feFlood flood-opacity="0" result="BackgroundImageFix"/>
<feColorMatrix in="SourceAlpha" type="matrix" values="0 0 0 0 0 0 0 0 0 0 0 0 0 0 0 0 0 0 127 0"/>
<feOffset dy="3"/>
<feGaussianBlur stdDeviation="1.5"/>
<feColorMatrix type="matrix" values="0 0 0 0 0.876333 0 0 0 0 0.87824 0 0 0 0 0.88 0 0 0 1 0"/>
<feBlend mode="normal" in2="BackgroundImageFix" result="effect1_dropShadow"/>
<feBlend mode="normal" in="SourceGraphic" in2="effect1_dropShadow" result="shape"/>
</filter>
<filter id="filter8_d" x="0" y="76.0981" width="27.2414" height="18.149" filterUnits="userSpaceOnUse" color-interpolation-filters="sRGB">
<feFlood flood-opacity="0" result="BackgroundImageFix"/>
<feColorMatrix in="SourceAlpha" type="matrix" values="0 0 0 0 0 0 0 0 0 0 0 0 0 0 0 0 0 0 127 0"/>
<feOffset dy="3"/>
<feGaussianBlur stdDeviation="1.5"/>
<feColorMatrix type="matrix" values="0 0 0 0 0.876333 0 0 0 0 0.87824 0 0 0 0 0.88 0 0 0 1 0"/>
<feBlend mode="normal" in2="BackgroundImageFix" result="effect1_dropShadow"/>
<feBlend mode="normal" in="SourceGraphic" in2="effect1_dropShadow" result="shape"/>
</filter>
<filter id="filter9_d" x="24.2764" y="76.0981" width="27.2414" height="18.149" filterUnits="userSpaceOnUse" color-interpolation-filters="sRGB">
<feFlood flood-opacity="0" result="BackgroundImageFix"/>
<feColorMatrix in="SourceAlpha" type="matrix" values="0 0 0 0 0 0 0 0 0 0 0 0 0 0 0 0 0 0 127 0"/>
<feOffset dy="3"/>
<feGaussianBlur stdDeviation="1.5"/>
<feColorMatrix type="matrix" values="0 0 0 0 0.876333 0 0 0 0 0.87824 0 0 0 0 0.88 0 0 0 1 0"/>
<feBlend mode="normal" in2="BackgroundImageFix" result="effect1_dropShadow"/>
<feBlend mode="normal" in="SourceGraphic" in2="effect1_dropShadow" result="shape"/>
</filter>
<filter id="filter10_d" x="56.8057" y="0.171387" width="37.1943" height="38.3424" filterUnits="userSpaceOnUse" color-interpolation-filters="sRGB">
<feFlood flood-opacity="0" result="BackgroundImageFix"/>
<feColorMatrix in="SourceAlpha" type="matrix" values="0 0 0 0 0 0 0 0 0 0 0 0 0 0 0 0 0 0 127 0"/>
<feOffset dy="3"/>
<feGaussianBlur stdDeviation="1.5"/>
<feColorMatrix type="matrix" values="0 0 0 0 0.876333 0 0 0 0 0.87824 0 0 0 0 0.88 0 0 0 1 0"/>
<feBlend mode="normal" in2="BackgroundImageFix" result="effect1_dropShadow"/>
<feBlend mode="normal" in="SourceGraphic" in2="effect1_dropShadow" result="shape"/>
</filter>
<linearGradient id="paint0_linear" x1="25.7594" y1="60.9116" x2="25.7594" y2="73.0607" gradientUnits="userSpaceOnUse">
<stop stop-color="white"/>
<stop offset="1" stop-color="#EDEDED"/>
</linearGradient>
<linearGradient id="paint1_linear" x1="62.1725" y1="45.7261" x2="62.1725" y2="57.8751" gradientUnits="userSpaceOnUse">
<stop stop-color="white"/>
<stop offset="1" stop-color="#EDEDED"/>
</linearGradient>
<linearGradient id="paint2_linear" x1="37.8971" y1="45.7261" x2="37.8971" y2="57.8751" gradientUnits="userSpaceOnUse">
<stop stop-color="white"/>
<stop offset="1" stop-color="#EDEDED"/>
</linearGradient>
<linearGradient id="paint3_linear" x1="13.6207" y1="45.7261" x2="13.6207" y2="57.8751" gradientUnits="userSpaceOnUse">
<stop stop-color="white"/>
<stop offset="1" stop-color="#EDEDED"/>
</linearGradient>
<linearGradient id="paint4_linear" x1="50.0348" y1="60.9116" x2="50.0348" y2="73.0607" gradientUnits="userSpaceOnUse">
<stop stop-color="white"/>
<stop offset="1" stop-color="#EDEDED"/>
</linearGradient>
<linearGradient id="paint5_linear" x1="53.1074" y1="20.7295" x2="53.1074" y2="48.7685" gradientUnits="userSpaceOnUse">
<stop stop-color="white"/>
<stop offset="1" stop-color="#EDEDED"/>
</linearGradient>
<linearGradient id="paint6_linear" x1="74.3105" y1="60.9116" x2="74.3105" y2="73.0607" gradientUnits="userSpaceOnUse">
<stop stop-color="white"/>
<stop offset="1" stop-color="#EDEDED"/>
</linearGradient>
<linearGradient id="paint7_linear" x1="62.1725" y1="76.0981" x2="62.1725" y2="88.2471" gradientUnits="userSpaceOnUse">
<stop stop-color="white"/>
<stop offset="1" stop-color="#EDEDED"/>
</linearGradient>
<linearGradient id="paint8_linear" x1="13.6207" y1="76.0981" x2="13.6207" y2="88.2471" gradientUnits="userSpaceOnUse">
<stop stop-color="white"/>
<stop offset="1" stop-color="#EDEDED"/>
</linearGradient>
<linearGradient id="paint9_linear" x1="37.8971" y1="76.0981" x2="37.8971" y2="88.2471" gradientUnits="userSpaceOnUse">
<stop stop-color="white"/>
<stop offset="1" stop-color="#EDEDED"/>
</linearGradient>
<linearGradient id="paint10_linear" x1="75.4028" y1="0.171387" x2="75.4028" y2="32.5138" gradientUnits="userSpaceOnUse">
<stop stop-color="white"/>
<stop offset="1" stop-color="#EDEDED"/>
</linearGradient>
</defs>
</svg>
