<svg width="240" height="240" viewBox="0 0 240 240" fill="none" xmlns="http://www.w3.org/2000/svg">
<g clip-path="url(#clip0)">
<g filter="url(#filter0_di)">
<path fill-rule="evenodd" clip-rule="evenodd" d="M118.323 23.4805H125.458V102.129H118.323V23.4805Z" fill="#B6B6B6"/>
<path d="M118.823 23.9805H124.958V101.629H118.823V23.9805Z" stroke="white"/>
</g>
<g filter="url(#filter1_di)">
<path fill-rule="evenodd" clip-rule="evenodd" d="M149.276 124.021C155.576 134.936 161.876 145.851 168.177 156.766L214.47 236.942H29.312L75.6048 156.766C81.9067 145.854 88.2086 134.94 94.5104 124.024L149.276 124.021Z" fill="url(#paint0_linear)"/>
<path d="M94.7991 124.524L148.987 124.521C153.525 132.383 158.063 140.245 162.601 148.106L167.744 157.016L168.177 156.766L167.744 157.016L213.604 236.442H30.1781L76.0378 157.016C76.0378 157.016 76.0378 157.016 76.0378 157.016C82.2916 146.187 88.5454 135.356 94.7991 124.524Z" stroke="white"/>
</g>
<g filter="url(#filter2_di)">
<path fill-rule="evenodd" clip-rule="evenodd" d="M94.5122 124.026L117.326 140.157C120.515 142.19 123.558 142.203 126.468 140.157L149.269 124.026C141.217 110.074 133.165 96.1222 125.113 82.1835C123.292 79.048 120.409 79.154 118.655 82.1966C110.603 96.1354 102.564 110.087 94.5122 124.026Z" fill="url(#paint1_linear)"/>
<path fill-rule="evenodd" clip-rule="evenodd" d="M94.5122 124.026L117.326 140.157C120.515 142.19 123.558 142.203 126.468 140.157L149.269 124.026C141.217 110.074 133.165 96.1222 125.113 82.1835C123.292 79.048 120.409 79.154 118.655 82.1966C110.603 96.1354 102.564 110.087 94.5122 124.026Z" fill="url(#paint2_linear)"/>
<path d="M119.088 82.4467L119.088 82.4463C119.914 81.0142 120.937 80.3851 121.865 80.3732C122.788 80.3615 123.823 80.9583 124.68 82.4337C132.656 96.2408 140.632 110.06 148.608 123.881L126.18 139.748C124.795 140.721 123.406 141.188 122.002 141.186C120.598 141.185 119.136 140.715 117.605 139.741L95.1733 123.881C99.1452 117.005 103.119 110.117 107.093 103.229C111.092 96.2971 115.091 89.3654 119.088 82.4467Z" stroke="white"/>
</g>
<g filter="url(#filter3_di)">
<path fill-rule="evenodd" clip-rule="evenodd" d="M239.223 230.098C241.203 233.527 239.223 236.942 235.277 236.942H150.637C146.717 236.942 144.737 233.567 146.651 230.165L167.844 193.452L174.855 181.305L211.051 181.309C220.442 197.575 229.832 213.839 239.223 230.098Z" fill="url(#paint3_linear)"/>
<path fill-rule="evenodd" clip-rule="evenodd" d="M239.223 230.098C241.203 233.527 239.223 236.942 235.277 236.942H150.637C146.717 236.942 144.737 233.567 146.651 230.165L167.844 193.452L174.855 181.305L211.051 181.309C220.442 197.575 229.832 213.839 239.223 230.098Z" fill="url(#paint4_linear)"/>
<path d="M168.277 193.702L168.277 193.702L175.144 181.805L210.762 181.809L211.685 183.408C220.72 199.057 229.755 214.705 238.79 230.348C239.706 231.935 239.677 233.453 239.04 234.555C238.403 235.658 237.102 236.442 235.277 236.442H150.637C148.824 236.442 147.529 235.667 146.888 234.576C146.247 233.485 146.203 231.983 147.085 230.412C147.086 230.412 147.086 230.411 147.087 230.41L168.277 193.702Z" stroke="white"/>
</g>
<g filter="url(#filter4_di)">
<path fill-rule="evenodd" clip-rule="evenodd" d="M49.906 195.805C56.5106 207.244 63.1172 218.682 69.7177 230.126C71.671 233.541 69.691 236.942 65.7581 236.942H7.90594C3.94641 236.942 1.97954 233.528 3.94641 230.099C10.5478 218.663 17.1497 207.233 23.7511 195.801L49.906 195.805Z" fill="url(#paint5_linear)"/>
<path d="M24.0397 196.301L49.6173 196.305C51.0432 198.775 52.4692 201.244 53.8952 203.714C59.0262 212.6 64.1572 221.486 69.2845 230.376C70.1867 231.954 70.1513 233.465 69.5129 234.563C68.8742 235.662 67.5768 236.442 65.7581 236.442H7.90594C6.07355 236.442 4.7736 235.659 4.13672 234.556C3.49974 233.454 3.4698 231.935 4.37975 230.349C9.28658 221.848 14.1937 213.351 19.1006 204.854C20.747 202.003 22.3934 199.152 24.0397 196.301Z" stroke="white"/>
</g>
<g filter="url(#filter5_d)">
<path fill-rule="evenodd" clip-rule="evenodd" d="M184.778 39.4124H122.314C120.202 39.1199 118.541 37.446 118.235 35.3334V2.64648H184.778C185.987 2.72617 186.306 3.35055 185.734 4.5468L173.337 21.0229L185.734 37.499C186.2 38.137 185.854 39.3993 184.778 39.4124Z" fill="#F7F7F7"/>
<path fill-rule="evenodd" clip-rule="evenodd" d="M184.778 39.4124H122.314C120.202 39.1199 118.541 37.446 118.235 35.3334V2.64648H184.778C185.987 2.72617 186.306 3.35055 185.734 4.5468L173.337 21.0229L185.734 37.499C186.2 38.137 185.854 39.3993 184.778 39.4124Z" fill="url(#paint6_linear)"/>
<path fill-rule="evenodd" clip-rule="evenodd" d="M184.778 39.4124H122.314C120.202 39.1199 118.541 37.446 118.235 35.3334V2.64648H184.778C185.987 2.72617 186.306 3.35055 185.734 4.5468L173.337 21.0229L185.734 37.499C186.2 38.137 185.854 39.3993 184.778 39.4124Z" fill="url(#paint7_linear)"/>
<path d="M172.938 20.7223L172.712 21.0229L172.938 21.3235L185.33 37.7937C185.331 37.7945 185.332 37.7953 185.332 37.7961C185.443 37.95 185.481 38.2341 185.372 38.5004C185.273 38.7403 185.081 38.9077 184.775 38.9124H122.35C120.488 38.6398 119.021 37.1646 118.735 35.2964V3.14648H184.761C185.306 3.1851 185.444 3.3356 185.478 3.40339C185.524 3.49487 185.555 3.74511 185.304 4.28722L172.938 20.7223Z" stroke="white"/>
</g>
<g filter="url(#filter6_di)">
<path fill-rule="evenodd" clip-rule="evenodd" d="M174.86 181.309L189.582 191.712C191.948 193.254 194.206 193.307 196.332 191.712L211.055 181.309C205.647 171.954 200.252 162.613 194.858 153.259C193.781 151.399 192.08 151.465 191.044 153.259C185.649 162.613 180.255 171.954 174.86 181.309Z" fill="url(#paint8_linear)"/>
<path fill-rule="evenodd" clip-rule="evenodd" d="M174.86 181.309L189.582 191.712C191.948 193.254 194.206 193.307 196.332 191.712L211.055 181.309C205.647 171.954 200.252 162.613 194.858 153.259C193.781 151.399 192.08 151.465 191.044 153.259C185.649 162.613 180.255 171.954 174.86 181.309Z" fill="url(#paint9_linear)"/>
<path d="M196.044 191.304L196.044 191.304L196.032 191.312C195.043 192.054 194.051 192.394 193.05 192.388C192.046 192.382 190.985 192.028 189.863 191.299L175.521 181.163C178.281 176.378 181.041 171.596 183.8 166.814C186.359 162.38 188.918 157.946 191.477 153.509C191.944 152.701 192.492 152.394 192.942 152.389C193.386 152.383 193.939 152.671 194.425 153.509C199.743 162.732 205.062 171.941 210.394 181.164L196.044 191.304Z" stroke="white"/>
</g>
<g filter="url(#filter7_di)">
<path fill-rule="evenodd" clip-rule="evenodd" d="M23.7578 195.804L34.4406 203.365C36.0353 204.482 37.6295 204.482 39.2106 203.365L49.907 195.804C46.1734 189.347 42.453 182.903 38.7325 176.458C37.6563 174.598 35.9552 174.664 34.9187 176.458C31.1988 182.903 27.4783 189.36 23.7578 195.804Z" fill="url(#paint10_linear)"/>
<path fill-rule="evenodd" clip-rule="evenodd" d="M23.7578 195.804L34.4406 203.365C36.0353 204.482 37.6295 204.482 39.2106 203.365L49.907 195.804C46.1734 189.347 42.453 182.903 38.7325 176.458C37.6563 174.598 35.9552 174.664 34.9187 176.458C31.1988 182.903 27.4783 189.36 23.7578 195.804Z" fill="url(#paint11_linear)"/>
<path d="M34.7285 202.956C34.7281 202.956 34.7278 202.956 34.7274 202.955L24.4187 195.66C26.2621 192.467 28.1061 189.269 29.9501 186.072C31.751 182.949 33.5518 179.826 35.3517 176.708C35.8186 175.9 36.3669 175.593 36.8167 175.588C37.2611 175.583 37.8143 175.87 38.2995 176.708C41.9441 183.021 45.5887 189.334 49.2457 195.66L38.9222 202.957C38.1975 203.468 37.5024 203.702 36.8307 203.702C36.1591 203.702 35.4603 203.468 34.7285 202.956Z" stroke="white"/>
</g>
<g filter="url(#filter8_di)">
<path fill-rule="evenodd" clip-rule="evenodd" d="M73.1063 70.7841H73.1194C82.088 70.7841 89.4361 78.1323 89.4361 87.1013C89.4361 96.0704 82.088 103.419 73.1194 103.419H16.3167C7.34812 103.418 0 96.0699 0 87.1009C0 78.1318 7.34812 70.7837 16.3167 70.7837C16.3167 59.2768 25.6444 49.9355 37.1644 49.9355C44.4061 49.9355 50.7839 53.6298 54.5175 59.237C56.4309 57.9484 58.7428 57.1909 61.2277 57.1909C67.8581 57.1909 73.2127 62.559 73.2127 69.1759C73.2127 69.721 73.1859 70.2526 73.1063 70.7841Z" fill="url(#paint12_linear)"/>
<path fill-rule="evenodd" clip-rule="evenodd" d="M73.1063 70.7841H73.1194C82.088 70.7841 89.4361 78.1323 89.4361 87.1013C89.4361 96.0704 82.088 103.419 73.1194 103.419H16.3167C7.34812 103.418 0 96.0699 0 87.1009C0 78.1318 7.34812 70.7837 16.3167 70.7837C16.3167 59.2768 25.6444 49.9355 37.1644 49.9355C44.4061 49.9355 50.7839 53.6298 54.5175 59.237C56.4309 57.9484 58.7428 57.1909 61.2277 57.1909C67.8581 57.1909 73.2127 62.559 73.2127 69.1759C73.2127 69.721 73.1859 70.2526 73.1063 70.7841Z" fill="url(#paint13_linear)"/>
<path d="M72.6118 70.71L72.5257 71.2841H73.1063H73.1194C81.8118 71.2841 88.9361 78.4084 88.9361 87.1013C88.9361 95.7943 81.8118 102.919 73.1194 102.919H16.3167C7.62428 102.918 0.5 95.7938 0.5 87.1009C0.5 78.4079 7.62428 71.2837 16.3167 71.2837H16.8167V70.7837C16.8167 59.5527 25.9207 50.4355 37.1644 50.4355C44.2318 50.4355 50.4565 54.0402 54.1013 59.5141L54.3799 59.9324L54.7968 59.6517C56.6306 58.4167 58.8457 57.6909 61.2277 57.6909C67.5816 57.6909 72.7127 62.8348 72.7127 69.1759C72.7127 69.7051 72.6867 70.2104 72.6118 70.71Z" stroke="white"/>
</g>
<g filter="url(#filter9_di)">
<path fill-rule="evenodd" clip-rule="evenodd" d="M80.6267 78.29C80.6267 87.2722 73.2927 94.6067 64.31 94.6067H7.52049C5.30143 94.6067 3.18877 94.1684 1.26221 93.358C3.72033 99.2441 9.55346 103.416 16.3166 103.416H73.1197C82.0883 103.416 89.4364 96.0683 89.4364 87.0992C89.4364 80.3361 85.2641 74.503 79.378 72.0312C80.1885 73.9714 80.6267 76.0841 80.6267 78.29Z" fill="url(#paint14_linear)"/>
<path d="M64.31 95.1067C73.5688 95.1067 81.1267 87.5483 81.1267 78.29C81.1267 76.4498 80.8306 74.6717 80.2743 72.9996C85.401 75.6276 88.9364 80.9716 88.9364 87.0992C88.9364 95.7921 81.8121 102.916 73.1197 102.916H16.3166C10.1892 102.916 4.84587 99.3813 2.22888 94.2559C3.89333 94.8113 5.67194 95.1067 7.52049 95.1067H64.31Z" stroke="white"/>
</g>
<g filter="url(#filter10_di)">
<path fill-rule="evenodd" clip-rule="evenodd" d="M156.457 156.766L172.747 184.975L174.86 181.308L178.607 174.823L168.176 156.766L149.269 124.025L140.951 129.912L156.457 156.766Z" fill="url(#paint15_linear)"/>
<path d="M149.11 124.75L167.743 157.016L167.743 157.016L178.029 174.823L174.427 181.057L174.427 181.058L172.747 183.974L156.89 156.516L141.612 130.057L149.11 124.75Z" stroke="white"/>
</g>
<g filter="url(#filter11_di)">
<path fill-rule="evenodd" clip-rule="evenodd" d="M124.913 102.127L140.951 129.912L149.269 124.025L125.458 82.7675L125.126 82.183C125.113 82.183 125.113 82.183 125.113 82.183C124.209 80.6286 123.053 79.8711 121.897 79.8711C120.714 79.8711 119.545 80.6684 118.655 82.1961L118.322 82.7675L116.037 86.7406L118.322 90.7269L121.897 96.8923L124.913 102.127Z" fill="url(#paint16_linear)"/>
<path fill-rule="evenodd" clip-rule="evenodd" d="M124.913 102.127L140.951 129.912L149.269 124.025L125.458 82.7675L125.126 82.183C125.113 82.183 125.113 82.183 125.113 82.183C124.209 80.6286 123.053 79.8711 121.897 79.8711C120.714 79.8711 119.545 80.6684 118.655 82.1961L118.322 82.7675L116.037 86.7406L118.322 90.7269L121.897 96.8923L124.913 102.127Z" fill="url(#paint17_linear)"/>
<path d="M125.113 82.183V82.1904L124.691 82.4301L125.023 83.0146L125.023 83.0146L125.025 83.0174L148.608 123.88L141.11 129.187L125.347 101.878L125.346 101.877L122.33 96.6427L122.329 96.6415L118.756 90.4782L118.755 90.4761L116.613 86.741L118.754 83.0189L118.755 83.0179L119.087 82.4478C119.087 82.4477 119.087 82.4476 119.087 82.4475C119.927 81.0061 120.959 80.3711 121.897 80.3711C122.811 80.3711 123.829 80.9694 124.68 82.4343L125.113 82.183Z" stroke="white"/>
</g>
<g filter="url(#filter12_di)">
<path fill-rule="evenodd" clip-rule="evenodd" d="M202.723 187.193C210.988 201.49 219.239 215.801 227.504 230.098C229.484 233.526 227.504 236.941 223.558 236.941H235.277C239.223 236.941 241.203 233.526 239.223 230.098C229.829 213.834 220.435 197.57 211.055 181.307L202.723 187.193Z" fill="url(#paint18_linear)"/>
<path d="M210.895 182.031C220.185 198.137 229.488 214.243 238.79 230.348C239.706 231.934 239.676 233.453 239.04 234.555C238.402 235.658 237.102 236.441 235.277 236.441H226.925C227.446 236.066 227.872 235.598 228.186 235.055C229.03 233.593 229 231.69 227.937 229.848L227.936 229.848C223.851 222.78 219.765 215.702 215.679 208.625C211.581 201.526 207.483 194.428 203.384 187.338L210.895 182.031Z" stroke="white"/>
</g>
<g filter="url(#filter13_di)">
<path fill-rule="evenodd" clip-rule="evenodd" d="M187.097 160.115C192.306 169.137 197.514 178.159 202.723 187.195L211.041 181.309C205.646 171.954 200.251 162.613 194.857 153.259C193.781 151.399 192.08 151.465 191.044 153.259L187.097 160.115Z" fill="url(#paint19_linear)"/>
<path fill-rule="evenodd" clip-rule="evenodd" d="M187.097 160.115C192.306 169.137 197.514 178.159 202.723 187.195L211.041 181.309C205.646 171.954 200.251 162.613 194.857 153.259C193.781 151.399 192.08 151.465 191.044 153.259L187.097 160.115Z" fill="url(#paint20_linear)"/>
<path d="M210.38 181.164L202.882 186.47C197.813 177.676 192.744 168.896 187.674 160.115L191.477 153.509C191.477 153.509 191.477 153.509 191.477 153.509C191.944 152.701 192.492 152.394 192.941 152.389C193.386 152.383 193.939 152.671 194.424 153.509C197.273 158.45 200.123 163.387 202.972 168.325C205.442 172.603 207.911 176.882 210.38 181.164Z" stroke="white"/>
</g>
<g filter="url(#filter14_di)">
<path fill-rule="evenodd" clip-rule="evenodd" d="M45.628 208.693L57.9988 230.126C59.9521 233.541 57.9721 236.943 54.0393 236.943H65.7585C69.6918 236.943 71.6713 233.541 69.718 230.126L51.4879 198.542L49.9068 195.805L41.5757 201.691L45.628 208.693Z" fill="url(#paint21_linear)"/>
<path d="M46.0611 208.443L46.0608 208.443L42.2372 201.836L49.7478 196.529L51.0548 198.792L51.0549 198.792L69.284 230.374C69.2841 230.375 69.2842 230.375 69.2843 230.375C70.1871 231.953 70.1519 233.465 69.5134 234.564C68.8748 235.662 67.5774 236.443 65.7585 236.443H57.4039C57.9213 236.07 58.3456 235.605 58.6586 235.066C59.5049 233.61 59.4831 231.714 58.4328 229.878L58.4319 229.876L46.0611 208.443Z" stroke="white"/>
</g>
<g filter="url(#filter15_di)">
<path fill-rule="evenodd" clip-rule="evenodd" d="M30.9722 183.3L41.5758 201.689L49.9069 195.803L38.7323 176.456C37.6561 174.596 35.955 174.662 34.9186 176.456L30.9722 183.3Z" fill="url(#paint22_linear)"/>
<path fill-rule="evenodd" clip-rule="evenodd" d="M30.9722 183.3L41.5758 201.689L49.9069 195.803L38.7323 176.456C37.6561 174.596 35.955 174.662 34.9186 176.456L30.9722 183.3Z" fill="url(#paint23_linear)"/>
<path d="M49.2457 195.658L41.735 200.964L31.5493 183.3L35.3515 176.706C35.8185 175.898 36.3668 175.591 36.8165 175.586C37.2609 175.581 37.8141 175.868 38.2994 176.706C38.2994 176.706 38.2995 176.707 38.2996 176.707L49.2457 195.658Z" stroke="white"/>
</g>
</g>
<defs>
<filter id="filter0_di" x="118.323" y="23.4805" width="7.13532" height="79.6483" filterUnits="userSpaceOnUse" color-interpolation-filters="sRGB">
<feFlood flood-opacity="0" result="BackgroundImageFix"/>
<feColorMatrix in="SourceAlpha" type="matrix" values="0 0 0 0 0 0 0 0 0 0 0 0 0 0 0 0 0 0 127 0"/>
<feOffset dy="1"/>
<feColorMatrix type="matrix" values="0 0 0 0 0.876333 0 0 0 0 0.87824 0 0 0 0 0.88 0 0 0 0.4 0"/>
<feBlend mode="normal" in2="BackgroundImageFix" result="effect1_dropShadow"/>
<feBlend mode="normal" in="SourceGraphic" in2="effect1_dropShadow" result="shape"/>
<feColorMatrix in="SourceAlpha" type="matrix" values="0 0 0 0 0 0 0 0 0 0 0 0 0 0 0 0 0 0 127 0" result="hardAlpha"/>
<feOffset dy="1"/>
<feGaussianBlur stdDeviation="2"/>
<feComposite in2="hardAlpha" operator="arithmetic" k2="-1" k3="1"/>
<feColorMatrix type="matrix" values="0 0 0 0 0 0 0 0 0 0 0 0 0 0 0 0 0 0 0.15 0"/>
<feBlend mode="normal" in2="shape" result="effect2_innerShadow"/>
</filter>
<filter id="filter1_di" x="29.312" y="124.021" width="185.158" height="113.92" filterUnits="userSpaceOnUse" color-interpolation-filters="sRGB">
<feFlood flood-opacity="0" result="BackgroundImageFix"/>
<feColorMatrix in="SourceAlpha" type="matrix" values="0 0 0 0 0 0 0 0 0 0 0 0 0 0 0 0 0 0 127 0"/>
<feOffset dy="1"/>
<feColorMatrix type="matrix" values="0 0 0 0 0.876333 0 0 0 0 0.87824 0 0 0 0 0.88 0 0 0 0.4 0"/>
<feBlend mode="normal" in2="BackgroundImageFix" result="effect1_dropShadow"/>
<feBlend mode="normal" in="SourceGraphic" in2="effect1_dropShadow" result="shape"/>
<feColorMatrix in="SourceAlpha" type="matrix" values="0 0 0 0 0 0 0 0 0 0 0 0 0 0 0 0 0 0 127 0" result="hardAlpha"/>
<feOffset dy="1"/>
<feGaussianBlur stdDeviation="2"/>
<feComposite in2="hardAlpha" operator="arithmetic" k2="-1" k3="1"/>
<feColorMatrix type="matrix" values="0 0 0 0 0 0 0 0 0 0 0 0 0 0 0 0 0 0 0.15 0"/>
<feBlend mode="normal" in2="shape" result="effect2_innerShadow"/>
</filter>
<filter id="filter2_di" x="94.5122" y="79.873" width="54.7566" height="62.8132" filterUnits="userSpaceOnUse" color-interpolation-filters="sRGB">
<feFlood flood-opacity="0" result="BackgroundImageFix"/>
<feColorMatrix in="SourceAlpha" type="matrix" values="0 0 0 0 0 0 0 0 0 0 0 0 0 0 0 0 0 0 127 0"/>
<feOffset dy="1"/>
<feColorMatrix type="matrix" values="0 0 0 0 0.876333 0 0 0 0 0.87824 0 0 0 0 0.88 0 0 0 0.4 0"/>
<feBlend mode="normal" in2="BackgroundImageFix" result="effect1_dropShadow"/>
<feBlend mode="normal" in="SourceGraphic" in2="effect1_dropShadow" result="shape"/>
<feColorMatrix in="SourceAlpha" type="matrix" values="0 0 0 0 0 0 0 0 0 0 0 0 0 0 0 0 0 0 127 0" result="hardAlpha"/>
<feOffset dy="1"/>
<feGaussianBlur stdDeviation="2"/>
<feComposite in2="hardAlpha" operator="arithmetic" k2="-1" k3="1"/>
<feColorMatrix type="matrix" values="0 0 0 0 0 0 0 0 0 0 0 0 0 0 0 0 0 0 0.15 0"/>
<feBlend mode="normal" in2="shape" result="effect2_innerShadow"/>
</filter>
<filter id="filter3_di" x="145.914" y="181.305" width="94.0868" height="56.6369" filterUnits="userSpaceOnUse" color-interpolation-filters="sRGB">
<feFlood flood-opacity="0" result="BackgroundImageFix"/>
<feColorMatrix in="SourceAlpha" type="matrix" values="0 0 0 0 0 0 0 0 0 0 0 0 0 0 0 0 0 0 127 0"/>
<feOffset dy="1"/>
<feColorMatrix type="matrix" values="0 0 0 0 0.876333 0 0 0 0 0.87824 0 0 0 0 0.88 0 0 0 0.4 0"/>
<feBlend mode="normal" in2="BackgroundImageFix" result="effect1_dropShadow"/>
<feBlend mode="normal" in="SourceGraphic" in2="effect1_dropShadow" result="shape"/>
<feColorMatrix in="SourceAlpha" type="matrix" values="0 0 0 0 0 0 0 0 0 0 0 0 0 0 0 0 0 0 127 0" result="hardAlpha"/>
<feOffset dy="1"/>
<feGaussianBlur stdDeviation="2"/>
<feComposite in2="hardAlpha" operator="arithmetic" k2="-1" k3="1"/>
<feColorMatrix type="matrix" values="0 0 0 0 0 0 0 0 0 0 0 0 0 0 0 0 0 0 0.15 0"/>
<feBlend mode="normal" in2="shape" result="effect2_innerShadow"/>
</filter>
<filter id="filter4_di" x="3.17529" y="195.801" width="67.3035" height="42.1417" filterUnits="userSpaceOnUse" color-interpolation-filters="sRGB">
<feFlood flood-opacity="0" result="BackgroundImageFix"/>
<feColorMatrix in="SourceAlpha" type="matrix" values="0 0 0 0 0 0 0 0 0 0 0 0 0 0 0 0 0 0 127 0"/>
<feOffset dy="1"/>
<feColorMatrix type="matrix" values="0 0 0 0 0.876333 0 0 0 0 0.87824 0 0 0 0 0.88 0 0 0 0.4 0"/>
<feBlend mode="normal" in2="BackgroundImageFix" result="effect1_dropShadow"/>
<feBlend mode="normal" in="SourceGraphic" in2="effect1_dropShadow" result="shape"/>
<feColorMatrix in="SourceAlpha" type="matrix" values="0 0 0 0 0 0 0 0 0 0 0 0 0 0 0 0 0 0 127 0" result="hardAlpha"/>
<feOffset dy="1"/>
<feGaussianBlur stdDeviation="2"/>
<feComposite in2="hardAlpha" operator="arithmetic" k2="-1" k3="1"/>
<feColorMatrix type="matrix" values="0 0 0 0 0 0 0 0 0 0 0 0 0 0 0 0 0 0 0.15 0"/>
<feBlend mode="normal" in2="shape" result="effect2_innerShadow"/>
</filter>
<filter id="filter5_d" x="118.235" y="2.64648" width="67.7744" height="37.7659" filterUnits="userSpaceOnUse" color-interpolation-filters="sRGB">
<feFlood flood-opacity="0" result="BackgroundImageFix"/>
<feColorMatrix in="SourceAlpha" type="matrix" values="0 0 0 0 0 0 0 0 0 0 0 0 0 0 0 0 0 0 127 0"/>
<feOffset dy="1"/>
<feColorMatrix type="matrix" values="0 0 0 0 0.876333 0 0 0 0 0.87824 0 0 0 0 0.88 0 0 0 0.4 0"/>
<feBlend mode="normal" in2="BackgroundImageFix" result="effect1_dropShadow"/>
<feBlend mode="normal" in="SourceGraphic" in2="effect1_dropShadow" result="shape"/>
</filter>
<filter id="filter6_di" x="174.86" y="151.889" width="36.1945" height="41.9996" filterUnits="userSpaceOnUse" color-interpolation-filters="sRGB">
<feFlood flood-opacity="0" result="BackgroundImageFix"/>
<feColorMatrix in="SourceAlpha" type="matrix" values="0 0 0 0 0 0 0 0 0 0 0 0 0 0 0 0 0 0 127 0"/>
<feOffset dy="1"/>
<feColorMatrix type="matrix" values="0 0 0 0 0.876333 0 0 0 0 0.87824 0 0 0 0 0.88 0 0 0 0.4 0"/>
<feBlend mode="normal" in2="BackgroundImageFix" result="effect1_dropShadow"/>
<feBlend mode="normal" in="SourceGraphic" in2="effect1_dropShadow" result="shape"/>
<feColorMatrix in="SourceAlpha" type="matrix" values="0 0 0 0 0 0 0 0 0 0 0 0 0 0 0 0 0 0 127 0" result="hardAlpha"/>
<feOffset dy="1"/>
<feGaussianBlur stdDeviation="2"/>
<feComposite in2="hardAlpha" operator="arithmetic" k2="-1" k3="1"/>
<feColorMatrix type="matrix" values="0 0 0 0 0 0 0 0 0 0 0 0 0 0 0 0 0 0 0.15 0"/>
<feBlend mode="normal" in2="shape" result="effect2_innerShadow"/>
</filter>
<filter id="filter7_di" x="23.7578" y="175.088" width="26.1492" height="30.1145" filterUnits="userSpaceOnUse" color-interpolation-filters="sRGB">
<feFlood flood-opacity="0" result="BackgroundImageFix"/>
<feColorMatrix in="SourceAlpha" type="matrix" values="0 0 0 0 0 0 0 0 0 0 0 0 0 0 0 0 0 0 127 0"/>
<feOffset dy="1"/>
<feColorMatrix type="matrix" values="0 0 0 0 0.876333 0 0 0 0 0.87824 0 0 0 0 0.88 0 0 0 0.4 0"/>
<feBlend mode="normal" in2="BackgroundImageFix" result="effect1_dropShadow"/>
<feBlend mode="normal" in="SourceGraphic" in2="effect1_dropShadow" result="shape"/>
<feColorMatrix in="SourceAlpha" type="matrix" values="0 0 0 0 0 0 0 0 0 0 0 0 0 0 0 0 0 0 127 0" result="hardAlpha"/>
<feOffset dy="1"/>
<feGaussianBlur stdDeviation="2"/>
<feComposite in2="hardAlpha" operator="arithmetic" k2="-1" k3="1"/>
<feColorMatrix type="matrix" values="0 0 0 0 0 0 0 0 0 0 0 0 0 0 0 0 0 0 0.15 0"/>
<feBlend mode="normal" in2="shape" result="effect2_innerShadow"/>
</filter>
<filter id="filter8_di" x="0" y="49.9355" width="89.4361" height="54.483" filterUnits="userSpaceOnUse" color-interpolation-filters="sRGB">
<feFlood flood-opacity="0" result="BackgroundImageFix"/>
<feColorMatrix in="SourceAlpha" type="matrix" values="0 0 0 0 0 0 0 0 0 0 0 0 0 0 0 0 0 0 127 0"/>
<feOffset dy="1"/>
<feColorMatrix type="matrix" values="0 0 0 0 0.876333 0 0 0 0 0.87824 0 0 0 0 0.88 0 0 0 0.4 0"/>
<feBlend mode="normal" in2="BackgroundImageFix" result="effect1_dropShadow"/>
<feBlend mode="normal" in="SourceGraphic" in2="effect1_dropShadow" result="shape"/>
<feColorMatrix in="SourceAlpha" type="matrix" values="0 0 0 0 0 0 0 0 0 0 0 0 0 0 0 0 0 0 127 0" result="hardAlpha"/>
<feOffset dy="1"/>
<feGaussianBlur stdDeviation="2"/>
<feComposite in2="hardAlpha" operator="arithmetic" k2="-1" k3="1"/>
<feColorMatrix type="matrix" values="0 0 0 0 0 0 0 0 0 0 0 0 0 0 0 0 0 0 0.15 0"/>
<feBlend mode="normal" in2="shape" result="effect2_innerShadow"/>
</filter>
<filter id="filter9_di" x="1.26221" y="72.0312" width="88.1742" height="32.3851" filterUnits="userSpaceOnUse" color-interpolation-filters="sRGB">
<feFlood flood-opacity="0" result="BackgroundImageFix"/>
<feColorMatrix in="SourceAlpha" type="matrix" values="0 0 0 0 0 0 0 0 0 0 0 0 0 0 0 0 0 0 127 0"/>
<feOffset dy="1"/>
<feColorMatrix type="matrix" values="0 0 0 0 0.876333 0 0 0 0 0.87824 0 0 0 0 0.88 0 0 0 0.4 0"/>
<feBlend mode="normal" in2="BackgroundImageFix" result="effect1_dropShadow"/>
<feBlend mode="normal" in="SourceGraphic" in2="effect1_dropShadow" result="shape"/>
<feColorMatrix in="SourceAlpha" type="matrix" values="0 0 0 0 0 0 0 0 0 0 0 0 0 0 0 0 0 0 127 0" result="hardAlpha"/>
<feOffset dy="1"/>
<feGaussianBlur stdDeviation="2"/>
<feComposite in2="hardAlpha" operator="arithmetic" k2="-1" k3="1"/>
<feColorMatrix type="matrix" values="0 0 0 0 0 0 0 0 0 0 0 0 0 0 0 0 0 0 0.15 0"/>
<feBlend mode="normal" in2="shape" result="effect2_innerShadow"/>
</filter>
<filter id="filter10_di" x="140.951" y="124.025" width="37.6561" height="61.9492" filterUnits="userSpaceOnUse" color-interpolation-filters="sRGB">
<feFlood flood-opacity="0" result="BackgroundImageFix"/>
<feColorMatrix in="SourceAlpha" type="matrix" values="0 0 0 0 0 0 0 0 0 0 0 0 0 0 0 0 0 0 127 0"/>
<feOffset dy="1"/>
<feColorMatrix type="matrix" values="0 0 0 0 0.876333 0 0 0 0 0.87824 0 0 0 0 0.88 0 0 0 0.4 0"/>
<feBlend mode="normal" in2="BackgroundImageFix" result="effect1_dropShadow"/>
<feBlend mode="normal" in="SourceGraphic" in2="effect1_dropShadow" result="shape"/>
<feColorMatrix in="SourceAlpha" type="matrix" values="0 0 0 0 0 0 0 0 0 0 0 0 0 0 0 0 0 0 127 0" result="hardAlpha"/>
<feOffset dy="1"/>
<feGaussianBlur stdDeviation="2"/>
<feComposite in2="hardAlpha" operator="arithmetic" k2="-1" k3="1"/>
<feColorMatrix type="matrix" values="0 0 0 0 0 0 0 0 0 0 0 0 0 0 0 0 0 0 0.15 0"/>
<feBlend mode="normal" in2="shape" result="effect2_innerShadow"/>
</filter>
<filter id="filter11_di" x="116.037" y="79.8711" width="33.232" height="51.0405" filterUnits="userSpaceOnUse" color-interpolation-filters="sRGB">
<feFlood flood-opacity="0" result="BackgroundImageFix"/>
<feColorMatrix in="SourceAlpha" type="matrix" values="0 0 0 0 0 0 0 0 0 0 0 0 0 0 0 0 0 0 127 0"/>
<feOffset dy="1"/>
<feColorMatrix type="matrix" values="0 0 0 0 0.876333 0 0 0 0 0.87824 0 0 0 0 0.88 0 0 0 0.4 0"/>
<feBlend mode="normal" in2="BackgroundImageFix" result="effect1_dropShadow"/>
<feBlend mode="normal" in="SourceGraphic" in2="effect1_dropShadow" result="shape"/>
<feColorMatrix in="SourceAlpha" type="matrix" values="0 0 0 0 0 0 0 0 0 0 0 0 0 0 0 0 0 0 127 0" result="hardAlpha"/>
<feOffset dy="1"/>
<feGaussianBlur stdDeviation="2"/>
<feComposite in2="hardAlpha" operator="arithmetic" k2="-1" k3="1"/>
<feColorMatrix type="matrix" values="0 0 0 0 0 0 0 0 0 0 0 0 0 0 0 0 0 0 0.15 0"/>
<feBlend mode="normal" in2="shape" result="effect2_innerShadow"/>
</filter>
<filter id="filter12_di" x="202.723" y="181.307" width="37.2771" height="56.6345" filterUnits="userSpaceOnUse" color-interpolation-filters="sRGB">
<feFlood flood-opacity="0" result="BackgroundImageFix"/>
<feColorMatrix in="SourceAlpha" type="matrix" values="0 0 0 0 0 0 0 0 0 0 0 0 0 0 0 0 0 0 127 0"/>
<feOffset dy="1"/>
<feColorMatrix type="matrix" values="0 0 0 0 0.876333 0 0 0 0 0.87824 0 0 0 0 0.88 0 0 0 0.4 0"/>
<feBlend mode="normal" in2="BackgroundImageFix" result="effect1_dropShadow"/>
<feBlend mode="normal" in="SourceGraphic" in2="effect1_dropShadow" result="shape"/>
<feColorMatrix in="SourceAlpha" type="matrix" values="0 0 0 0 0 0 0 0 0 0 0 0 0 0 0 0 0 0 127 0" result="hardAlpha"/>
<feOffset dy="1"/>
<feGaussianBlur stdDeviation="2"/>
<feComposite in2="hardAlpha" operator="arithmetic" k2="-1" k3="1"/>
<feColorMatrix type="matrix" values="0 0 0 0 0 0 0 0 0 0 0 0 0 0 0 0 0 0 0.15 0"/>
<feBlend mode="normal" in2="shape" result="effect2_innerShadow"/>
</filter>
<filter id="filter13_di" x="187.097" y="151.889" width="23.9438" height="36.3064" filterUnits="userSpaceOnUse" color-interpolation-filters="sRGB">
<feFlood flood-opacity="0" result="BackgroundImageFix"/>
<feColorMatrix in="SourceAlpha" type="matrix" values="0 0 0 0 0 0 0 0 0 0 0 0 0 0 0 0 0 0 127 0"/>
<feOffset dy="1"/>
<feColorMatrix type="matrix" values="0 0 0 0 0.876333 0 0 0 0 0.87824 0 0 0 0 0.88 0 0 0 0.4 0"/>
<feBlend mode="normal" in2="BackgroundImageFix" result="effect1_dropShadow"/>
<feBlend mode="normal" in="SourceGraphic" in2="effect1_dropShadow" result="shape"/>
<feColorMatrix in="SourceAlpha" type="matrix" values="0 0 0 0 0 0 0 0 0 0 0 0 0 0 0 0 0 0 127 0" result="hardAlpha"/>
<feOffset dy="1"/>
<feGaussianBlur stdDeviation="2"/>
<feComposite in2="hardAlpha" operator="arithmetic" k2="-1" k3="1"/>
<feColorMatrix type="matrix" values="0 0 0 0 0 0 0 0 0 0 0 0 0 0 0 0 0 0 0.15 0"/>
<feBlend mode="normal" in2="shape" result="effect2_innerShadow"/>
</filter>
<filter id="filter14_di" x="41.5757" y="195.805" width="28.9035" height="42.1379" filterUnits="userSpaceOnUse" color-interpolation-filters="sRGB">
<feFlood flood-opacity="0" result="BackgroundImageFix"/>
<feColorMatrix in="SourceAlpha" type="matrix" values="0 0 0 0 0 0 0 0 0 0 0 0 0 0 0 0 0 0 127 0"/>
<feOffset dy="1"/>
<feColorMatrix type="matrix" values="0 0 0 0 0.876333 0 0 0 0 0.87824 0 0 0 0 0.88 0 0 0 0.4 0"/>
<feBlend mode="normal" in2="BackgroundImageFix" result="effect1_dropShadow"/>
<feBlend mode="normal" in="SourceGraphic" in2="effect1_dropShadow" result="shape"/>
<feColorMatrix in="SourceAlpha" type="matrix" values="0 0 0 0 0 0 0 0 0 0 0 0 0 0 0 0 0 0 127 0" result="hardAlpha"/>
<feOffset dy="1"/>
<feGaussianBlur stdDeviation="2"/>
<feComposite in2="hardAlpha" operator="arithmetic" k2="-1" k3="1"/>
<feColorMatrix type="matrix" values="0 0 0 0 0 0 0 0 0 0 0 0 0 0 0 0 0 0 0.15 0"/>
<feBlend mode="normal" in2="shape" result="effect2_innerShadow"/>
</filter>
<filter id="filter15_di" x="30.9722" y="175.086" width="18.9347" height="27.6032" filterUnits="userSpaceOnUse" color-interpolation-filters="sRGB">
<feFlood flood-opacity="0" result="BackgroundImageFix"/>
<feColorMatrix in="SourceAlpha" type="matrix" values="0 0 0 0 0 0 0 0 0 0 0 0 0 0 0 0 0 0 127 0"/>
<feOffset dy="1"/>
<feColorMatrix type="matrix" values="0 0 0 0 0.876333 0 0 0 0 0.87824 0 0 0 0 0.88 0 0 0 0.4 0"/>
<feBlend mode="normal" in2="BackgroundImageFix" result="effect1_dropShadow"/>
<feBlend mode="normal" in="SourceGraphic" in2="effect1_dropShadow" result="shape"/>
<feColorMatrix in="SourceAlpha" type="matrix" values="0 0 0 0 0 0 0 0 0 0 0 0 0 0 0 0 0 0 127 0" result="hardAlpha"/>
<feOffset dy="1"/>
<feGaussianBlur stdDeviation="2"/>
<feComposite in2="hardAlpha" operator="arithmetic" k2="-1" k3="1"/>
<feColorMatrix type="matrix" values="0 0 0 0 0 0 0 0 0 0 0 0 0 0 0 0 0 0 0.15 0"/>
<feBlend mode="normal" in2="shape" result="effect2_innerShadow"/>
</filter>
<linearGradient id="paint0_linear" x1="214.47" y1="115.809" x2="17.9364" y2="196.954" gradientUnits="userSpaceOnUse">
<stop stop-color="#F0F6FC"/>
<stop offset="1" stop-color="#E1E7EB"/>
</linearGradient>
<linearGradient id="paint1_linear" x1="149.269" y1="75.3775" x2="84.4644" y2="89.8325" gradientUnits="userSpaceOnUse">
<stop stop-color="#F0F6FC"/>
<stop offset="1" stop-color="#E1E7EB"/>
</linearGradient>
<linearGradient id="paint2_linear" x1="121.89" y1="79.873" x2="121.89" y2="141.686" gradientUnits="userSpaceOnUse">
<stop stop-color="white"/>
<stop offset="1" stop-color="white" stop-opacity="0"/>
</linearGradient>
<linearGradient id="paint3_linear" x1="240" y1="177.258" x2="141.05" y2="219.393" gradientUnits="userSpaceOnUse">
<stop stop-color="#F0F6FC"/>
<stop offset="1" stop-color="#E1E7EB"/>
</linearGradient>
<linearGradient id="paint4_linear" x1="192.957" y1="181.305" x2="192.957" y2="236.942" gradientUnits="userSpaceOnUse">
<stop stop-color="white"/>
<stop offset="1" stop-color="white" stop-opacity="0"/>
</linearGradient>
<linearGradient id="paint5_linear" x1="70.4788" y1="192.809" x2="-1.00815" y2="222.255" gradientUnits="userSpaceOnUse">
<stop stop-color="#F0F6FC"/>
<stop offset="1" stop-color="#E1E7EB"/>
</linearGradient>
<linearGradient id="paint6_linear" x1="161.159" y1="-8.34704" x2="161.159" y2="39.4124" gradientUnits="userSpaceOnUse">
<stop stop-color="white"/>
<stop offset="1" stop-color="#EDEDED"/>
</linearGradient>
<linearGradient id="paint7_linear" x1="210.86" y1="-8.34703" x2="122.335" y2="54.6875" gradientUnits="userSpaceOnUse">
<stop stop-color="#EE3C6B"/>
<stop offset="1" stop-color="#E63262"/>
</linearGradient>
<linearGradient id="paint8_linear" x1="211.055" y1="148.907" x2="168.205" y2="158.432" gradientUnits="userSpaceOnUse">
<stop stop-color="#F0F6FC"/>
<stop offset="1" stop-color="#E1E7EB"/>
</linearGradient>
<linearGradient id="paint9_linear" x1="192.958" y1="151.889" x2="192.958" y2="192.888" gradientUnits="userSpaceOnUse">
<stop stop-color="white"/>
<stop offset="1" stop-color="white" stop-opacity="0"/>
</linearGradient>
<linearGradient id="paint10_linear" x1="49.907" y1="172.97" x2="19.0005" y2="179.96" gradientUnits="userSpaceOnUse">
<stop stop-color="#F0F6FC"/>
<stop offset="1" stop-color="#E1E7EB"/>
</linearGradient>
<linearGradient id="paint11_linear" x1="36.8324" y1="175.088" x2="36.8324" y2="204.202" gradientUnits="userSpaceOnUse">
<stop stop-color="white"/>
<stop offset="1" stop-color="white" stop-opacity="0"/>
</linearGradient>
<linearGradient id="paint12_linear" x1="89.4361" y1="46.0459" x2="-4.94412" y2="85.7865" gradientUnits="userSpaceOnUse">
<stop stop-color="#F0F6FC"/>
<stop offset="1" stop-color="#E1E7EB"/>
</linearGradient>
<linearGradient id="paint13_linear" x1="44.718" y1="49.9355" x2="44.718" y2="103.419" gradientUnits="userSpaceOnUse">
<stop stop-color="white"/>
<stop offset="1" stop-color="white" stop-opacity="0"/>
</linearGradient>
<linearGradient id="paint14_linear" x1="89.4364" y1="69.7487" x2="16.4269" y2="121.397" gradientUnits="userSpaceOnUse">
<stop stop-color="#F0F6FC"/>
<stop offset="1" stop-color="#E1E7EB"/>
</linearGradient>
<linearGradient id="paint15_linear" x1="178.607" y1="119.593" x2="132.929" y2="126.699" gradientUnits="userSpaceOnUse">
<stop stop-color="#F0F6FC"/>
<stop offset="1" stop-color="#E1E7EB"/>
</linearGradient>
<linearGradient id="paint16_linear" x1="149.269" y1="76.2318" x2="109.105" y2="82.948" gradientUnits="userSpaceOnUse">
<stop stop-color="#F0F6FC"/>
<stop offset="1" stop-color="#E1E7EB"/>
</linearGradient>
<linearGradient id="paint17_linear" x1="132.653" y1="79.8711" x2="132.653" y2="129.912" gradientUnits="userSpaceOnUse">
<stop stop-color="white"/>
<stop offset="1" stop-color="white" stop-opacity="0"/>
</linearGradient>
<linearGradient id="paint18_linear" x1="240" y1="177.261" x2="194.97" y2="184.858" gradientUnits="userSpaceOnUse">
<stop stop-color="#F0F6FC"/>
<stop offset="1" stop-color="#E1E7EB"/>
</linearGradient>
<linearGradient id="paint19_linear" x1="211.041" y1="149.321" x2="182.136" y2="154.257" gradientUnits="userSpaceOnUse">
<stop stop-color="#F0F6FC"/>
<stop offset="1" stop-color="#E1E7EB"/>
</linearGradient>
<linearGradient id="paint20_linear" x1="199.069" y1="151.889" x2="199.069" y2="187.195" gradientUnits="userSpaceOnUse">
<stop stop-color="white"/>
<stop offset="1" stop-color="white" stop-opacity="0"/>
</linearGradient>
<linearGradient id="paint21_linear" x1="70.4792" y1="192.813" x2="35.6598" y2="198.973" gradientUnits="userSpaceOnUse">
<stop stop-color="#F0F6FC"/>
<stop offset="1" stop-color="#E1E7EB"/>
</linearGradient>
<linearGradient id="paint22_linear" x1="49.9069" y1="173.151" x2="27.1148" y2="177.236" gradientUnits="userSpaceOnUse">
<stop stop-color="#F0F6FC"/>
<stop offset="1" stop-color="#E1E7EB"/>
</linearGradient>
<linearGradient id="paint23_linear" x1="40.4395" y1="175.086" x2="40.4395" y2="201.689" gradientUnits="userSpaceOnUse">
<stop stop-color="white"/>
<stop offset="1" stop-color="white" stop-opacity="0"/>
</linearGradient>
<clipPath id="clip0">
<rect width="240" height="240" fill="white"/>
</clipPath>
</defs>
</svg>
