<svg width="44" height="44" viewBox="0 0 44 44" fill="none" xmlns="http://www.w3.org/2000/svg">
<rect x="8" y="15" width="28" height="19" rx="2" stroke="#FEBD46" stroke-width="2"/>
<rect x="8" y="15" width="28" height="19" rx="2" stroke="#FEBD46" stroke-width="2"/>
<line y1="-1" x2="8.78041" y2="-1" transform="matrix(0.724791 0.688969 -0.724791 0.688969 15 8.95117)" stroke="#FEBD46" stroke-width="2"/>
<line y1="-1" x2="8.78041" y2="-1" transform="matrix(0.724791 0.688969 -0.724791 0.688969 15 8.95117)" stroke="#FEBD46" stroke-width="2"/>
<line y1="-1" x2="8.78041" y2="-1" transform="matrix(-0.724791 0.688969 -0.724791 -0.688969 27.364 8)" stroke="#FEBD46" stroke-width="2"/>
<line y1="-1" x2="8.78041" y2="-1" transform="matrix(-0.724791 0.688969 -0.724791 -0.688969 27.364 8)" stroke="#FEBD46" stroke-width="2"/>
<path d="M27 24.5L19 29L19 20L27 24.5Z" fill="#FEBD46"/>
<path d="M27 24.5L19 29L19 20L27 24.5Z" fill="#FEBD46"/>
</svg>
