<svg width="44" height="44" viewBox="0 0 44 44" fill="none" xmlns="http://www.w3.org/2000/svg">
<path d="M31.2056 8H23.5225C23.2836 7.99983 23.0545 8.0942 22.885 8.2625L7.525 23.6187C7.18876 23.9566 7 24.4139 7 24.8906C7 25.3673 7.18876 25.8246 7.525 26.1625L14.8375 33.4749C15.1755 33.8112 15.6329 34 16.1097 34C16.5865 34 17.0439 33.8112 17.3819 33.4749L32.7375 18.125C32.9058 17.9555 33.0002 17.7263 33 17.4875V9.8C33.0011 9.56377 32.9555 9.32965 32.8659 9.11111C32.7762 8.89257 32.6441 8.69393 32.4773 8.52663C32.3106 8.35933 32.1123 8.22667 31.8941 8.13628C31.6758 8.0459 31.4418 7.99959 31.2056 8V8Z" stroke="#FEBD46" stroke-width="2" stroke-linecap="round" stroke-linejoin="round"/>
<path d="M31.2056 8H23.5225C23.2836 7.99983 23.0545 8.0942 22.885 8.2625L7.525 23.6187C7.18876 23.9566 7 24.4139 7 24.8906C7 25.3673 7.18876 25.8246 7.525 26.1625L14.8375 33.4749C15.1755 33.8112 15.6329 34 16.1097 34C16.5865 34 17.0439 33.8112 17.3819 33.4749L32.7375 18.125C32.9058 17.9555 33.0002 17.7263 33 17.4875V9.8C33.0011 9.56377 32.9555 9.32965 32.8659 9.11111C32.7762 8.89257 32.6441 8.69393 32.4773 8.52663C32.3106 8.35933 32.1123 8.22667 31.8941 8.13628C31.6758 8.0459 31.4418 7.99959 31.2056 8V8Z" stroke="#FEBD46" stroke-width="2" stroke-linecap="round" stroke-linejoin="round"/>
<path d="M28 14.5C27.7033 14.5 27.4133 14.412 27.1666 14.2472C26.92 14.0824 26.7277 13.8481 26.6142 13.574C26.5007 13.2999 26.4709 12.9983 26.5288 12.7074C26.5867 12.4164 26.7296 12.1491 26.9393 11.9393C27.1491 11.7296 27.4164 11.5867 27.7074 11.5288C27.9983 11.4709 28.2999 11.5007 28.574 11.6142C28.8481 11.7277 29.0824 11.92 29.2472 12.1666C29.412 12.4133 29.5 12.7033 29.5 13C29.5 13.3978 29.342 13.7794 29.0607 14.0607C28.7794 14.342 28.3978 14.5 28 14.5Z" fill="#FEBD46" stroke="#FEBD46"/>
<path d="M28 14.5C27.7033 14.5 27.4133 14.412 27.1666 14.2472C26.92 14.0824 26.7277 13.8481 26.6142 13.574C26.5007 13.2999 26.4709 12.9983 26.5288 12.7074C26.5867 12.4164 26.7296 12.1491 26.9393 11.9393C27.1491 11.7296 27.4164 11.5867 27.7074 11.5288C27.9983 11.4709 28.2999 11.5007 28.574 11.6142C28.8481 11.7277 29.0824 11.92 29.2472 12.1666C29.412 12.4133 29.5 12.7033 29.5 13C29.5 13.3978 29.342 13.7794 29.0607 14.0607C28.7794 14.342 28.3978 14.5 28 14.5Z" fill="#FEBD46" stroke="#FEBD46"/>
<path d="M20 36L36.7442 19.625C36.8274 19.5429 36.893 19.4452 36.9369 19.3379C36.9808 19.2305 37.0022 19.1156 36.9998 19V11" stroke="#FEBD46" stroke-width="2" stroke-linecap="round" stroke-linejoin="round"/>
<path d="M20 36L36.7442 19.625C36.8274 19.5429 36.893 19.4452 36.9369 19.3379C36.9808 19.2305 37.0022 19.1156 36.9998 19V11" stroke="#FEBD46" stroke-width="2" stroke-linecap="round" stroke-linejoin="round"/>
</svg>
