<svg width="32" height="32" viewBox="0 0 32 32" fill="none" xmlns="http://www.w3.org/2000/svg">
<path d="M18 26H26V28H18V26Z" fill="#EE3C6B"/>
<path d="M18 22H30V24H18V22Z" fill="#EE3C6B"/>
<path d="M18 18H30V20H18V18Z" fill="#EE3C6B"/>
<path d="M20.549 11.217L16 2L11.451 11.217L1.28003 12.695L8.64003 19.87L6.90203 30L14 26.269V24.009L9.55903 26.344L10.611 20.208L10.789 19.171L10.036 18.438L5.57803 14.091L11.739 13.196L12.779 13.045L13.245 12.102L16 6.519L18.755 12.102L19.221 13.045L20.261 13.196L27.715 14.281L28 12.3L20.549 11.217Z" fill="#EE3C6B"/>
</svg>
