<svg width="24" height="24" viewBox="0 0 24 24" fill="none" xmlns="http://www.w3.org/2000/svg">
<circle cx="12" cy="12" r="11.25" stroke="#4BA3DA" stroke-width="1.5"/>
<path d="M13.2925 6H9.53511C9.14765 6 8.83353 6.30527 8.83353 6.68182V11.8424H7.00011C7.00016 12.5697 6.99999 12.9576 7.00011 13.206H8.83353V14.7636H7.00005C6.99999 15.6727 6.99998 15.6727 7.00005 16.1273H8.83353V18C9.79386 18 9.79386 18 10.2367 18V16.1273H13.386C13.386 15.2848 13.386 15.6727 13.386 14.7636H10.2367V13.206H13.2925C15.3368 13.206 17 11.5897 17 9.603C17 7.56718 15.2936 6 13.2925 6ZM13.2925 11.8424H10.2367V7.36364H13.2925C14.5554 7.36364 15.5968 8.35364 15.5968 9.60304C15.5968 10.8379 14.5631 11.8424 13.2925 11.8424Z" fill="#4BA3DA"/>
</svg>
