<svg width="32" height="32" viewBox="0 0 32 32" fill="none" xmlns="http://www.w3.org/2000/svg">
<path d="M27 5H24V3.00002C24 2.44771 23.5523 2 23 2C22.4477 2 22 2.44771 22 3.00002V5H9.99998V3.00002C9.99998 2.44771 9.55226 2 9.00001 2C8.44777 2 8 2.44771 8 3.00002V5H5C3.34314 5 2 6.34314 2 8V27C2 28.6569 3.34314 30 5 30H27C28.6569 30 30 28.6569 30 27V8C30 6.34314 28.6569 5 27 5ZM28 27C28 27.5523 27.5522 28 26.9999 28H5C4.44769 28 3.99998 27.5523 3.99998 27V14H28V27ZM28 12H3.99998V8C3.99998 7.44769 4.44769 6.99998 5 6.99998H8V8.99996C8 9.55226 8.44771 9.99998 9.00001 9.99998C9.55232 9.99998 10 9.55226 10 8.99996V6.99998H22V8.99996C22 9.55226 22.4477 9.99998 23 9.99998C23.5523 9.99998 24.0001 9.55226 24.0001 8.99996V6.99998H27.0001C27.5524 6.99998 28.0001 7.44769 28.0001 8V12H28Z" fill="#4BA3DA"/>
<path d="M22.6942 16.2811C22.306 15.9063 21.6905 15.9063 21.3024 16.2811L13.9965 23.5832L10.6977 20.2861C10.2997 19.9019 9.66556 19.9129 9.28122 20.3106C8.90626 20.6987 8.90626 21.3138 9.28122 21.7018L13.2883 25.7069C13.6795 26.0977 14.3136 26.0977 14.7047 25.7069L22.7188 17.6968C23.1031 17.2991 23.0921 16.6652 22.6942 16.2811Z" fill="#4BA3DA"/>
</svg>
