<svg width="16" height="16" viewBox="0 0 16 16" fill="none" xmlns="http://www.w3.org/2000/svg">
<path d="M13.5 2.5H12V1.50001C12 1.22386 11.7761 1 11.5 1C11.2238 1 11 1.22386 11 1.50001V2.5H4.99999V1.50001C4.99999 1.22386 4.77613 1 4.50001 1C4.22388 1 4 1.22386 4 1.50001V2.5H2.5C1.67157 2.5 1 3.17157 1 4V13.5C1 14.3284 1.67157 15 2.5 15H13.5C14.3284 15 15 14.3284 15 13.5V4C15 3.17157 14.3284 2.5 13.5 2.5ZM14 13.5C14 13.7762 13.7761 14 13.5 14H2.5C2.22385 14 1.99999 13.7762 1.99999 13.5V7H14V13.5ZM14 6.00001H1.99999V4C1.99999 3.72385 2.22385 3.49999 2.5 3.49999H4V4.49998C4 4.77613 4.22386 4.99999 4.50001 4.99999C4.77616 4.99999 5.00002 4.77613 5.00002 4.49998V3.49999H11V4.49998C11 4.77613 11.2239 4.99999 11.5 4.99999C11.7762 4.99999 12 4.77613 12 4.49998V3.49999H13.5C13.7762 3.49999 14 3.72385 14 4V6.00001H14Z" fill="#B6B6B6"/>
<path d="M11.3471 8.14054C11.153 7.95315 10.8453 7.95315 10.6512 8.14054L6.99825 11.7916L5.34884 10.143C5.14986 9.95095 4.83278 9.95647 4.64061 10.1553C4.45313 10.3493 4.45313 10.6569 4.64061 10.8509L6.64414 12.8534C6.83974 13.0489 7.15679 13.0489 7.35237 12.8534L11.3594 8.84842C11.5516 8.64954 11.5461 8.33261 11.3471 8.14054Z" fill="#B6B6B6"/>
</svg>
