<svg width="24" height="24" viewBox="0 0 24 24" fill="none" xmlns="http://www.w3.org/2000/svg">
  <path
    d="M23 12C23 18.0751 18.0751 23 12 23C5.92487 23 1 18.0751 1 12C1 5.92487 5.92487 1 12 1C18.0751 1 23 5.92487 23 12ZM2.32 12C2.32 17.3461 6.65388 21.68 12 21.68C17.3461 21.68 21.68 17.3461 21.68 12C21.68 6.65388 17.3461 2.32 12 2.32C6.65388 2.32 2.32 6.65388 2.32 12Z"
    fill="#808080" fill-opacity="1" />
  <path
    d="M10.9834 9.78428L10.9999 18.216C10.9999 18.4219 11.1024 18.6041 11.3076 18.7625C11.4922 18.9209 11.7281 19.0001 12.0153 19.0001C12.2819 19.0001 12.5178 18.9209 12.723 18.7625C12.9076 18.6041 12.9999 18.4219 12.9999 18.216L12.9834 9.78428C12.9834 9.5625 12.8911 9.38032 12.7065 9.23774C12.5013 9.07933 12.2654 9.00012 11.9988 9.00012C11.7116 9.00012 11.4757 9.07933 11.2911 9.23774C11.086 9.38032 10.9834 9.5625 10.9834 9.78428Z"
    fill="#808080" fill-opacity="1" />
  <circle cx="12" cy="6.25" r="1.25" fill="#808080" fill-opacity="1" />
</svg>