<svg width="32" height="32" viewBox="0 0 32 32" fill="none" xmlns="http://www.w3.org/2000/svg">
<path fill-rule="evenodd" clip-rule="evenodd" d="M16 0C24.8366 0 32 7.16344 32 16C32 24.8366 24.8366 32 16 32C7.16344 32 0 24.8366 0 16C0 7.16344 7.16344 0 16 0ZM12.5358 29.5681C11.975 28.9688 11.3865 28.2615 10.8113 27.4562C10.098 26.4576 9.39898 25.2992 8.79839 24H4.50938C6.40345 26.7154 9.23547 28.728 12.5358 29.5681ZM3.34726 22H7.99938C7.48343 20.475 7.12555 18.8007 7.02726 17H2.03516C2.16072 18.779 2.61866 20.4663 3.34726 22ZM2.03516 15H7.02726C7.12555 13.1993 7.48343 11.525 7.99938 10H3.34726C2.61866 11.5337 2.16072 13.221 2.03516 15ZM4.50938 8H8.79839C9.39898 6.70076 10.098 5.54239 10.8113 4.54376C11.3865 3.73847 11.975 3.03124 12.5358 2.4319C9.23547 3.27199 6.40345 5.28457 4.50938 8ZM19.4642 29.5681C22.7645 28.728 25.5965 26.7154 27.4906 24H23.2016C22.601 25.2992 21.902 26.4576 21.1887 27.4562C20.6135 28.2615 20.025 28.9688 19.4642 29.5681ZM28.6527 22C29.3813 20.4663 29.8393 18.779 29.9648 17H24.9727C24.8744 18.8007 24.5166 20.475 24.0006 22H28.6527ZM29.9648 15C29.8393 13.221 29.3813 11.5337 28.6527 10H24.0006C24.5166 11.525 24.8744 13.1993 24.9727 15H29.9648ZM27.4906 8C25.5965 5.28457 22.7645 3.27199 19.4642 2.4319C20.025 3.03124 20.6135 3.73847 21.1887 4.54376C21.902 5.54239 22.601 6.70076 23.2016 8H27.4906ZM15 15H9.03067C9.14211 13.1848 9.54951 11.508 10.1245 10H15V15ZM15 8H11.0271C11.4661 7.16161 11.9471 6.39455 12.4387 5.70624C13.3329 4.45443 14.2508 3.47996 14.9897 2.82796L15 2.81893V8ZM17.0103 2.82796L17 2.81893V8H20.9729C20.5339 7.16161 20.0529 6.39455 19.5613 5.70624C18.6671 4.45443 17.7492 3.47996 17.0103 2.82796ZM17 15V10H21.8755C22.4505 11.508 22.8579 13.1848 22.9693 15H17ZM17 17H22.9693C22.8579 18.8152 22.4505 20.492 21.8755 22H17V17ZM17 24H20.9729C20.5339 24.8384 20.0529 25.6055 19.5613 26.2938C18.6671 27.5456 17.7492 28.52 17.0103 29.172L17 29.1811V24ZM14.9897 29.172L15 29.1811V24H11.0271C11.4661 24.8384 11.9471 25.6055 12.4387 26.2938C13.3329 27.5456 14.2508 28.52 14.9897 29.172ZM15 17V22H10.1245C9.54951 20.492 9.14211 18.8152 9.03067 17H15Z" fill="#E0E0E0"/>
</svg>
