<svg width="104" height="93" viewBox="0 0 104 93" fill="none" xmlns="http://www.w3.org/2000/svg">
<g clip-path="url(#clip0)">
<g filter="url(#filter0_di)">
<path d="M94.4745 24.3003H88.118C82.7118 11.4635 70.8074 2.13481 57.1025 0.353142C43.5212 -1.45745 30.177 3.77001 21.4469 14.2929C18.8805 17.3867 16.8448 20.7501 15.3542 24.3003H9.10354C4.08365 24.3003 0 28.384 0 33.4039V45.5419C0 50.5618 4.08365 54.6455 9.10354 54.6455H21.5655L20.2617 50.6656C16.4655 39.0727 18.6022 27.228 26.1203 18.169C33.5081 9.26389 44.7896 4.85737 56.3143 6.36876C68.5023 7.95642 79.0817 16.5759 83.2733 28.3334L83.2988 28.4016C83.9745 30.1974 84.4487 32.0436 84.7212 33.9432C85.631 39.6181 85.1125 45.37 83.2248 50.5768L83.2114 50.613C78.5259 63.9161 65.9238 72.8525 51.8483 72.8525C46.7956 72.8525 42.6855 76.9362 42.6855 81.9561C42.6855 86.976 46.7691 91.0596 51.789 91.0596C56.8089 91.0596 60.8926 86.976 60.8926 81.9561V77.8635C73.0092 74.9836 83.1866 66.3945 88.0784 54.6453H94.4745C99.4944 54.6453 103.578 50.5616 103.578 45.5417V33.4037C103.578 28.3838 99.4944 24.3003 94.4745 24.3003Z" fill="url(#paint0_linear)"/>
<path d="M87.7861 24.8003L87.6572 24.4944C82.3174 11.8152 70.5599 2.60684 57.038 0.84897L57.0364 0.84876C43.6258 -0.939087 30.4519 4.22173 21.8317 14.6121M87.7861 24.8003L84.7212 33.9432C84.4487 32.0436 83.9745 30.1974 83.2988 28.4016L83.7672 28.2265L83.7671 28.2264C83.767 28.2261 83.7669 28.2258 83.7668 28.2255L83.7443 28.1655C83.7439 28.1642 83.7434 28.1629 83.743 28.1617C79.4885 16.2327 68.7557 7.48528 56.3791 5.87298C44.6853 4.33948 33.2337 8.81165 25.7355 17.8497C18.103 27.0466 15.9391 39.0721 19.7865 50.8212L19.7865 50.8213L20.8755 54.1455H9.10354C4.35979 54.1455 0.5 50.2857 0.5 45.5419V33.4039C0.5 28.6601 4.35979 24.8003 9.10354 24.8003H15.3542H15.6866L15.8153 24.4939C17.2864 20.9899 19.2963 17.6687 21.8317 14.6121M87.7861 24.8003H88.118H94.4745C99.2183 24.8003 103.078 28.6599 103.078 33.4037V45.5417C103.078 50.2855 99.2183 54.1453 94.4745 54.1453H88.0784H87.745L87.6168 54.4531C82.7864 66.0548 72.7375 74.5342 60.777 77.3771L60.3926 77.4684V77.8635V81.9561C60.3926 86.6998 56.5328 90.5596 51.789 90.5596C47.0453 90.5596 43.1855 86.6998 43.1855 81.9561C43.1855 77.2154 47.0687 73.3525 51.8483 73.3525C66.1353 73.3525 78.925 64.2833 83.6818 50.7826C83.6822 50.7815 83.6826 50.7803 83.683 50.7791L83.6939 50.7497L83.6949 50.7472C85.6121 45.4588 86.1373 39.6224 85.2155 33.8681L87.7861 24.8003ZM21.8317 14.6121L21.4469 14.2929M21.8317 14.6121L21.4469 14.2929M21.4469 14.2929C18.8805 17.3867 16.8448 20.7501 15.3542 24.3003L83.2114 50.613C78.5259 63.9161 65.9238 72.8525 51.8483 72.8525C46.7956 72.8525 42.6855 76.9362 42.6855 81.9561C42.6855 86.976 46.7691 91.0596 51.789 91.0596C56.8089 91.0596 60.8926 86.976 60.8926 81.9561V77.8635C73.0092 74.9836 83.1866 66.3945 88.0784 54.6453H94.4745C99.4944 54.6453 103.578 50.5616 103.578 45.5417V33.4037C103.578 28.3838 99.4944 24.3003 94.4745 24.3003H88.118C82.7118 11.4635 70.8074 2.13481 57.1025 0.353142C43.5212 -1.45745 30.177 3.77001 21.4469 14.2929Z" stroke="white"/>
</g>
<g filter="url(#filter1_d)">
<path d="M27.3912 59.9814C25.9179 60.7802 24.4785 62.0731 24.4785 63.749C24.4785 65.4249 25.8371 66.7835 27.513 66.7835H51.7891C66.849 66.7835 79.0998 54.5328 79.0998 39.4729C79.0998 24.413 66.849 12.1623 51.7891 12.1623C36.7293 12.1623 24.4785 24.413 24.4785 39.4729C24.4785 44.9257 26.105 50.2148 29.109 54.6907C29.8243 55.7565 30.1729 57.1307 29.4292 58.1769C28.8973 58.9251 28.2002 59.5428 27.3912 59.9814ZM60.8927 39.4729C60.8927 37.797 62.2513 36.4384 63.9272 36.4384C65.6031 36.4384 66.9617 37.797 66.9617 39.4729C66.9617 41.1488 65.6031 42.5074 63.9272 42.5074C62.2513 42.5074 60.8927 41.1488 60.8927 39.4729ZM48.7546 39.4729C48.7546 37.797 50.1132 36.4384 51.7891 36.4384C53.4651 36.4384 54.8237 37.797 54.8237 39.4729C54.8237 41.1488 53.4651 42.5074 51.7891 42.5074C50.1132 42.5074 48.7546 41.1488 48.7546 39.4729ZM36.6166 39.4729C36.6166 37.797 37.9752 36.4384 39.6511 36.4384C41.327 36.4384 42.6856 37.797 42.6856 39.4729C42.6856 41.1488 41.327 42.5074 39.6511 42.5074C37.9752 42.5074 36.6166 41.1488 36.6166 39.4729Z" fill="#F7F7F7"/>
<path d="M27.3912 59.9814C25.9179 60.7802 24.4785 62.0731 24.4785 63.749C24.4785 65.4249 25.8371 66.7835 27.513 66.7835H51.7891C66.849 66.7835 79.0998 54.5328 79.0998 39.4729C79.0998 24.413 66.849 12.1623 51.7891 12.1623C36.7293 12.1623 24.4785 24.413 24.4785 39.4729C24.4785 44.9257 26.105 50.2148 29.109 54.6907C29.8243 55.7565 30.1729 57.1307 29.4292 58.1769C28.8973 58.9251 28.2002 59.5428 27.3912 59.9814ZM60.8927 39.4729C60.8927 37.797 62.2513 36.4384 63.9272 36.4384C65.6031 36.4384 66.9617 37.797 66.9617 39.4729C66.9617 41.1488 65.6031 42.5074 63.9272 42.5074C62.2513 42.5074 60.8927 41.1488 60.8927 39.4729ZM48.7546 39.4729C48.7546 37.797 50.1132 36.4384 51.7891 36.4384C53.4651 36.4384 54.8237 37.797 54.8237 39.4729C54.8237 41.1488 53.4651 42.5074 51.7891 42.5074C50.1132 42.5074 48.7546 41.1488 48.7546 39.4729ZM36.6166 39.4729C36.6166 37.797 37.9752 36.4384 39.6511 36.4384C41.327 36.4384 42.6856 37.797 42.6856 39.4729C42.6856 41.1488 41.327 42.5074 39.6511 42.5074C37.9752 42.5074 36.6166 41.1488 36.6166 39.4729Z" fill="url(#paint1_linear)"/>
<path d="M27.3912 59.9814C25.9179 60.7802 24.4785 62.0731 24.4785 63.749C24.4785 65.4249 25.8371 66.7835 27.513 66.7835H51.7891C66.849 66.7835 79.0998 54.5328 79.0998 39.4729C79.0998 24.413 66.849 12.1623 51.7891 12.1623C36.7293 12.1623 24.4785 24.413 24.4785 39.4729C24.4785 44.9257 26.105 50.2148 29.109 54.6907C29.8243 55.7565 30.1729 57.1307 29.4292 58.1769C28.8973 58.9251 28.2002 59.5428 27.3912 59.9814ZM60.8927 39.4729C60.8927 37.797 62.2513 36.4384 63.9272 36.4384C65.6031 36.4384 66.9617 37.797 66.9617 39.4729C66.9617 41.1488 65.6031 42.5074 63.9272 42.5074C62.2513 42.5074 60.8927 41.1488 60.8927 39.4729ZM48.7546 39.4729C48.7546 37.797 50.1132 36.4384 51.7891 36.4384C53.4651 36.4384 54.8237 37.797 54.8237 39.4729C54.8237 41.1488 53.4651 42.5074 51.7891 42.5074C50.1132 42.5074 48.7546 41.1488 48.7546 39.4729ZM36.6166 39.4729C36.6166 37.797 37.9752 36.4384 39.6511 36.4384C41.327 36.4384 42.6856 37.797 42.6856 39.4729C42.6856 41.1488 41.327 42.5074 39.6511 42.5074C37.9752 42.5074 36.6166 41.1488 36.6166 39.4729Z" fill="url(#paint2_linear)"/>
<path d="M24.9785 63.749C24.9785 62.3708 26.1827 61.2054 27.6295 60.421C28.5056 59.946 29.2606 59.277 29.8367 58.4666C30.7634 57.1629 30.2804 55.5389 29.5242 54.4121C26.5752 50.0182 24.9785 44.826 24.9785 39.4729C24.9785 24.6891 37.0054 12.6623 51.7891 12.6623C66.5729 12.6623 78.5998 24.6891 78.5998 39.4729C78.5998 54.2566 66.5729 66.2835 51.7891 66.2835H27.513C26.1133 66.2835 24.9785 65.1488 24.9785 63.749ZM63.9272 35.9384C61.9751 35.9384 60.3927 37.5208 60.3927 39.4729C60.3927 41.4249 61.9751 43.0074 63.9272 43.0074C65.8793 43.0074 67.4617 41.4249 67.4617 39.4729C67.4617 37.5208 65.8793 35.9384 63.9272 35.9384ZM51.7891 35.9384C49.8371 35.9384 48.2546 37.5208 48.2546 39.4729C48.2546 41.4249 49.8371 43.0074 51.7891 43.0074C53.7412 43.0074 55.3237 41.4249 55.3237 39.4729C55.3237 37.5208 53.7412 35.9384 51.7891 35.9384ZM39.6511 35.9384C37.699 35.9384 36.1166 37.5208 36.1166 39.4729C36.1166 41.4249 37.699 43.0074 39.6511 43.0074C41.6031 43.0074 43.1856 41.4249 43.1856 39.4729C43.1856 37.5208 41.6031 35.9384 39.6511 35.9384Z" stroke="white"/>
</g>
</g>
<defs>
<filter id="filter0_di" x="0" y="0" width="103.578" height="92.0596" filterUnits="userSpaceOnUse" color-interpolation-filters="sRGB">
<feFlood flood-opacity="0" result="BackgroundImageFix"/>
<feColorMatrix in="SourceAlpha" type="matrix" values="0 0 0 0 0 0 0 0 0 0 0 0 0 0 0 0 0 0 127 0"/>
<feOffset dy="1"/>
<feColorMatrix type="matrix" values="0 0 0 0 0.876333 0 0 0 0 0.87824 0 0 0 0 0.88 0 0 0 0.4 0"/>
<feBlend mode="normal" in2="BackgroundImageFix" result="effect1_dropShadow"/>
<feBlend mode="normal" in="SourceGraphic" in2="effect1_dropShadow" result="shape"/>
<feColorMatrix in="SourceAlpha" type="matrix" values="0 0 0 0 0 0 0 0 0 0 0 0 0 0 0 0 0 0 127 0" result="hardAlpha"/>
<feOffset dy="1"/>
<feGaussianBlur stdDeviation="2"/>
<feComposite in2="hardAlpha" operator="arithmetic" k2="-1" k3="1"/>
<feColorMatrix type="matrix" values="0 0 0 0 0 0 0 0 0 0 0 0 0 0 0 0 0 0 0.15 0"/>
<feBlend mode="normal" in2="shape" result="effect2_innerShadow"/>
</filter>
<filter id="filter1_d" x="21.4785" y="12.1623" width="60.6213" height="60.6213" filterUnits="userSpaceOnUse" color-interpolation-filters="sRGB">
<feFlood flood-opacity="0" result="BackgroundImageFix"/>
<feColorMatrix in="SourceAlpha" type="matrix" values="0 0 0 0 0 0 0 0 0 0 0 0 0 0 0 0 0 0 127 0"/>
<feOffset dy="3"/>
<feGaussianBlur stdDeviation="1.5"/>
<feColorMatrix type="matrix" values="0 0 0 0 0.876333 0 0 0 0 0.87824 0 0 0 0 0.88 0 0 0 1 0"/>
<feBlend mode="normal" in2="BackgroundImageFix" result="effect1_dropShadow"/>
<feBlend mode="normal" in="SourceGraphic" in2="effect1_dropShadow" result="shape"/>
</filter>
<linearGradient id="paint0_linear" x1="103.578" y1="-6.6225" x2="-15.3493" y2="27.4403" gradientUnits="userSpaceOnUse">
<stop stop-color="#F0F6FC"/>
<stop offset="1" stop-color="#E1E7EB"/>
</linearGradient>
<linearGradient id="paint1_linear" x1="51.7891" y1="12.1623" x2="51.7891" y2="66.7835" gradientUnits="userSpaceOnUse">
<stop stop-color="white"/>
<stop offset="1" stop-color="#EDEDED"/>
</linearGradient>
<linearGradient id="paint2_linear" x1="79.0998" y1="12.1623" x2="13.4729" y2="34.6142" gradientUnits="userSpaceOnUse">
<stop stop-color="#EE3C6B"/>
<stop offset="1" stop-color="#E63262"/>
</linearGradient>
<clipPath id="clip0">
<rect width="104" height="93" fill="white"/>
</clipPath>
</defs>
</svg>
