<svg width="54" height="54" viewBox="0 0 54 54" fill="none" xmlns="http://www.w3.org/2000/svg">
<path d="M26.9997 0C12.112 0 0 12.1121 0 27C0 41.8879 12.192 54 26.9997 54C33.2852 54 37.9108 51.7042 37.9108 51.7042L36.4171 48.3268C36.4171 48.3268 32.2923 50.3425 26.9997 50.3072C14.1483 50.3072 3.69284 39.8517 3.69284 27C3.69284 14.1483 14.1483 3.69281 26.9997 3.69281C39.8514 3.69281 50.3072 14.1483 50.3072 27C50.3072 29.4354 49.9333 31.8347 49.1966 34.1312C47.6094 39.0758 45.0016 40.6016 43.7324 40.4042C42.5153 40.2136 42.4208 38.3935 42.4208 37.8403V15.9108H38.7279V16.9973C35.8974 13.6829 31.6899 11.5788 26.9998 11.5788C18.4966 11.5788 11.5786 18.4968 11.5786 27C11.5786 35.5032 18.4966 42.4212 26.9998 42.4212C31.6899 42.4212 35.8974 40.3171 38.7279 37.0027V37.8403C38.7279 41.1925 40.4681 43.6309 43.1614 44.0527C46.3486 44.5506 50.5407 42.0272 52.7127 35.2596C53.5669 32.598 54 29.819 54 27C53.9998 12.1121 41.8877 0 26.9997 0ZM26.9997 38.7284C20.5327 38.7284 15.2712 33.467 15.2712 27C15.2712 20.533 20.5327 15.2716 26.9997 15.2716C33.4665 15.2716 38.7278 20.533 38.7278 27C38.7278 33.467 33.4665 38.7284 26.9997 38.7284Z" fill="#EE3C6B"/>
</svg>
