<svg width="38" height="38" viewBox="0 0 38 38" fill="none" xmlns="http://www.w3.org/2000/svg">
<path d="M0.5 19C0.5 8.80769 8.80769 0.5 19 0.5C29.1923 0.5 37.5 8.80769 37.5 19C37.5 29.1923 29.1923 37.5 19 37.5C8.80769 37.5 0.5 29.1923 0.5 19ZM19 2.267C9.77727 2.267 2.267 9.77727 2.267 19C2.267 22.7298 3.46684 26.1539 5.51897 28.9193C6.06258 29.6518 7.10215 29.668 7.71387 29.0563L29.0563 7.71386C29.6681 7.10215 29.6518 6.06258 28.9193 5.51898C26.154 3.46684 22.7298 2.267 19 2.267ZM9.14511 32.5282C11.9052 34.5372 15.3179 35.733 19 35.733C28.2227 35.733 35.733 28.2227 35.733 19C35.733 15.318 34.5372 11.9052 32.5282 9.14511C31.9881 8.40302 30.9406 8.38147 30.3248 8.99721L8.99721 30.3248C8.38147 30.9406 8.40302 31.9881 9.14511 32.5282Z" fill="#F7F7F7" stroke="#EDEDED"/>
</svg>
