<svg width="54" height="54" viewBox="0 0 54 54" fill="none" xmlns="http://www.w3.org/2000/svg">
<path d="M0.5 27C0.5 12.3999 12.3999 0.5 27 0.5C41.6001 0.5 53.5 12.3999 53.5 27C53.5 41.6001 41.6001 53.5 27 53.5C12.3999 53.5 0.5 41.6001 0.5 27ZM27 3.43205C14.0103 3.43205 3.43205 14.0103 3.43205 27C3.43205 32.0227 4.97642 36.6507 7.63716 40.4507C8.504 41.6887 10.2353 41.7194 11.2562 40.6984L40.6984 11.2562C41.7194 10.2353 41.6887 8.50401 40.4507 7.63717C36.6508 4.97642 32.0227 3.43205 27 3.43205ZM13.6475 46.4274C17.4385 49.0313 22.0461 50.568 27 50.568C39.9897 50.568 50.568 39.9897 50.568 27C50.568 22.0462 49.0313 17.4385 46.4274 13.6475C45.5665 12.394 43.8222 12.3542 42.7945 13.3819L13.3819 42.7945C12.3542 43.8222 12.394 45.5665 13.6475 46.4274Z" fill="#F7F7F7" stroke="#EDEDED"/>
</svg>
