<svg width="80" height="62" viewBox="0 0 80 62" fill="none" xmlns="http://www.w3.org/2000/svg">
<path d="M73.3641 14.5224L70.0495 17.8539C73.4434 21.2652 75.3125 25.8007 75.3125 30.625C75.3125 35.3435 73.5134 39.8073 70.247 43.1945L73.6128 46.4739C77.7316 42.2028 80 36.5743 80 30.625C80 24.5423 77.6433 18.8236 73.3641 14.5224Z" fill="#EE3C6B"/>
<path d="M63.3364 49.7832C60.847 46.0302 59.5312 41.6621 59.5312 37.1513V24.3429C59.5312 19.0864 57.4911 14.148 53.7865 10.4373C50.6433 7.28875 46.6242 5.34901 42.283 4.8444V0H37.5955V4.86231C27.9611 6.07066 20.4687 14.4418 20.4687 24.5305V37.1514C20.4687 41.6623 19.153 46.0303 16.6636 49.7834L12.1833 56.5385H33.3719C34.3394 59.2803 36.9445 61.25 40 61.25C43.0555 61.25 45.6606 59.2803 46.6281 56.5385H67.8167L63.3364 49.7832ZM20.9319 51.8269C23.6976 47.4278 25.1562 42.3685 25.1562 37.1513V24.5303C25.1562 16.2284 31.7915 9.45135 39.9473 9.42308C39.965 9.42308 39.9825 9.42308 40.0001 9.42308C43.9556 9.42308 47.6751 10.9674 50.478 13.7747C53.2933 16.5947 54.8437 20.3479 54.8437 24.3429V37.1514C54.8437 42.3688 56.302 47.4278 59.0681 51.8269H20.9319Z" fill="#EE3C6B"/>
<path d="M66.735 21.1856L63.4205 24.5173C65.0436 26.1486 65.9375 28.3176 65.9375 30.625C65.9375 32.8964 65.0675 35.0413 63.4875 36.6646L66.8383 39.9593C69.2803 37.4503 70.625 34.1353 70.625 30.625C70.625 27.0591 69.2434 23.7069 66.735 21.1856Z" fill="#EE3C6B"/>
<path d="M9.95047 17.8539L6.63594 14.5224C2.35672 18.8236 0 24.5423 0 30.625C0 36.5743 2.26844 42.2028 6.38719 46.4739L9.75297 43.1945C6.48656 39.8073 4.6875 35.3435 4.6875 30.625C4.6875 25.8007 6.55656 21.2652 9.95047 17.8539Z" fill="#EE3C6B"/>
<path d="M16.5795 24.5171L13.265 21.1854C10.7566 23.7067 9.375 27.0591 9.375 30.625C9.375 34.1352 10.7197 37.4503 13.1616 39.9593L16.5123 36.6645C14.9325 35.0412 14.0625 32.8964 14.0625 30.625C14.0625 28.3177 14.9564 26.1485 16.5795 24.5171Z" fill="#EE3C6B"/>
</svg>
