<svg width="16" height="16" viewBox="0 0 16 16" fill="none" xmlns="http://www.w3.org/2000/svg">
<path d="M6.62534 9.37484C5.09817 7.84766 4.75334 6.32049 4.67555 5.70863C4.65381 5.53945 4.71203 5.36978 4.83306 5.24959L6.06893 4.01428C6.25072 3.8326 6.28298 3.54945 6.14672 3.33153L4.17899 0.276077C4.02824 0.0347661 3.7187 -0.0523254 3.46424 0.0749733L0.305339 1.5627C0.0995625 1.66402 -0.0214727 1.88266 0.00189102 2.11084C0.167408 3.68325 0.852925 7.54863 4.65155 11.3475C8.45017 15.1464 12.315 15.8317 13.8882 15.9972C14.1164 16.0205 14.335 15.8995 14.4364 15.6937L15.9241 12.5348C16.0509 12.2809 15.9644 11.9722 15.7241 11.8212L12.6686 9.85401C12.4508 9.7176 12.1677 9.74963 11.9859 9.93125L10.7506 11.1671C10.6304 11.2881 10.4607 11.3464 10.2915 11.3246C9.67968 11.2468 8.15251 10.902 6.62534 9.37484Z" fill="#71BA1C"/>
</svg>
