<svg width="16" height="16" viewBox="0 0 16 16" fill="none" xmlns="http://www.w3.org/2000/svg">
<g clip-path="url(#clip0)">
<path d="M6.62534 9.37386C5.09817 7.84669 4.75334 6.31951 4.67555 5.70765C4.65381 5.53847 4.71203 5.36881 4.83306 5.24862L6.06893 4.01331C6.25072 3.83162 6.28298 3.54847 6.14672 3.33055L4.17899 0.2751C4.02824 0.0337895 3.7187 -0.0533019 3.46424 0.0739968L0.305339 1.56172C0.0995625 1.66305 -0.0214727 1.88168 0.00189102 2.10986C0.167408 3.68227 0.852925 7.54765 4.65155 11.3465C8.45017 15.1454 12.315 15.8307 13.8882 15.9962C14.1164 16.0196 14.335 15.8985 14.4364 15.6928L15.9241 12.5339C16.0509 12.2799 15.9644 11.9712 15.7241 11.8202L12.6686 9.85303C12.4508 9.71662 12.1677 9.74866 11.9859 9.93027L10.7506 11.1661C10.6304 11.2872 10.4607 11.3454 10.2915 11.3237C9.67968 11.2459 8.15251 10.901 6.62534 9.37386Z" fill="white"/>
</g>
<defs>
<clipPath id="clip0">
<rect width="16" height="16" fill="white"/>
</clipPath>
</defs>
</svg>
