<svg width="32" height="32" viewBox="0 0 32 32" fill="none" xmlns="http://www.w3.org/2000/svg">
<path fill-rule="evenodd" clip-rule="evenodd" d="M16 30C23.732 30 30 23.732 30 16C30 8.26801 23.732 2 16 2C8.26801 2 2 8.26801 2 16C2 23.732 8.26801 30 16 30ZM16 32C24.8366 32 32 24.8366 32 16C32 7.16344 24.8366 0 16 0C7.16344 0 0 7.16344 0 16C0 24.8366 7.16344 32 16 32Z" fill="#4BA3DA"/>
<path d="M17.723 8H12.7132C12.1965 8 11.7777 8.40703 11.7777 8.90909V15.7899H9.33315C9.33322 16.7596 9.333 17.2768 9.33315 17.6081H11.7777V19.6848H9.33307C9.333 20.897 9.33297 20.897 9.33307 21.503H11.7777V24C13.0582 24 13.0582 24 13.6486 24V21.503H17.8476C17.8476 20.3798 17.8476 20.897 17.8476 19.6848H13.6486V17.6081H17.723C20.4488 17.6081 22.6663 15.453 22.6663 12.804C22.6663 10.0896 20.3911 8 17.723 8ZM17.723 15.7899H13.6486V9.81818H17.723C19.4069 9.81818 20.7955 11.1382 20.7955 12.8041C20.7954 14.4505 19.4172 15.7899 17.723 15.7899Z" fill="#4BA3DA"/>
</svg>
