<svg width="62" height="47" viewBox="0 0 62 47" fill="none" xmlns="http://www.w3.org/2000/svg">
<path d="M56.8572 11.1437L54.2884 13.7002C56.9187 16.3178 58.3672 19.7981 58.3672 23.5C58.3672 27.1207 56.9729 30.546 54.4415 33.1451L57.0499 35.6616C60.242 32.3842 62 28.0652 62 23.5C62 18.8324 60.1735 14.4442 56.8572 11.1437Z" fill="#EE3C6B"/>
<path d="M49.0857 38.201C47.1564 35.3211 46.1367 31.9693 46.1367 28.5079V18.6795C46.1367 14.6459 44.5556 10.8564 41.6846 8.00904C39.2485 5.593 36.1338 4.10455 32.7693 3.71734V0H29.1365V3.73108C21.6698 4.6583 15.8633 11.0819 15.8633 18.8234V28.508C15.8633 31.9694 14.8435 35.3212 12.9143 38.2011L9.44203 43.3846H25.8632C26.613 45.4885 28.632 47 31 47C33.368 47 35.387 45.4885 36.1368 43.3846H52.5579L49.0857 38.201ZM16.2222 39.7692C18.3657 36.3935 19.4961 32.5113 19.4961 28.5079V18.8233C19.4961 12.4528 24.6384 7.25246 30.9592 7.23077C30.9729 7.23077 30.9864 7.23077 31.0001 7.23077C34.0656 7.23077 36.9482 8.41577 39.1204 10.5699C41.3023 12.7339 42.5039 15.6139 42.5039 18.6795V28.508C42.5039 32.5116 43.6341 36.3935 45.7778 39.7692H16.2222Z" fill="#EE3C6B"/>
<path d="M51.7196 16.2567L49.1509 18.8133C50.4088 20.065 51.1016 21.7294 51.1016 23.5C51.1016 25.243 50.4273 26.8888 49.2028 28.1344L51.7997 30.6627C53.6922 28.7374 54.7344 26.1936 54.7344 23.5C54.7344 20.7638 53.6637 18.1914 51.7196 16.2567Z" fill="#EE3C6B"/>
<path d="M7.71161 13.7002L5.14285 11.1437C1.82646 14.4442 0 18.8324 0 23.5C0 28.0652 1.75804 32.3842 4.95007 35.6616L7.55855 33.1451C5.02709 30.546 3.63281 27.1207 3.63281 23.5C3.63281 19.7981 5.08134 16.3178 7.71161 13.7002Z" fill="#EE3C6B"/>
<path d="M12.8491 18.8131L10.2804 16.2566C8.33634 18.1913 7.26562 20.7637 7.26562 23.5C7.26562 26.1936 8.30776 28.7373 10.2002 30.6627L12.7971 28.1344C11.5727 26.8888 10.8984 25.243 10.8984 23.5C10.8984 21.7295 11.5912 20.065 12.8491 18.8131Z" fill="#EE3C6B"/>
</svg>
