<svg width="44" height="44" viewBox="0 0 44 44" fill="none" xmlns="http://www.w3.org/2000/svg">
<path fill-rule="evenodd" clip-rule="evenodd" d="M17.0562 9.982C15.288 10.4737 13.5312 11.0085 11.7874 11.586C11.6296 11.6364 11.4888 11.7318 11.381 11.8613C11.2733 11.9908 11.2031 12.1491 11.1784 12.318C10.1479 20.112 12.526 25.8 15.3624 29.546C16.7855 31.426 18.3265 32.818 19.6103 33.732C20.2541 34.188 20.8206 34.52 21.2673 34.732C21.4916 34.838 21.6733 34.91 21.8125 34.952C21.8739 34.9724 21.9366 34.9884 22.0001 35C22.0136 34.998 22.0735 34.99 22.1876 34.954C22.3268 34.91 22.5086 34.838 22.7328 34.732C23.1775 34.52 23.7479 34.188 24.3898 33.732C25.9997 32.5636 27.4315 31.1527 28.6377 29.546C31.4741 25.8 33.8523 20.112 32.8217 12.318C32.797 12.1491 32.7268 11.9908 32.6191 11.8613C32.5113 11.7318 32.3705 11.6364 32.2127 11.586C31.0023 11.186 28.9606 10.534 26.944 9.982C24.8829 9.42 22.9861 9 22.0001 9C21.014 9 19.1192 9.42 17.0562 9.982ZM16.5612 8.05C18.5778 7.498 20.7182 7 22.0001 7C23.28 7 25.4223 7.498 27.4389 8.05C29.2376 8.54955 31.0247 9.09303 32.7985 9.68C33.8194 10.016 34.5889 10.926 34.7378 12.048C35.8457 20.442 33.2761 26.662 30.1613 30.778C28.8339 32.5444 27.258 34.095 25.4861 35.378C24.87 35.8244 24.2187 36.2165 23.5391 36.55C23.0171 36.798 22.4602 37 22.0001 37C21.5399 37 20.9831 36.798 20.461 36.55C19.7813 36.2167 19.1299 35.8247 18.514 35.378C16.7428 34.0948 15.1676 32.5442 13.8408 30.778C10.7221 26.662 8.15445 20.442 9.26233 12.048C9.33641 11.5041 9.55786 10.9931 9.90106 10.574C10.2443 10.155 10.6952 9.84499 11.2016 9.68C12.9755 9.09305 14.7625 8.54956 16.5612 8.05Z" fill="#FEBD46"/>
<path fill-rule="evenodd" clip-rule="evenodd" d="M17.0562 9.982C15.288 10.4737 13.5312 11.0085 11.7874 11.586C11.6296 11.6364 11.4888 11.7318 11.381 11.8613C11.2733 11.9908 11.2031 12.1491 11.1784 12.318C10.1479 20.112 12.526 25.8 15.3624 29.546C16.7855 31.426 18.3265 32.818 19.6103 33.732C20.2541 34.188 20.8206 34.52 21.2673 34.732C21.4916 34.838 21.6733 34.91 21.8125 34.952C21.8739 34.9724 21.9366 34.9884 22.0001 35C22.0136 34.998 22.0735 34.99 22.1876 34.954C22.3268 34.91 22.5086 34.838 22.7328 34.732C23.1775 34.52 23.7479 34.188 24.3898 33.732C25.9997 32.5636 27.4315 31.1527 28.6377 29.546C31.4741 25.8 33.8523 20.112 32.8217 12.318C32.797 12.1491 32.7268 11.9908 32.6191 11.8613C32.5113 11.7318 32.3705 11.6364 32.2127 11.586C31.0023 11.186 28.9606 10.534 26.944 9.982C24.8829 9.42 22.9861 9 22.0001 9C21.014 9 19.1192 9.42 17.0562 9.982ZM16.5612 8.05C18.5778 7.498 20.7182 7 22.0001 7C23.28 7 25.4223 7.498 27.4389 8.05C29.2376 8.54955 31.0247 9.09303 32.7985 9.68C33.8194 10.016 34.5889 10.926 34.7378 12.048C35.8457 20.442 33.2761 26.662 30.1613 30.778C28.8339 32.5444 27.258 34.095 25.4861 35.378C24.87 35.8244 24.2187 36.2165 23.5391 36.55C23.0171 36.798 22.4602 37 22.0001 37C21.5399 37 20.9831 36.798 20.461 36.55C19.7813 36.2167 19.1299 35.8247 18.514 35.378C16.7428 34.0948 15.1676 32.5442 13.8408 30.778C10.7221 26.662 8.15445 20.442 9.26233 12.048C9.33641 11.5041 9.55786 10.9931 9.90106 10.574C10.2443 10.155 10.6952 9.84499 11.2016 9.68C12.9755 9.09305 14.7625 8.54956 16.5612 8.05Z" fill="#FEBD46"/>
<path fill-rule="evenodd" clip-rule="evenodd" d="M27.7063 18.2937C27.7994 18.3865 27.8733 18.4968 27.9237 18.6182C27.9741 18.7397 28 18.8699 28 19.0013C28 19.1328 27.9741 19.263 27.9237 19.3844C27.8733 19.5059 27.7994 19.6162 27.7063 19.709L21.708 25.7063C21.6151 25.7994 21.5048 25.8733 21.3833 25.9237C21.2619 25.9741 21.1317 26 21.0002 26C20.8687 26 20.7384 25.9741 20.617 25.9237C20.4955 25.8733 20.3852 25.7994 20.2924 25.7063L17.2932 22.7077C17.2002 22.6147 17.1265 22.5044 17.0762 22.383C17.0259 22.2616 17 22.1314 17 22C17 21.8686 17.0259 21.7384 17.0762 21.617C17.1265 21.4956 17.2002 21.3853 17.2932 21.2923C17.3861 21.1994 17.4965 21.1257 17.6179 21.0754C17.7394 21.0251 17.8695 20.9992 18.001 20.9992C18.1324 20.9992 18.2626 21.0251 18.384 21.0754C18.5055 21.1257 18.6158 21.1994 18.7088 21.2923L21.0002 23.5853L26.2907 18.2937C26.3836 18.2006 26.4939 18.1267 26.6153 18.0763C26.7368 18.0259 26.867 18 26.9985 18C27.13 18 27.2602 18.0259 27.3817 18.0763C27.5031 18.1267 27.6134 18.2006 27.7063 18.2937Z" fill="#FEBD46"/>
<path fill-rule="evenodd" clip-rule="evenodd" d="M27.7063 18.2937C27.7994 18.3865 27.8733 18.4968 27.9237 18.6182C27.9741 18.7397 28 18.8699 28 19.0013C28 19.1328 27.9741 19.263 27.9237 19.3844C27.8733 19.5059 27.7994 19.6162 27.7063 19.709L21.708 25.7063C21.6151 25.7994 21.5048 25.8733 21.3833 25.9237C21.2619 25.9741 21.1317 26 21.0002 26C20.8687 26 20.7384 25.9741 20.617 25.9237C20.4955 25.8733 20.3852 25.7994 20.2924 25.7063L17.2932 22.7077C17.2002 22.6147 17.1265 22.5044 17.0762 22.383C17.0259 22.2616 17 22.1314 17 22C17 21.8686 17.0259 21.7384 17.0762 21.617C17.1265 21.4956 17.2002 21.3853 17.2932 21.2923C17.3861 21.1994 17.4965 21.1257 17.6179 21.0754C17.7394 21.0251 17.8695 20.9992 18.001 20.9992C18.1324 20.9992 18.2626 21.0251 18.384 21.0754C18.5055 21.1257 18.6158 21.1994 18.7088 21.2923L21.0002 23.5853L26.2907 18.2937C26.3836 18.2006 26.4939 18.1267 26.6153 18.0763C26.7368 18.0259 26.867 18 26.9985 18C27.13 18 27.2602 18.0259 27.3817 18.0763C27.5031 18.1267 27.6134 18.2006 27.7063 18.2937Z" fill="#FEBD46"/>
</svg>
