<svg width="16" height="16" viewBox="0 0 16 16" fill="none" xmlns="http://www.w3.org/2000/svg">
<path d="M11.7417 10.3277C12.529 9.25248 12.9999 7.93182 12.9999 6.50011C12.9999 2.91614 10.0839 0.00012207 6.49996 0.00012207C2.91599 0.00012207 0 2.91614 0 6.50011C0 10.0841 2.91602 13.0001 6.49999 13.0001C7.93169 13.0001 9.25248 12.5291 10.3277 11.7417L14.5859 16L16 14.586C16 14.5859 11.7417 10.3277 11.7417 10.3277ZM6.49999 11.0001C4.01854 11.0001 2.00001 8.98155 2.00001 6.50011C2.00001 4.01867 4.01854 2.00013 6.49999 2.00013C8.98143 2.00013 11 4.01867 11 6.50011C11 8.98155 8.9814 11.0001 6.49999 11.0001Z" fill="#1E4E9D"/>
</svg>
