<svg width="32" height="32" viewBox="0 0 32 32" fill="none" xmlns="http://www.w3.org/2000/svg">
<path fill-rule="evenodd" clip-rule="evenodd" d="M10.8861 3.982C9.05706 4.4737 7.23988 5.00852 5.43609 5.586C5.27285 5.63639 5.12714 5.73181 5.0157 5.86129C4.90426 5.99078 4.83161 6.14908 4.80609 6.318C3.74009 14.112 6.20009 19.8 9.13409 23.546C10.6061 25.426 12.2001 26.818 13.5281 27.732C14.1941 28.188 14.7801 28.52 15.2421 28.732C15.4741 28.838 15.6621 28.91 15.8061 28.952C15.8696 28.9724 15.9344 28.9884 16.0001 29C16.0141 28.998 16.0761 28.99 16.1941 28.954C16.3381 28.91 16.5261 28.838 16.7581 28.732C17.2181 28.52 17.8081 28.188 18.4721 27.732C20.1373 26.5636 21.6184 25.1527 22.8661 23.546C25.8001 19.8 28.2601 14.112 27.1941 6.318C27.1686 6.14908 27.0959 5.99078 26.9845 5.86129C26.873 5.73181 26.7273 5.63639 26.5641 5.586C25.3121 5.186 23.2001 4.534 21.1141 3.982C18.9821 3.42 17.0201 3 16.0001 3C14.9801 3 13.0201 3.42 10.8861 3.982ZM10.3741 2.05C12.4601 1.498 14.6741 1 16.0001 1C17.3241 1 19.5401 1.498 21.6261 2.05C23.4867 2.54955 25.3352 3.09303 27.1701 3.68C28.2261 4.016 29.0221 4.926 29.1761 6.048C30.3221 14.442 27.6641 20.662 24.4421 24.778C23.0691 26.5444 21.4389 28.095 19.6061 29.378C18.9688 29.8244 18.2951 30.2165 17.5921 30.55C17.0521 30.798 16.4761 31 16.0001 31C15.5241 31 14.9481 30.798 14.4081 30.55C13.705 30.2167 13.0312 29.8247 12.3941 29.378C10.562 28.0948 8.93254 26.5442 7.56009 24.778C4.33409 20.662 1.67809 14.442 2.82409 6.048C2.90071 5.50414 3.12979 4.9931 3.48479 4.57403C3.8398 4.15496 4.30623 3.84499 4.83009 3.68C6.66499 3.09305 8.5135 2.54956 10.3741 2.05Z" fill="#EE3C6B"/>
<path fill-rule="evenodd" clip-rule="evenodd" d="M21.708 12.292C21.8012 12.3848 21.8751 12.4952 21.9255 12.6167C21.9759 12.7382 22.0018 12.8684 22.0018 13C22.0018 13.1315 21.9759 13.2617 21.9255 13.3832C21.8751 13.5047 21.8012 13.6151 21.708 13.708L15.708 19.708C15.6152 19.8011 15.5048 19.875 15.3833 19.9254C15.2618 19.9758 15.1316 20.0017 15 20.0017C14.8685 20.0017 14.7383 19.9758 14.6168 19.9254C14.4953 19.875 14.3849 19.8011 14.292 19.708L11.292 16.708C11.1991 16.615 11.1253 16.5046 11.075 16.3831C11.0247 16.2616 10.9988 16.1314 10.9988 16C10.9988 15.8685 11.0247 15.7383 11.075 15.6168C11.1253 15.4953 11.1991 15.3849 11.292 15.292C11.385 15.199 11.4954 15.1252 11.6169 15.0749C11.7384 15.0246 11.8686 14.9987 12 14.9987C12.1315 14.9987 12.2617 15.0246 12.3832 15.0749C12.5047 15.1252 12.6151 15.199 12.708 15.292L15 17.586L20.292 12.292C20.3849 12.1988 20.4953 12.1249 20.6168 12.0745C20.7383 12.0241 20.8685 11.9982 21 11.9982C21.1316 11.9982 21.2618 12.0241 21.3833 12.0745C21.5048 12.1249 21.6152 12.1988 21.708 12.292Z" fill="#EE3C6B"/>
</svg>
