<svg width="16" height="16" viewBox="0 0 16 16" fill="none" xmlns="http://www.w3.org/2000/svg">
<path d="M9 8C9 8.55229 8.55229 9 8 9C7.82379 9 7.65823 8.95443 7.51446 8.87442L3.25725 11.4287L2.74275 10.5713L7.00014 8.01682L7 8C7 7.62986 7.2011 7.30669 7.5 7.13378V4H8.5V7.13378C8.7989 7.30669 9 7.62986 9 8Z" fill="white"/>
<path fill-rule="evenodd" clip-rule="evenodd" d="M8 16C12.4183 16 16 12.4183 16 8C16 3.58172 12.4183 0 8 0C3.58172 0 0 3.58172 0 8C0 12.4183 3.58172 16 8 16ZM7.5 14V14.9824C4.03251 14.7377 1.2623 11.9675 1.01758 8.5H2V7.5H1.01758C1.2623 4.03251 4.03251 1.2623 7.5 1.01758V2H8.5V1.01758C11.9675 1.2623 14.7377 4.03251 14.9824 7.5H14V8.5H14.9824C14.7377 11.9675 11.9675 14.7377 8.5 14.9824V14H7.5Z" fill="white"/>
</svg>
