<svg width="32" height="32" viewBox="0 0 32 32" fill="none" xmlns="http://www.w3.org/2000/svg">
<path d="M23 5H21V7H23V5Z" fill="#E0E0E0"/>
<path d="M21 9H23V11H21V9Z" fill="#E0E0E0"/>
<path d="M23 13H21V15H23V13Z" fill="#E0E0E0"/>
<path d="M25 5H27V7H25V5Z" fill="#E0E0E0"/>
<path d="M27 9H25V11H27V9Z" fill="#E0E0E0"/>
<path d="M25 13H27V15H25V13Z" fill="#E0E0E0"/>
<path fill-rule="evenodd" clip-rule="evenodd" d="M27.5 20C27.5 21.933 25.933 23.5 24 23.5C22.067 23.5 20.5 21.933 20.5 20C20.5 18.067 22.067 16.5 24 16.5C25.933 16.5 27.5 18.067 27.5 20ZM26 20C26 21.1046 25.1046 22 24 22C22.8954 22 22 21.1046 22 20C22 18.8954 22.8954 18 24 18C25.1046 18 26 18.8954 26 20Z" fill="#E0E0E0"/>
<path d="M5 15H7V17H5V15Z" fill="#E0E0E0"/>
<path fill-rule="evenodd" clip-rule="evenodd" d="M17 11H1V21H5V23H7V21H17V31H31V1H17V11ZM29 3H19V29H29V3ZM17 13V19H3V13H17Z" fill="#E0E0E0"/>
</svg>
