<svg width="42" height="29" viewBox="0 0 42 29" fill="none" xmlns="http://www.w3.org/2000/svg">
<path d="M25.9149 7.25H27.7021V14.5H33.9574V16.3125H25.9149V7.25Z" fill="#FEBD46"/>
<path fill-rule="evenodd" clip-rule="evenodd" d="M42 14.5C42 22.5081 35.5986 29 27.7021 29C19.8056 29 13.4043 22.5081 13.4043 14.5C13.4043 6.49187 19.8056 0 27.7021 0C35.5986 0 42 6.49187 42 14.5ZM40.2128 14.5C40.2128 21.5071 34.6116 27.1875 27.7021 27.1875C20.7927 27.1875 15.1915 21.5071 15.1915 14.5C15.1915 7.49289 20.7927 1.8125 27.7021 1.8125C34.6116 1.8125 40.2128 7.49289 40.2128 14.5Z" fill="#FEBD46"/>
<path d="M11.617 9.0625H5.3617V10.875H11.617V9.0625Z" fill="#FEBD46"/>
<path d="M11.617 18.125H5.3617V19.9375H11.617V18.125Z" fill="#FEBD46"/>
<path d="M0 13.5938H11.617V15.4062H0V13.5938Z" fill="#FEBD46"/>
</svg>
