<svg width="104" height="104" viewBox="0 0 104 104" fill="none" xmlns="http://www.w3.org/2000/svg">
<g filter="url(#filter0_d)">
<path d="M34.5879 22.9635C40.1082 20.6769 46.0249 19.5 52 19.5C57.9752 19.5 63.8918 20.6769 69.4121 22.9635C73.93 24.8349 78.11 27.4195 81.7952 30.6125C83.1517 31.7879 85.2023 31.7978 86.4715 30.5286C87.7407 29.2594 87.7472 27.1931 86.4012 26.0056C82.105 22.2155 77.2062 19.1564 71.8996 16.9583C65.5906 14.345 58.8288 13 52 13C45.1713 13 38.4094 14.345 32.1005 16.9583C26.7938 19.1564 21.895 22.2155 17.5989 26.0056C16.2529 27.1931 16.2594 29.2593 17.5286 30.5285C18.7978 31.7977 20.8483 31.7879 22.2049 30.6125C25.89 27.4195 30.07 24.8348 34.5879 22.9635Z" fill="#F7F7F7"/>
<path d="M34.5879 22.9635C40.1082 20.6769 46.0249 19.5 52 19.5C57.9752 19.5 63.8918 20.6769 69.4121 22.9635C73.93 24.8349 78.11 27.4195 81.7952 30.6125C83.1517 31.7879 85.2023 31.7978 86.4715 30.5286C87.7407 29.2594 87.7472 27.1931 86.4012 26.0056C82.105 22.2155 77.2062 19.1564 71.8996 16.9583C65.5906 14.345 58.8288 13 52 13C45.1713 13 38.4094 14.345 32.1005 16.9583C26.7938 19.1564 21.895 22.2155 17.5989 26.0056C16.2529 27.1931 16.2594 29.2593 17.5286 30.5285C18.7978 31.7977 20.8483 31.7879 22.2049 30.6125C25.89 27.4195 30.07 24.8348 34.5879 22.9635Z" fill="url(#paint0_linear)"/>
<path d="M34.5879 22.9635C40.1082 20.6769 46.0249 19.5 52 19.5C57.9752 19.5 63.8918 20.6769 69.4121 22.9635C73.93 24.8349 78.11 27.4195 81.7952 30.6125C83.1517 31.7879 85.2023 31.7978 86.4715 30.5286C87.7407 29.2594 87.7472 27.1931 86.4012 26.0056C82.105 22.2155 77.2062 19.1564 71.8996 16.9583C65.5906 14.345 58.8288 13 52 13C45.1713 13 38.4094 14.345 32.1005 16.9583C26.7938 19.1564 21.895 22.2155 17.5989 26.0056C16.2529 27.1931 16.2594 29.2593 17.5286 30.5285C18.7978 31.7977 20.8483 31.7879 22.2049 30.6125C25.89 27.4195 30.07 24.8348 34.5879 22.9635Z" fill="url(#paint1_linear)"/>
<path d="M51.9998 32.5C47.7319 32.5 43.5057 33.3406 39.5626 34.9739C36.6225 36.1918 33.8826 37.8325 31.428 39.8395C30.0384 40.9757 27.99 40.9901 26.7208 39.7209C25.4516 38.4517 25.4434 36.3822 26.8138 35.2231C29.8856 32.6249 33.3461 30.5133 37.0752 28.9687C41.8069 27.0088 46.8783 26 51.9998 26C57.1214 26 62.1928 27.0088 66.9245 28.9687C70.6535 30.5133 74.114 32.6249 77.1858 35.2231C78.5563 36.3822 78.5481 38.4517 77.2789 39.7209C76.0097 40.9901 73.9613 40.9757 72.5717 39.8396C70.117 37.8325 67.3772 36.1918 64.437 34.9739C60.494 33.3406 56.2678 32.5 51.9998 32.5Z" fill="#F7F7F7"/>
<path d="M51.9998 32.5C47.7319 32.5 43.5057 33.3406 39.5626 34.9739C36.6225 36.1918 33.8826 37.8325 31.428 39.8395C30.0384 40.9757 27.99 40.9901 26.7208 39.7209C25.4516 38.4517 25.4434 36.3822 26.8138 35.2231C29.8856 32.6249 33.3461 30.5133 37.0752 28.9687C41.8069 27.0088 46.8783 26 51.9998 26C57.1214 26 62.1928 27.0088 66.9245 28.9687C70.6535 30.5133 74.114 32.6249 77.1858 35.2231C78.5563 36.3822 78.5481 38.4517 77.2789 39.7209C76.0097 40.9901 73.9613 40.9757 72.5717 39.8396C70.117 37.8325 67.3772 36.1918 64.437 34.9739C60.494 33.3406 56.2678 32.5 51.9998 32.5Z" fill="url(#paint2_linear)"/>
<path d="M51.9998 32.5C47.7319 32.5 43.5057 33.3406 39.5626 34.9739C36.6225 36.1918 33.8826 37.8325 31.428 39.8395C30.0384 40.9757 27.99 40.9901 26.7208 39.7209C25.4516 38.4517 25.4434 36.3822 26.8138 35.2231C29.8856 32.6249 33.3461 30.5133 37.0752 28.9687C41.8069 27.0088 46.8783 26 51.9998 26C57.1214 26 62.1928 27.0088 66.9245 28.9687C70.6535 30.5133 74.114 32.6249 77.1858 35.2231C78.5563 36.3822 78.5481 38.4517 77.2789 39.7209C76.0097 40.9901 73.9613 40.9757 72.5717 39.8396C70.117 37.8325 67.3772 36.1918 64.437 34.9739C60.494 33.3406 56.2678 32.5 51.9998 32.5Z" fill="url(#paint3_linear)"/>
<path d="M44.5377 46.9843C46.9036 46.0044 49.4393 45.5 52 45.5C54.5608 45.5 57.0965 46.0044 59.4624 46.9843C60.8244 47.5485 62.1148 48.264 63.3101 49.115C64.7722 50.1561 66.8175 50.1825 68.0867 48.9133C69.3559 47.6441 69.3668 45.5676 67.9492 44.4665C66.1181 43.0442 64.101 41.8702 61.9498 40.9791C58.7953 39.6725 55.4144 39 52 39C48.5857 39 45.2047 39.6725 42.0503 40.9791C39.8991 41.8702 37.882 43.0442 36.0508 44.4665C34.6333 45.5676 34.6442 47.6441 35.9134 48.9133C37.1826 50.1825 39.2278 50.1561 40.69 49.115C41.8853 48.2639 43.1757 47.5485 44.5377 46.9843Z" fill="#F7F7F7"/>
<path d="M44.5377 46.9843C46.9036 46.0044 49.4393 45.5 52 45.5C54.5608 45.5 57.0965 46.0044 59.4624 46.9843C60.8244 47.5485 62.1148 48.264 63.3101 49.115C64.7722 50.1561 66.8175 50.1825 68.0867 48.9133C69.3559 47.6441 69.3668 45.5676 67.9492 44.4665C66.1181 43.0442 64.101 41.8702 61.9498 40.9791C58.7953 39.6725 55.4144 39 52 39C48.5857 39 45.2047 39.6725 42.0503 40.9791C39.8991 41.8702 37.882 43.0442 36.0508 44.4665C34.6333 45.5676 34.6442 47.6441 35.9134 48.9133C37.1826 50.1825 39.2278 50.1561 40.69 49.115C41.8853 48.2639 43.1757 47.5485 44.5377 46.9843Z" fill="url(#paint4_linear)"/>
<path d="M44.5377 46.9843C46.9036 46.0044 49.4393 45.5 52 45.5C54.5608 45.5 57.0965 46.0044 59.4624 46.9843C60.8244 47.5485 62.1148 48.264 63.3101 49.115C64.7722 50.1561 66.8175 50.1825 68.0867 48.9133C69.3559 47.6441 69.3668 45.5676 67.9492 44.4665C66.1181 43.0442 64.101 41.8702 61.9498 40.9791C58.7953 39.6725 55.4144 39 52 39C48.5857 39 45.2047 39.6725 42.0503 40.9791C39.8991 41.8702 37.882 43.0442 36.0508 44.4665C34.6333 45.5676 34.6442 47.6441 35.9134 48.9133C37.1826 50.1825 39.2278 50.1561 40.69 49.115C41.8853 48.2639 43.1757 47.5485 44.5377 46.9843Z" fill="url(#paint5_linear)"/>
<path d="M34.7793 23.4254C40.2389 21.164 46.0905 20 52 20C57.9095 20 63.7611 21.164 69.2208 23.4254C73.689 25.2762 77.8231 27.8325 81.4678 30.9904C83.0053 32.3226 85.3547 32.3525 86.825 30.8821C88.2832 29.424 88.3098 27.0227 86.7319 25.6307C82.3945 21.8041 77.4486 18.7156 72.0909 16.4963C65.7213 13.858 58.8944 12.5 52 12.5C45.1056 12.5 38.2787 13.8579 31.9091 16.4963C26.5514 18.7155 21.6056 21.8041 17.2681 25.6307C15.6902 27.0227 15.7169 29.4239 17.175 30.8821C18.6454 32.3525 20.9947 32.3226 22.5323 30.9904C26.177 27.8325 30.311 25.2762 34.7793 23.4254ZM39.754 35.4359C43.6364 33.8277 47.7975 33 51.9998 33C56.2021 33 60.3633 33.8277 64.2457 35.4359C67.1406 36.635 69.8383 38.2505 72.2552 40.2266C73.8191 41.5053 76.1601 41.5468 77.6325 40.0745C79.0883 38.6187 79.1239 36.2074 77.5087 34.8413C74.3976 32.2098 70.8927 30.0712 67.1158 28.5068C62.3235 26.5217 57.187 25.5 51.9998 25.5C46.8126 25.5 41.6762 26.5217 36.8838 28.5068C33.107 30.0712 29.6021 32.2098 26.4909 34.8413C24.8758 36.2074 24.9114 38.6187 26.3672 40.0745C27.8396 41.5468 30.1806 41.5053 31.7444 40.2266C34.1614 38.2505 36.859 36.635 39.754 35.4359ZM44.7291 47.4463C47.0342 46.4914 49.5049 46 52 46C54.4952 46 56.9658 46.4915 59.271 47.4463C60.5981 47.996 61.8554 48.6931 63.0201 49.5223C64.6387 50.6748 66.9641 50.7431 68.4403 49.2669C69.891 47.8162 69.9447 45.3834 68.256 44.0717C66.3896 42.622 64.3337 41.4254 62.1412 40.5172C58.926 39.1854 55.4801 38.5 52 38.5C48.52 38.5 45.0741 39.1854 41.8589 40.5172C39.6664 41.4254 37.6105 42.622 35.7441 44.0717C34.0553 45.3834 34.1091 47.8162 35.5598 49.2669C37.036 50.7431 39.3614 50.6748 40.98 49.5223C42.1447 48.6931 43.402 47.996 44.7291 47.4463Z" stroke="white"/>
</g>
<g filter="url(#filter1_di)">
<mask id="path-3-outside-1" maskUnits="userSpaceOnUse" x="2.25" y="60.75" width="100" height="41" fill="black">
<rect fill="white" x="2.25" y="60.75" width="100" height="41"/>
<path fill-rule="evenodd" clip-rule="evenodd" d="M3.25 65.75C3.25 63.5409 5.04086 61.75 7.25 61.75H96.75C98.9591 61.75 100.75 63.5409 100.75 65.75V90.25C100.75 92.4591 98.9591 94.25 96.75 94.25H87.75V97.5C87.75 99.2949 86.2949 100.75 84.5 100.75C82.7051 100.75 81.25 99.2949 81.25 97.5V94.25H22.75V97.5C22.75 99.2949 21.2949 100.75 19.5 100.75C17.7051 100.75 16.25 99.2949 16.25 97.5V94.25H7.25C5.04086 94.25 3.25 92.4591 3.25 90.25V65.75ZM16.25 78C16.25 76.2051 17.7051 74.75 19.5 74.75C21.2949 74.75 22.75 76.2051 22.75 78C22.75 79.7949 21.2949 81.25 19.5 81.25C17.7051 81.25 16.25 79.7949 16.25 78ZM68.25 78C68.25 76.2051 69.7051 74.75 71.5 74.75C73.2949 74.75 74.75 76.2051 74.75 78C74.75 79.7949 73.2949 81.25 71.5 81.25C69.7051 81.25 68.25 79.7949 68.25 78ZM84.5 74.75C86.2949 74.75 87.75 76.2051 87.75 78C87.75 79.7949 86.2949 81.25 84.5 81.25C82.7051 81.25 81.25 79.7949 81.25 78C81.25 76.2051 82.7051 74.75 84.5 74.75Z"/>
</mask>
<path fill-rule="evenodd" clip-rule="evenodd" d="M3.25 65.75C3.25 63.5409 5.04086 61.75 7.25 61.75H96.75C98.9591 61.75 100.75 63.5409 100.75 65.75V90.25C100.75 92.4591 98.9591 94.25 96.75 94.25H87.75V97.5C87.75 99.2949 86.2949 100.75 84.5 100.75C82.7051 100.75 81.25 99.2949 81.25 97.5V94.25H22.75V97.5C22.75 99.2949 21.2949 100.75 19.5 100.75C17.7051 100.75 16.25 99.2949 16.25 97.5V94.25H7.25C5.04086 94.25 3.25 92.4591 3.25 90.25V65.75ZM16.25 78C16.25 76.2051 17.7051 74.75 19.5 74.75C21.2949 74.75 22.75 76.2051 22.75 78C22.75 79.7949 21.2949 81.25 19.5 81.25C17.7051 81.25 16.25 79.7949 16.25 78ZM68.25 78C68.25 76.2051 69.7051 74.75 71.5 74.75C73.2949 74.75 74.75 76.2051 74.75 78C74.75 79.7949 73.2949 81.25 71.5 81.25C69.7051 81.25 68.25 79.7949 68.25 78ZM84.5 74.75C86.2949 74.75 87.75 76.2051 87.75 78C87.75 79.7949 86.2949 81.25 84.5 81.25C82.7051 81.25 81.25 79.7949 81.25 78C81.25 76.2051 82.7051 74.75 84.5 74.75Z" fill="url(#paint6_linear)"/>
<path d="M87.75 94.25V93.25H86.75V94.25H87.75ZM81.25 94.25H82.25V93.25H81.25V94.25ZM22.75 94.25V93.25H21.75V94.25H22.75ZM16.25 94.25H17.25V93.25H16.25V94.25ZM7.25 60.75C4.48858 60.75 2.25 62.9886 2.25 65.75H4.25C4.25 64.0931 5.59315 62.75 7.25 62.75V60.75ZM96.75 60.75H7.25V62.75H96.75V60.75ZM101.75 65.75C101.75 62.9886 99.5114 60.75 96.75 60.75V62.75C98.4069 62.75 99.75 64.0931 99.75 65.75H101.75ZM101.75 90.25V65.75H99.75V90.25H101.75ZM96.75 95.25C99.5114 95.25 101.75 93.0114 101.75 90.25H99.75C99.75 91.9069 98.4069 93.25 96.75 93.25V95.25ZM87.75 95.25H96.75V93.25H87.75V95.25ZM88.75 97.5V94.25H86.75V97.5H88.75ZM84.5 101.75C86.8472 101.75 88.75 99.8472 88.75 97.5H86.75C86.75 98.7426 85.7426 99.75 84.5 99.75V101.75ZM80.25 97.5C80.25 99.8472 82.1528 101.75 84.5 101.75V99.75C83.2574 99.75 82.25 98.7426 82.25 97.5H80.25ZM80.25 94.25V97.5H82.25V94.25H80.25ZM22.75 95.25H81.25V93.25H22.75V95.25ZM23.75 97.5V94.25H21.75V97.5H23.75ZM19.5 101.75C21.8472 101.75 23.75 99.8472 23.75 97.5H21.75C21.75 98.7426 20.7426 99.75 19.5 99.75V101.75ZM15.25 97.5C15.25 99.8472 17.1528 101.75 19.5 101.75V99.75C18.2574 99.75 17.25 98.7426 17.25 97.5H15.25ZM15.25 94.25V97.5H17.25V94.25H15.25ZM7.25 95.25H16.25V93.25H7.25V95.25ZM2.25 90.25C2.25 93.0114 4.48858 95.25 7.25 95.25V93.25C5.59315 93.25 4.25 91.9069 4.25 90.25H2.25ZM2.25 65.75V90.25H4.25V65.75H2.25ZM19.5 73.75C17.1528 73.75 15.25 75.6528 15.25 78H17.25C17.25 76.7574 18.2574 75.75 19.5 75.75V73.75ZM23.75 78C23.75 75.6528 21.8472 73.75 19.5 73.75V75.75C20.7426 75.75 21.75 76.7574 21.75 78H23.75ZM19.5 82.25C21.8472 82.25 23.75 80.3472 23.75 78H21.75C21.75 79.2426 20.7426 80.25 19.5 80.25V82.25ZM15.25 78C15.25 80.3472 17.1528 82.25 19.5 82.25V80.25C18.2574 80.25 17.25 79.2426 17.25 78H15.25ZM71.5 73.75C69.1528 73.75 67.25 75.6528 67.25 78H69.25C69.25 76.7574 70.2574 75.75 71.5 75.75V73.75ZM75.75 78C75.75 75.6528 73.8472 73.75 71.5 73.75V75.75C72.7426 75.75 73.75 76.7574 73.75 78H75.75ZM71.5 82.25C73.8472 82.25 75.75 80.3472 75.75 78H73.75C73.75 79.2426 72.7426 80.25 71.5 80.25V82.25ZM67.25 78C67.25 80.3472 69.1528 82.25 71.5 82.25V80.25C70.2574 80.25 69.25 79.2426 69.25 78H67.25ZM88.75 78C88.75 75.6528 86.8472 73.75 84.5 73.75V75.75C85.7426 75.75 86.75 76.7574 86.75 78H88.75ZM84.5 82.25C86.8472 82.25 88.75 80.3472 88.75 78H86.75C86.75 79.2426 85.7426 80.25 84.5 80.25V82.25ZM80.25 78C80.25 80.3472 82.1528 82.25 84.5 82.25V80.25C83.2574 80.25 82.25 79.2426 82.25 78H80.25ZM84.5 73.75C82.1528 73.75 80.25 75.6528 80.25 78H82.25C82.25 76.7574 83.2574 75.75 84.5 75.75V73.75Z" fill="white" mask="url(#path-3-outside-1)"/>
</g>
<defs>
<filter id="filter0_d" x="12.583" y="12" width="78.8342" height="44.8814" filterUnits="userSpaceOnUse" color-interpolation-filters="sRGB">
<feFlood flood-opacity="0" result="BackgroundImageFix"/>
<feColorMatrix in="SourceAlpha" type="matrix" values="0 0 0 0 0 0 0 0 0 0 0 0 0 0 0 0 0 0 127 0"/>
<feOffset dy="3"/>
<feGaussianBlur stdDeviation="1.5"/>
<feColorMatrix type="matrix" values="0 0 0 0 0.876333 0 0 0 0 0.87824 0 0 0 0 0.88 0 0 0 1 0"/>
<feBlend mode="normal" in2="BackgroundImageFix" result="effect1_dropShadow"/>
<feBlend mode="normal" in="SourceGraphic" in2="effect1_dropShadow" result="shape"/>
</filter>
<filter id="filter1_di" x="2.25" y="60.75" width="99.5" height="42" filterUnits="userSpaceOnUse" color-interpolation-filters="sRGB">
<feFlood flood-opacity="0" result="BackgroundImageFix"/>
<feColorMatrix in="SourceAlpha" type="matrix" values="0 0 0 0 0 0 0 0 0 0 0 0 0 0 0 0 0 0 127 0"/>
<feOffset dy="1"/>
<feColorMatrix type="matrix" values="0 0 0 0 0.876333 0 0 0 0 0.87824 0 0 0 0 0.88 0 0 0 0.4 0"/>
<feBlend mode="normal" in2="BackgroundImageFix" result="effect1_dropShadow"/>
<feBlend mode="normal" in="SourceGraphic" in2="effect1_dropShadow" result="shape"/>
<feColorMatrix in="SourceAlpha" type="matrix" values="0 0 0 0 0 0 0 0 0 0 0 0 0 0 0 0 0 0 127 0" result="hardAlpha"/>
<feOffset dy="1"/>
<feGaussianBlur stdDeviation="2"/>
<feComposite in2="hardAlpha" operator="arithmetic" k2="-1" k3="1"/>
<feColorMatrix type="matrix" values="0 0 0 0 0 0 0 0 0 0 0 0 0 0 0 0 0 0 0.15 0"/>
<feBlend mode="normal" in2="shape" result="effect2_innerShadow"/>
</filter>
<linearGradient id="paint0_linear" x1="52" y1="13" x2="52" y2="51.2114" gradientUnits="userSpaceOnUse">
<stop stop-color="white"/>
<stop offset="1" stop-color="#EDEDED"/>
</linearGradient>
<linearGradient id="paint1_linear" x1="88.7696" y1="13" x2="19.9188" y2="58.3321" gradientUnits="userSpaceOnUse">
<stop stop-color="#EE3C6B"/>
<stop offset="1" stop-color="#E63262"/>
</linearGradient>
<linearGradient id="paint2_linear" x1="52" y1="13" x2="52" y2="51.2114" gradientUnits="userSpaceOnUse">
<stop stop-color="white"/>
<stop offset="1" stop-color="#EDEDED"/>
</linearGradient>
<linearGradient id="paint3_linear" x1="88.7696" y1="13" x2="19.9188" y2="58.3321" gradientUnits="userSpaceOnUse">
<stop stop-color="#EE3C6B"/>
<stop offset="1" stop-color="#E63262"/>
</linearGradient>
<linearGradient id="paint4_linear" x1="52" y1="13" x2="52" y2="51.2114" gradientUnits="userSpaceOnUse">
<stop stop-color="white"/>
<stop offset="1" stop-color="#EDEDED"/>
</linearGradient>
<linearGradient id="paint5_linear" x1="88.7696" y1="13" x2="19.9188" y2="58.3321" gradientUnits="userSpaceOnUse">
<stop stop-color="#EE3C6B"/>
<stop offset="1" stop-color="#E63262"/>
</linearGradient>
<linearGradient id="paint6_linear" x1="100.75" y1="58.9136" x2="13.9959" y2="113.525" gradientUnits="userSpaceOnUse">
<stop stop-color="#F0F6FC"/>
<stop offset="1" stop-color="#E1E7EB"/>
</linearGradient>
</defs>
</svg>
