<svg width="30" height="27" viewBox="0 0 30 27" fill="none" xmlns="http://www.w3.org/2000/svg">
<path d="M9.64247 3.06569C11.341 2.36212 13.1615 2 15 2C16.8385 2 18.659 2.36212 20.3576 3.06569C22.0562 3.76925 23.5995 4.80049 24.8995 6.10051L26.3137 4.6863C24.828 3.20056 23.0642 2.02201 21.123 1.21793C19.1818 0.413853 17.1012 0 15 0C12.8989 0 10.8183 0.413851 8.8771 1.21793C6.93589 2.022 5.17206 3.20055 3.68633 4.68629L5.10054 6.1005C6.40056 4.80048 7.94391 3.76925 9.64247 3.06569Z" fill="#4BA3DA"/>
<path d="M15 6C13.6868 6 12.3864 6.25866 11.1731 6.7612C9.95989 7.26375 8.85749 8.00035 7.92891 8.92893L6.5147 7.51472C7.629 6.40041 8.95187 5.5165 10.4078 4.91344C11.8637 4.31039 13.4241 4 15 4C16.5758 4 18.1363 4.31039 19.5922 4.91345C21.0481 5.5165 22.371 6.40042 23.4853 7.51472L22.071 8.92893C21.1425 8.00035 20.0401 7.26375 18.8268 6.76121C17.6136 6.25866 16.3132 6 15 6Z" fill="#4BA3DA"/>
<path d="M12.7039 10.4567C13.4319 10.1552 14.2121 10 15 10C15.788 10 16.5682 10.1552 17.2961 10.4567C18.0241 10.7583 18.6855 11.2002 19.2427 11.7574L20.6569 10.3431C19.914 9.60028 19.0321 9.011 18.0615 8.60896C17.0909 8.20693 16.0506 8 15 8C13.9495 8 12.9092 8.20693 11.9386 8.60896C10.968 9.011 10.0861 9.60028 9.34319 10.3431L10.7574 11.7574C11.3146 11.2002 11.976 10.7583 12.7039 10.4567Z" fill="#4BA3DA"/>
<path d="M4 19H6V21H4V19Z" fill="#4BA3DA"/>
<path d="M20 19H22V21H20V19Z" fill="#4BA3DA"/>
<path d="M26 19H24V21H26V19Z" fill="#4BA3DA"/>
<path fill-rule="evenodd" clip-rule="evenodd" d="M0 15V25H4V27H6V25H24V27H26V25H30V15H0ZM28 17H2V23H28V17Z" fill="#4BA3DA"/>
</svg>
