<svg width="32" height="32" viewBox="0 0 32 32" fill="none" xmlns="http://www.w3.org/2000/svg">
<path d="M10.6425 7.06569C12.341 6.36212 14.1615 6 16 6C17.8385 6 19.659 6.36212 21.3576 7.06569C23.0562 7.76925 24.5995 8.80049 25.8995 10.1005L27.3137 8.6863C25.828 7.20056 24.0642 6.02201 22.123 5.21793C20.1818 4.41385 18.1012 4 16 4C13.8989 4 11.8183 4.41385 9.8771 5.21793C7.93589 6.022 6.17206 7.20055 4.68633 8.68629L6.10054 10.1005C7.40056 8.80048 8.94391 7.76925 10.6425 7.06569Z" fill="#E0E0E0"/>
<path d="M16 10C14.6868 10 13.3864 10.2587 12.1731 10.7612C10.9599 11.2638 9.85749 12.0003 8.92891 12.9289L7.5147 11.5147C8.629 10.4004 9.95187 9.5165 11.4078 8.91344C12.8637 8.31039 14.4241 8 16 8C17.5758 8 19.1363 8.31039 20.5922 8.91345C22.0481 9.5165 23.371 10.4004 24.4853 11.5147L23.071 12.9289C22.1425 12.0003 21.0401 11.2638 19.8268 10.7612C18.6136 10.2587 17.3132 10 16 10Z" fill="#E0E0E0"/>
<path d="M13.7039 14.4567C14.4319 14.1552 15.2121 14 16 14C16.788 14 17.5682 14.1552 18.2961 14.4567C19.0241 14.7583 19.6855 15.2002 20.2427 15.7574L21.6569 14.3431C20.914 13.6003 20.0321 13.011 19.0615 12.609C18.0909 12.2069 17.0506 12 16 12C14.9495 12 13.9092 12.2069 12.9386 12.609C11.968 13.011 11.0861 13.6003 10.3432 14.3431L11.7574 15.7574C12.3146 15.2002 12.976 14.7583 13.7039 14.4567Z" fill="#E0E0E0"/>
<path d="M5 23H7V25H5V23Z" fill="#E0E0E0"/>
<path d="M21 23H23V25H21V23Z" fill="#E0E0E0"/>
<path d="M27 23H25V25H27V23Z" fill="#E0E0E0"/>
<path fill-rule="evenodd" clip-rule="evenodd" d="M1 19V29H5V31H7V29H25V31H27V29H31V19H1ZM29 21H3V27H29V21Z" fill="#E0E0E0"/>
</svg>
