<svg width="135" height="38" viewBox="0 0 135 38" fill="none" xmlns="http://www.w3.org/2000/svg">
<g clip-path="url(#clip0)">
<path d="M12.0154 13.963H36.3803V37.9802H25.5646C23.786 37.9821 22.0245 37.636 20.3807 36.9617C18.7369 36.2873 17.2431 35.2979 15.9848 34.05C14.7264 32.8022 13.7282 31.3203 13.0471 29.6892C12.366 28.0581 12.0154 26.3098 12.0154 24.5441V13.963Z" fill="#EE3C6B"/>
<path d="M24.1928 0V24.2075H-0.0049305V13.4459C-0.0049305 9.88243 1.42101 6.46489 3.95921 3.94512C6.4974 1.42535 9.93993 0.00975575 13.5295 0.00975575L24.1928 0.00975575V0Z" fill="#4DA3DA"/>
<path d="M24.2075 13.963H11.9906V24.2122H24.2075V13.963Z" fill="#2E358F"/>
<path d="M55.8289 27.6633H55.2341C55.1346 27.6633 55.0362 27.6828 54.9443 27.7205C54.8525 27.7583 54.769 27.8137 54.6987 27.8835C54.6284 27.9533 54.5726 28.0361 54.5346 28.1273C54.4965 28.2185 54.477 28.3162 54.477 28.4149V35.8675H51.1831C50.5025 35.8675 49.8497 35.5991 49.3684 35.1213C48.8872 34.6436 48.6168 33.9956 48.6168 33.3199V28.4491C48.6181 28.3502 48.5996 28.2521 48.5624 28.1603C48.5252 28.0686 48.47 27.9851 48.4 27.9148C48.33 27.8444 48.2467 27.7885 48.1547 27.7504C48.0628 27.7122 47.9642 27.6926 47.8646 27.6926H47.2648C47.1654 27.692 47.0668 27.7108 46.9747 27.7479C46.8826 27.7851 46.7988 27.84 46.728 27.9093C46.6573 27.9786 46.601 28.0611 46.5623 28.1521C46.5237 28.243 46.5035 28.3406 46.5028 28.4393V33.3199C46.5028 34.5522 46.9959 35.734 47.8736 36.6053C48.7514 37.4767 49.9418 37.9662 51.1831 37.9662H55.8289C55.9283 37.9668 56.0269 37.948 56.119 37.9108C56.2111 37.8736 56.295 37.8188 56.3657 37.7495C56.4365 37.6801 56.4928 37.5976 56.5314 37.5067C56.5701 37.4157 56.5903 37.3181 56.5909 37.2194V28.4491C56.5929 28.3504 56.5752 28.2523 56.539 28.1603C56.5027 28.0684 56.4486 27.9845 56.3797 27.9133C56.3107 27.8421 56.2283 27.7852 56.1372 27.7456C56.0461 27.7061 55.948 27.6847 55.8486 27.6828L55.8289 27.6633Z" fill="#2E358F"/>
<path d="M71.9491 24.2614H72.2588C72.3699 24.262 72.48 24.2409 72.5828 24.1993C72.6856 24.1577 72.7792 24.0964 72.8582 24.0189C72.9372 23.9414 73 23.8493 73.0431 23.7477C73.0862 23.646 73.1087 23.537 73.1093 23.4268V18.2485L76.6834 23.8709C76.7589 23.9909 76.864 24.0898 76.9887 24.1581C77.1135 24.2265 77.2538 24.262 77.3963 24.2614H77.647C77.7901 24.2615 77.9309 24.2257 78.0563 24.1575C78.1818 24.0892 78.2879 23.9907 78.3648 23.8709L81.9389 18.2485V23.4121C81.9389 23.6314 82.0252 23.842 82.1796 23.9989C82.3339 24.1558 82.544 24.2465 82.7648 24.2516H83.0746C83.2988 24.2516 83.5139 24.1631 83.6725 24.0057C83.8311 23.8483 83.9202 23.6348 83.9202 23.4121V14.7833C83.9215 14.6729 83.9007 14.5633 83.859 14.4609C83.8173 14.3586 83.7556 14.2654 83.6774 14.1869C83.5992 14.1083 83.5061 14.046 83.4035 14.0034C83.3008 13.9609 83.1907 13.939 83.0795 13.939H82.7648C82.6212 13.9389 82.48 13.9752 82.3544 14.0444C82.2288 14.1135 82.123 14.2133 82.0471 14.3343L77.5143 21.4892L72.9619 14.3343C72.8859 14.2133 72.7801 14.1135 72.6545 14.0444C72.5289 13.9752 72.3877 13.9389 72.2441 13.939H71.9491C71.8381 13.939 71.7281 13.9607 71.6255 14.0029C71.5229 14.0451 71.4297 14.1069 71.3512 14.1848C71.2727 14.2628 71.2104 14.3553 71.1679 14.4572C71.1254 14.559 71.1035 14.6682 71.1035 14.7784V23.4121C71.1022 23.5224 71.1228 23.6318 71.1641 23.7341C71.2054 23.8365 71.2666 23.9297 71.3442 24.0086C71.4218 24.0875 71.5143 24.1504 71.6164 24.1937C71.7185 24.2371 71.8282 24.2601 71.9393 24.2614H71.9491Z" fill="#2E358F"/>
<path d="M100.355 28.6878C99.4216 27.9656 98.2585 27.5986 97.0761 27.6531H92.6859C92.4617 27.6531 92.2466 27.7416 92.088 27.899C91.9294 28.0564 91.8403 28.27 91.8403 28.4926V37.1409C91.8403 37.3636 91.9294 37.5771 92.088 37.7345C92.2466 37.892 92.4617 37.9804 92.6859 37.9804H92.9957C93.2199 37.9804 93.435 37.892 93.5936 37.7345C93.7522 37.5771 93.8412 37.3636 93.8412 37.1409V35.3839H97.0614C98.2429 35.4377 99.4051 35.0727 100.341 34.3541C100.716 34.0112 101.019 33.5982 101.233 33.1387C101.448 32.6792 101.568 32.1823 101.589 31.6764C101.61 31.1704 101.529 30.6655 101.353 30.1903C101.177 29.7152 100.908 29.2793 100.562 28.9074C100.493 28.8294 100.419 28.7561 100.341 28.6878H100.355ZM93.8412 29.6298H97.0614C97.7519 29.5855 98.4365 29.7804 98.9984 30.1813C99.176 30.3435 99.3196 30.539 99.4209 30.7564C99.5222 30.9739 99.5793 31.209 99.5889 31.4485C99.5985 31.6879 99.5604 31.9268 99.4768 32.1516C99.3932 32.3763 99.2657 32.5825 99.1016 32.7582L98.9885 32.8412C98.4251 33.2385 97.7412 33.4315 97.0515 33.3878H93.8265L93.8412 29.6298Z" fill="#2E358F"/>
<path d="M122.808 36.0039H116.363V33.8174H120.827C121.052 33.8162 121.267 33.7268 121.427 33.5687C121.586 33.4107 121.676 33.1966 121.677 32.9731V32.6803C121.676 32.4572 121.586 32.2437 121.426 32.0864C121.267 31.9291 121.051 31.8408 120.827 31.8408H116.363V29.6202H122.68C122.905 29.6202 123.12 29.5319 123.28 29.3746C123.439 29.2173 123.529 29.0038 123.531 28.7807V28.483C123.529 28.2599 123.439 28.0464 123.28 27.8891C123.12 27.7318 122.905 27.6436 122.68 27.6436H115.212C115.101 27.6436 114.991 27.6653 114.889 27.7075C114.786 27.7496 114.693 27.8115 114.614 27.8894C114.536 27.9674 114.474 28.0599 114.431 28.1618C114.389 28.2636 114.367 28.3728 114.367 28.483V37.1313C114.367 37.354 114.456 37.5675 114.614 37.7249C114.773 37.8824 114.988 37.9708 115.212 37.9708H122.813C122.924 37.9708 123.034 37.9491 123.136 37.9069C123.239 37.8647 123.332 37.8029 123.411 37.7249C123.489 37.647 123.552 37.5544 123.594 37.4526C123.637 37.3507 123.658 37.2416 123.658 37.1313V36.8336C123.658 36.7234 123.637 36.6142 123.594 36.5124C123.552 36.4105 123.489 36.318 123.411 36.24C123.332 36.1621 123.239 36.1003 123.136 36.0581C123.034 36.0159 122.924 35.9942 122.813 35.9942L122.808 36.0039Z" fill="#2E358F"/>
<path d="M111.845 27.6536H111.53C111.306 27.6536 111.091 27.742 110.932 27.8994C110.773 28.0569 110.684 28.2704 110.684 28.493V31.8313H104.642V28.493C104.642 28.2704 104.553 28.0569 104.395 27.8994C104.236 27.742 104.021 27.6536 103.797 27.6536H103.482C103.258 27.6536 103.043 27.742 102.884 27.8994C102.725 28.0569 102.636 28.2704 102.636 28.493V37.1414C102.636 37.364 102.725 37.5775 102.884 37.7349C103.043 37.8924 103.258 37.9808 103.482 37.9808H103.797C104.021 37.9808 104.236 37.8924 104.395 37.7349C104.553 37.5775 104.642 37.364 104.642 37.1414V33.8177H110.684V37.1511C110.684 37.2614 110.706 37.3705 110.749 37.4724C110.791 37.5742 110.853 37.6668 110.932 37.7447C111.01 37.8227 111.104 37.8845 111.206 37.9267C111.309 37.9689 111.419 37.9906 111.53 37.9906H111.845C111.956 37.9906 112.066 37.9689 112.168 37.9267C112.271 37.8845 112.364 37.8227 112.442 37.7447C112.521 37.6668 112.583 37.5742 112.626 37.4724C112.668 37.3705 112.69 37.2614 112.69 37.1511V28.493C112.69 28.3828 112.668 28.2736 112.626 28.1718C112.583 28.0699 112.521 27.9774 112.442 27.8994C112.364 27.8215 112.271 27.7596 112.168 27.7175C112.066 27.6753 111.956 27.6536 111.845 27.6536Z" fill="#2E358F"/>
<path d="M134.184 27.6535H125.266C125.155 27.6528 125.045 27.6739 124.942 27.7155C124.839 27.7571 124.745 27.8184 124.666 27.8959C124.588 27.9734 124.525 28.0656 124.482 28.1672C124.439 28.2688 124.416 28.3778 124.415 28.488V28.7857C124.415 29.0084 124.504 29.2219 124.663 29.3793C124.822 29.5368 125.037 29.6252 125.261 29.6252H128.702V37.1364C128.702 37.359 128.791 37.5725 128.95 37.73C129.109 37.8874 129.324 37.9758 129.548 37.9758H129.858C130.082 37.9758 130.297 37.8874 130.456 37.73C130.614 37.5725 130.703 37.359 130.703 37.1364V29.6301H134.145C134.369 29.6301 134.584 29.5416 134.743 29.3842C134.901 29.2268 134.99 29.0133 134.99 28.7906V28.4929C134.99 28.2769 134.907 28.0691 134.757 27.9127C134.606 27.7564 134.401 27.6635 134.184 27.6535Z" fill="#2E358F"/>
<path d="M64.0145 24.3882C67.333 24.3882 69.8157 22.2066 69.8157 19.1025C69.8157 15.9985 67.333 13.8071 64.0145 13.8071C60.6961 13.8071 58.2232 15.9839 58.2232 19.0879C58.2232 22.1919 60.6813 24.3882 64.0145 24.3882ZM64.0145 22.4116C62.9967 22.4515 62.0006 22.112 61.2221 21.4598C60.5921 20.8444 60.2336 20.0061 60.2253 19.1287C60.217 18.2513 60.5596 17.4064 61.1779 16.7794L61.2221 16.7355C62.0223 16.1209 63.0053 15.7874 64.017 15.7874C65.0287 15.7874 66.0117 16.1209 66.8119 16.7355C67.125 17.0395 67.3746 17.4019 67.5464 17.802C67.7181 18.202 67.8087 18.6317 67.8128 19.0666C67.8169 19.5014 67.7345 19.9327 67.5703 20.3359C67.4062 20.7391 67.1635 21.1061 66.8561 21.4159L66.8119 21.4598C66.0318 22.1122 65.0335 22.4501 64.0145 22.4067V22.4116Z" fill="#2E358F"/>
<path d="M89.7655 36.0039H83.3252V33.8174H87.7892C88.0139 33.8162 88.2289 33.7266 88.3874 33.5684C88.5458 33.4102 88.6348 33.1962 88.6348 32.9731V32.6803C88.6348 32.4576 88.5457 32.2441 88.3871 32.0867C88.2285 31.9293 88.0134 31.8408 87.7892 31.8408H83.3252V29.6202H89.6475C89.8718 29.6202 90.0868 29.5317 90.2454 29.3743C90.404 29.2169 90.4931 29.0034 90.4931 28.7807V28.483C90.4931 28.3728 90.4712 28.2636 90.4287 28.1618C90.3862 28.0599 90.3239 27.9674 90.2454 27.8894C90.1669 27.8115 90.0737 27.7496 89.9711 27.7075C89.8685 27.6653 89.7585 27.6436 89.6475 27.6436H82.165C82.0539 27.6436 81.944 27.6653 81.8414 27.7075C81.7388 27.7496 81.6456 27.8115 81.5671 27.8894C81.4885 27.9674 81.4263 28.0599 81.3838 28.1618C81.3413 28.2636 81.3194 28.3728 81.3194 28.483V37.1313C81.3194 37.354 81.4085 37.5675 81.5671 37.7249C81.7256 37.8824 81.9407 37.9708 82.165 37.9708H89.7655C89.9897 37.9708 90.2048 37.8824 90.3634 37.7249C90.522 37.5675 90.6111 37.354 90.6111 37.1313V36.8336C90.6111 36.611 90.522 36.3975 90.3634 36.24C90.2048 36.0826 89.9897 35.9942 89.7655 35.9942V36.0039ZM89.6475 28.4928V28.7905V28.4928Z" fill="#2E358F"/>
<path d="M67.5247 27.6532H67.215C67.1039 27.6526 66.9939 27.6736 66.891 27.7152C66.7882 27.7568 66.6946 27.8181 66.6156 27.8956C66.5366 27.9731 66.4738 28.0653 66.4307 28.1669C66.3876 28.2685 66.3651 28.3775 66.3645 28.4878V31.8261H60.3175V28.4878C60.3175 28.3775 60.2956 28.2684 60.2531 28.1665C60.2106 28.0647 60.1483 27.9721 60.0698 27.8942C59.9913 27.8162 59.8981 27.7544 59.7955 27.7122C59.6929 27.67 59.5829 27.6483 59.4719 27.6483H59.1671C59.056 27.6483 58.9461 27.67 58.8435 27.7122C58.7409 27.7544 58.6477 27.8162 58.5691 27.8942C58.4906 27.9721 58.4283 28.0647 58.3858 28.1665C58.3433 28.2684 58.3215 28.3775 58.3215 28.4878V37.1361C58.3215 37.3588 58.4106 37.5723 58.5691 37.7297C58.7277 37.8871 58.9428 37.9756 59.1671 37.9756H59.4817C59.706 37.9756 59.9211 37.8871 60.0796 37.7297C60.2382 37.5723 60.3273 37.3588 60.3273 37.1361V33.8173H66.3694V37.1508C66.3694 37.261 66.3913 37.3702 66.4337 37.472C66.4762 37.5739 66.5385 37.6664 66.6171 37.7444C66.6956 37.8223 66.7888 37.8841 66.8914 37.9263C66.994 37.9685 67.1039 37.9902 67.215 37.9902H67.5247C67.6358 37.9902 67.7457 37.9685 67.8483 37.9263C67.9509 37.8841 68.0441 37.8223 68.1226 37.7444C68.2012 37.6664 68.2634 37.5739 68.3059 37.472C68.3484 37.3702 68.3703 37.261 68.3703 37.1508V28.4927C68.3703 28.3824 68.3484 28.2733 68.3059 28.1714C68.2634 28.0696 68.2012 27.977 68.1226 27.8991C68.0441 27.8211 67.9509 27.7593 67.8483 27.7171C67.7457 27.6749 67.6358 27.6532 67.5247 27.6532Z" fill="#2E358F"/>
<path d="M79.3237 27.6536H70.3859C70.1612 27.6536 69.9456 27.7419 69.7862 27.8991C69.6269 28.0564 69.5367 28.2699 69.5354 28.493V28.7907C69.5367 29.0138 69.6269 29.2273 69.7862 29.3846C69.9456 29.5419 70.1612 29.6302 70.3859 29.6302H73.8273V37.1414C73.8273 37.2516 73.8492 37.3608 73.8917 37.4626C73.9342 37.5645 73.9964 37.657 74.075 37.735C74.1535 37.8129 74.2467 37.8747 74.3493 37.9169C74.4519 37.9591 74.5618 37.9808 74.6729 37.9808H74.9826C75.2069 37.9808 75.422 37.8924 75.5805 37.735C75.7391 37.5775 75.8282 37.364 75.8282 37.1414V29.6302H79.2696C79.4938 29.6302 79.7089 29.5418 79.8675 29.3843C80.0261 29.2269 80.1152 29.0134 80.1152 28.7907V28.493C80.1156 28.2794 80.034 28.0736 79.8869 27.9176C79.7399 27.7617 79.5384 27.6672 79.3237 27.6536Z" fill="#2E358F"/>
<path d="M56.1483 13.9634H51.0108C48.4298 13.9634 46.3306 16.7404 46.3306 19.3076V22.1041H46.1192C46.0081 22.1041 45.8982 22.1259 45.7956 22.168C45.693 22.2102 45.5998 22.2721 45.5212 22.35C45.4427 22.428 45.3804 22.5205 45.3379 22.6224C45.2954 22.7242 45.2736 22.8334 45.2736 22.9436V23.3633C45.2736 23.4736 45.2954 23.5827 45.3379 23.6846C45.3804 23.7864 45.4427 23.879 45.5212 23.9569C45.5998 24.0349 45.693 24.0967 45.7956 24.1389C45.8982 24.1811 46.0081 24.2028 46.1192 24.2028H56.1483C56.3504 24.2028 56.5442 24.1231 56.6871 23.9812C56.83 23.8393 56.9103 23.6469 56.9103 23.4463V14.7101C56.9116 14.6112 56.8931 14.5131 56.8559 14.4214C56.8187 14.3296 56.7635 14.2462 56.6935 14.1758C56.6235 14.1054 56.5402 14.0495 56.4483 14.0114C56.3563 13.9732 56.2577 13.9536 56.1581 13.9536L56.1483 13.9634ZM54.7816 22.2603H48.4495V19.4589C48.4495 18.0533 49.5949 16.2133 51.0108 16.2133H54.7816V22.2603Z" fill="#2E358F"/>
</g>
<defs>
<clipPath id="clip0">
<rect width="135" height="38" fill="white"/>
</clipPath>
</defs>
</svg>
