<svg width="367" height="336" viewBox="0 0 367 336" fill="none" xmlns="http://www.w3.org/2000/svg">
<g filter="url(#filter0_di)">
<mask id="path-1-inside-1" fill="white">
<path fill-rule="evenodd" clip-rule="evenodd" d="M211.668 111.708L261.326 161.423C262.886 162.985 262.886 165.515 261.326 167.077L259.235 169.17C257.673 170.735 255.137 170.735 253.575 169.17L238.372 153.95V239.4H117.893V153.95L102.691 169.17C101.128 170.735 98.593 170.735 97.0305 169.17L94.9395 167.077C93.3795 165.515 93.3795 162.985 94.9395 161.423L128.981 127.343L128.875 128.353C144.116 130.025 159.066 129.327 173.31 126.276C186.47 123.458 199.357 118.562 211.668 111.708ZM198.297 98.3217L178.133 78.1348L157.56 98.7308C171.155 102.807 184.846 102.669 198.297 98.3217ZM200.395 100.423C193.17 102.901 185.826 104.224 178.556 104.355C171.094 104.489 163.508 103.372 156.008 101.034L156.338 99.9546L132.792 123.527C159.312 125.81 184.524 120.556 207.853 107.889L200.395 100.423ZM210.611 113.383C203.528 117.237 196.259 120.446 188.861 122.986L206.652 135.909L210.611 113.383ZM173.519 127.254C169.701 128.072 165.833 128.721 161.921 129.2L177.353 145.163L184.922 124.272C181.149 125.44 177.346 126.435 173.519 127.254ZM134.026 129.791C142.063 130.405 150.007 130.354 157.795 129.641L146.858 148.713L134.026 129.791ZM196.483 103C192.774 104.055 189.039 104.808 185.309 105.255L192.422 112.568L196.483 103ZM177.671 105.741C175.794 105.754 173.91 105.688 172.022 105.544L177.728 113.983L183.329 105.463C181.439 105.635 179.552 105.728 177.671 105.741ZM158.834 103.268C162.558 104.269 166.302 104.969 170.037 105.363L163.028 112.775L158.834 103.268Z"/>
</mask>
<path fill-rule="evenodd" clip-rule="evenodd" d="M211.668 111.708L261.326 161.423C262.886 162.985 262.886 165.515 261.326 167.077L259.235 169.17C257.673 170.735 255.137 170.735 253.575 169.17L238.372 153.95V239.4H117.893V153.95L102.691 169.17C101.128 170.735 98.593 170.735 97.0305 169.17L94.9395 167.077C93.3795 165.515 93.3795 162.985 94.9395 161.423L128.981 127.343L128.875 128.353C144.116 130.025 159.066 129.327 173.31 126.276C186.47 123.458 199.357 118.562 211.668 111.708ZM198.297 98.3217L178.133 78.1348L157.56 98.7308C171.155 102.807 184.846 102.669 198.297 98.3217ZM200.395 100.423C193.17 102.901 185.826 104.224 178.556 104.355C171.094 104.489 163.508 103.372 156.008 101.034L156.338 99.9546L132.792 123.527C159.312 125.81 184.524 120.556 207.853 107.889L200.395 100.423ZM210.611 113.383C203.528 117.237 196.259 120.446 188.861 122.986L206.652 135.909L210.611 113.383ZM173.519 127.254C169.701 128.072 165.833 128.721 161.921 129.2L177.353 145.163L184.922 124.272C181.149 125.44 177.346 126.435 173.519 127.254ZM134.026 129.791C142.063 130.405 150.007 130.354 157.795 129.641L146.858 148.713L134.026 129.791ZM196.483 103C192.774 104.055 189.039 104.808 185.309 105.255L192.422 112.568L196.483 103ZM177.671 105.741C175.794 105.754 173.91 105.688 172.022 105.544L177.728 113.983L183.329 105.463C181.439 105.635 179.552 105.728 177.671 105.741ZM158.834 103.268C162.558 104.269 166.302 104.969 170.037 105.363L163.028 112.775L158.834 103.268Z" fill="url(#paint0_linear)"/>
<path d="M261.326 161.423L262.034 160.717H262.034L261.326 161.423ZM211.668 111.708L212.375 111.001L211.842 110.467L211.181 110.834L211.668 111.708ZM261.326 167.077L260.619 166.37L261.326 167.077ZM259.235 169.17L259.943 169.877L259.235 169.17ZM253.575 169.17L252.867 169.877L253.575 169.17ZM238.372 153.95L239.08 153.243L237.372 151.534V153.95H238.372ZM238.372 239.4V240.4H239.372V239.4H238.372ZM117.893 239.4H116.893V240.4H117.893V239.4ZM117.893 153.95H118.893V151.534L117.186 153.243L117.893 153.95ZM102.691 169.17L101.983 168.464L102.691 169.17ZM97.0305 169.17L97.738 168.464H97.738L97.0305 169.17ZM94.9395 167.077L94.232 167.784H94.232L94.9395 167.077ZM94.9395 161.423L94.232 160.717H94.232L94.9395 161.423ZM128.981 127.343L129.975 127.447L130.269 124.638L128.273 126.636L128.981 127.343ZM128.875 128.353L127.881 128.249L127.777 129.238L128.766 129.347L128.875 128.353ZM173.31 126.276L173.519 127.254L173.31 126.276ZM178.133 78.1348L178.84 77.4281L178.133 76.7197L177.425 77.4281L178.133 78.1348ZM198.297 98.3217L198.604 99.2732L200.159 98.7708L199.004 97.615L198.297 98.3217ZM157.56 98.7308L156.853 98.0241L155.67 99.208L157.273 99.6886L157.56 98.7308ZM200.395 100.423L201.103 99.7159L200.661 99.2741L200.071 99.4767L200.395 100.423ZM178.556 104.355L178.574 105.354L178.556 104.355ZM156.008 101.034L155.051 100.741L154.76 101.692L155.71 101.988L156.008 101.034ZM156.338 99.9546L157.294 100.247L155.63 99.2479L156.338 99.9546ZM132.792 123.527L132.085 122.821L130.567 124.34L132.706 124.524L132.792 123.527ZM207.853 107.889L208.33 108.767L209.506 108.129L208.56 107.182L207.853 107.889ZM188.861 122.986L188.536 122.041L186.718 122.665L188.273 123.795L188.861 122.986ZM210.611 113.383L211.596 113.556L211.955 111.514L210.133 112.505L210.611 113.383ZM206.652 135.909L206.064 136.718L207.359 137.659L207.637 136.082L206.652 135.909ZM161.921 129.2L161.8 128.207L159.807 128.452L161.202 129.895L161.921 129.2ZM173.519 127.254L173.31 126.277L173.519 127.254ZM177.353 145.163L176.634 145.858L177.748 147.01L178.294 145.504L177.353 145.163ZM184.922 124.272L185.862 124.613L186.547 122.722L184.626 123.317L184.922 124.272ZM157.795 129.641L158.662 130.139L159.619 128.47L157.704 128.645L157.795 129.641ZM134.026 129.791L134.102 128.794L132.034 128.636L133.198 130.352L134.026 129.791ZM146.858 148.713L146.03 149.275L146.929 150.6L147.725 149.211L146.858 148.713ZM185.309 105.255L185.19 104.262L183.182 104.503L184.592 105.952L185.309 105.255ZM196.483 103L197.404 103.391L198.221 101.467L196.21 102.038L196.483 103ZM192.422 112.568L191.705 113.266L192.755 114.344L193.343 112.959L192.422 112.568ZM172.022 105.544L172.098 104.547L170.034 104.389L171.194 106.104L172.022 105.544ZM177.671 105.741L177.678 106.741L177.671 105.741ZM177.728 113.983L176.9 114.543L177.74 115.786L178.564 114.532L177.728 113.983ZM183.329 105.463L184.165 106.013L185.304 104.28L183.239 104.467L183.329 105.463ZM170.037 105.363L170.763 106.05L172.153 104.581L170.142 104.369L170.037 105.363ZM158.834 103.268L159.094 102.302L157.076 101.759L157.919 103.671L158.834 103.268ZM163.028 112.775L162.113 113.178L162.72 114.555L163.754 113.462L163.028 112.775ZM262.034 160.717L212.375 111.001L210.96 112.415L260.619 162.13L262.034 160.717ZM262.034 167.784C263.984 165.831 263.984 162.669 262.034 160.717L260.619 162.13C261.789 163.301 261.789 165.199 260.619 166.37L262.034 167.784ZM259.943 169.877L262.034 167.784L260.619 166.37L258.528 168.464L259.943 169.877ZM252.867 169.877C254.821 171.832 257.99 171.832 259.943 169.877L258.528 168.464C257.356 169.637 255.454 169.637 254.283 168.464L252.867 169.877ZM237.665 154.657L252.867 169.877L254.283 168.464L239.08 153.243L237.665 154.657ZM239.372 239.4V153.95H237.372V239.4H239.372ZM117.893 240.4H238.372V238.4H117.893V240.4ZM116.893 153.95V239.4H118.893V153.95H116.893ZM103.398 169.877L118.601 154.657L117.186 153.243L101.983 168.464L103.398 169.877ZM96.323 169.877C98.2761 171.832 101.445 171.832 103.398 169.877L101.983 168.464C100.811 169.637 98.9099 169.637 97.738 168.464L96.323 169.877ZM94.232 167.784L96.323 169.877L97.738 168.464L95.647 166.37L94.232 167.784ZM94.232 160.717C92.2821 162.669 92.282 165.831 94.232 167.784L95.647 166.37C94.477 165.199 94.477 163.301 95.647 162.13L94.232 160.717ZM128.273 126.636L94.232 160.717L95.647 162.13L129.688 128.05L128.273 126.636ZM129.87 128.457L129.975 127.447L127.986 127.239L127.881 128.249L129.87 128.457ZM173.1 125.299C158.967 128.325 144.125 129.02 128.984 127.359L128.766 129.347C144.108 131.03 159.166 130.328 173.519 127.254L173.1 125.299ZM211.181 110.834C198.953 117.643 186.159 122.502 173.1 125.299L173.519 127.254C186.78 124.414 199.761 119.482 212.154 112.582L211.181 110.834ZM177.425 78.8415L197.589 99.0284L199.004 97.615L178.84 77.4281L177.425 78.8415ZM158.268 99.4375L178.84 78.8415L177.425 77.4281L156.853 98.0241L158.268 99.4375ZM157.273 99.6886C171.061 103.823 184.959 103.683 198.604 99.2732L197.989 97.3702C184.732 101.655 171.248 101.792 157.848 97.7729L157.273 99.6886ZM200.071 99.4767C192.939 101.923 185.698 103.226 178.538 103.355L178.574 105.354C185.953 105.221 193.401 103.879 200.72 101.369L200.071 99.4767ZM178.538 103.355C171.188 103.487 163.708 102.387 156.305 100.079L155.71 101.988C163.307 104.357 170.999 105.491 178.574 105.354L178.538 103.355ZM156.964 101.326L157.294 100.247L155.382 99.6619L155.051 100.741L156.964 101.326ZM133.5 124.234L157.045 100.661L155.63 99.2479L132.085 122.821L133.5 124.234ZM207.376 107.01C184.219 119.584 159.203 124.797 132.878 122.531L132.706 124.524C159.421 126.823 184.828 121.529 208.33 108.767L207.376 107.01ZM199.688 101.129L207.145 108.595L208.56 107.182L201.103 99.7159L199.688 101.129ZM189.186 123.932C196.638 121.373 203.959 118.142 211.089 114.262L210.133 112.505C203.098 116.333 195.88 119.519 188.536 122.041L189.186 123.932ZM207.239 135.1L189.449 122.177L188.273 123.795L206.064 136.718L207.239 135.1ZM209.626 113.21L205.667 135.736L207.637 136.082L211.596 113.556L209.626 113.21ZM162.043 130.193C165.983 129.71 169.881 129.056 173.729 128.232L173.31 126.277C169.521 127.088 165.682 127.732 161.8 128.207L162.043 130.193ZM178.072 144.468L162.64 128.505L161.202 129.895L176.634 145.858L178.072 144.468ZM183.981 123.932L176.413 144.823L178.294 145.504L185.862 124.613L183.981 123.932ZM173.729 128.232C177.584 127.407 181.416 126.404 185.217 125.228L184.626 123.317C180.881 124.476 177.107 125.464 173.31 126.277L173.729 128.232ZM157.704 128.645C149.973 129.353 142.086 129.404 134.102 128.794L133.949 130.788C142.041 131.406 150.041 131.355 157.886 130.637L157.704 128.645ZM147.725 149.211L158.662 130.139L156.927 129.144L145.99 148.216L147.725 149.211ZM133.198 130.352L146.03 149.275L147.685 148.152L134.853 129.23L133.198 130.352ZM185.428 106.248C189.211 105.794 192.998 105.031 196.757 103.962L196.21 102.038C192.549 103.079 188.866 103.821 185.19 104.262L185.428 106.248ZM193.139 111.871L186.026 104.558L184.592 105.952L191.705 113.266L193.139 111.871ZM195.563 102.609L191.502 112.178L193.343 112.959L197.404 103.391L195.563 102.609ZM171.946 106.541C173.861 106.687 175.773 106.754 177.678 106.741L177.664 104.741C175.815 104.754 173.959 104.689 172.098 104.547L171.946 106.541ZM178.557 113.423L172.851 104.984L171.194 106.104L176.9 114.543L178.557 113.423ZM182.493 104.914L176.893 113.434L178.564 114.532L184.165 106.013L182.493 104.914ZM177.678 106.741C179.587 106.728 181.502 106.633 183.42 106.459L183.239 104.467C181.376 104.637 179.517 104.728 177.664 104.741L177.678 106.741ZM170.142 104.369C166.46 103.98 162.768 103.29 159.094 102.302L158.574 104.233C162.347 105.248 166.143 105.958 169.932 106.358L170.142 104.369ZM163.754 113.462L170.763 106.05L169.31 104.676L162.301 112.088L163.754 113.462ZM157.919 103.671L162.113 113.178L163.943 112.371L159.749 102.864L157.919 103.671Z" fill="white" mask="url(#path-1-inside-1)"/>
</g>
<g filter="url(#filter1_diii)">
<path d="M242.373 70.5103C248.902 73.2084 254.832 77.1662 259.826 82.158C264.82 87.1497 268.779 93.0776 271.478 99.6031C273.687 104.941 275.016 110.594 275.423 116.343C275.573 118.463 277.283 120.188 279.409 120.186C281.53 120.184 283.261 118.465 283.131 116.349C282.714 109.585 281.181 102.93 278.586 96.6552C275.501 89.1975 270.975 82.4228 265.268 76.7179C259.561 71.0131 252.783 66.4898 245.322 63.4063C239.045 60.8118 232.387 59.2794 225.62 58.863C223.504 58.7327 221.783 60.4633 221.781 62.5831C221.779 64.7084 223.506 66.4174 225.627 66.5675C231.378 66.9744 237.033 68.3031 242.373 70.5103Z" fill="#EE3C6B"/>
<path d="M248.941 93.0379C245.374 89.4724 241.138 86.6453 236.475 84.7182C233 83.2821 229.339 82.3667 225.609 81.9952C223.494 81.7845 221.765 80.0811 221.767 77.9558C221.769 75.836 223.491 74.1013 225.604 74.2756C230.349 74.6668 235.012 75.7907 239.424 77.6141C245.02 79.9268 250.103 83.3192 254.383 87.5979C258.664 91.8765 262.058 96.9575 264.371 102.551C266.195 106.961 267.32 111.621 267.711 116.364C267.886 118.477 266.15 120.198 264.029 120.2C261.903 120.202 260.199 118.474 259.988 116.359C259.617 112.632 258.701 108.972 257.264 105.499C255.336 100.838 252.508 96.6035 248.941 93.0379Z" fill="#EE3C6B"/>
<path d="M230.577 98.9263C233.374 100.083 235.916 101.779 238.056 103.918C240.197 106.058 241.894 108.598 243.05 111.395C243.715 113.002 244.194 114.677 244.481 116.385C244.833 118.481 246.524 120.216 248.65 120.214C250.771 120.212 252.514 118.488 252.252 116.384C251.913 113.662 251.21 110.992 250.157 108.447C248.615 104.718 246.352 101.331 243.499 98.4781C240.645 95.6257 237.256 93.3641 233.526 91.8223C230.98 90.7701 228.309 90.0673 225.585 89.7282C223.481 89.4662 221.755 91.209 221.754 93.3289C221.752 95.4541 223.487 97.1449 225.584 97.4963C227.293 97.7828 228.968 98.2616 230.577 98.9263Z" fill="#EE3C6B"/>
<path d="M242.316 70.6489C248.826 73.3394 254.74 77.2862 259.72 82.264C264.7 87.2418 268.648 93.1531 271.34 99.6604C273.542 104.984 274.867 110.621 275.273 116.353C275.429 118.545 277.198 120.338 279.409 120.336C281.61 120.334 283.417 118.548 283.281 116.34C282.863 109.56 281.326 102.888 278.724 96.5979C275.632 89.1219 271.096 82.3307 265.374 76.6119C259.653 70.8931 252.859 66.3587 245.38 63.2677C239.087 60.6669 232.412 59.1308 225.63 58.7133C223.42 58.5773 221.633 60.3831 221.631 62.583C221.629 64.7937 223.423 66.5619 225.616 66.7171C231.351 67.1229 236.99 68.4479 242.316 70.6489ZM236.417 84.8567C241.062 86.7764 245.282 89.5924 248.835 93.144C252.388 96.6955 255.205 100.913 257.126 105.556C258.557 109.016 259.469 112.661 259.839 116.374C260.057 118.556 261.817 120.352 264.03 120.35C266.229 120.348 268.043 118.56 267.861 116.352C267.468 111.594 266.34 106.918 264.51 102.493C262.189 96.882 258.784 91.7844 254.489 87.4918C250.195 83.1992 245.095 79.7957 239.481 77.4756C235.055 75.6462 230.377 74.5186 225.617 74.1261C223.407 73.944 221.619 75.7568 221.617 77.9557C221.615 80.1672 223.412 81.9271 225.595 82.1445C229.309 82.5144 232.956 83.4263 236.417 84.8567ZM230.519 99.0649C233.299 100.214 235.824 101.899 237.95 104.024C240.077 106.15 241.762 108.674 242.912 111.452C243.572 113.049 244.048 114.713 244.333 116.41C244.694 118.563 246.436 120.366 248.65 120.364C250.848 120.362 252.676 118.571 252.401 116.365C252.06 113.63 251.354 110.947 250.296 108.389C248.746 104.642 246.472 101.238 243.605 98.3721C240.737 95.5057 237.332 93.233 233.583 91.6837C231.025 90.6264 228.341 89.9201 225.604 89.5794C223.397 89.3047 221.605 91.132 221.604 93.3287C221.602 95.5419 223.406 97.2832 225.559 97.6442C227.257 97.9288 228.921 98.4045 230.519 99.0649Z" stroke="#FF96B2" stroke-width="0.3"/>
</g>
<g filter="url(#filter2_diii)">
<mask id="path-5-outside-2" maskUnits="userSpaceOnUse" x="143.793" y="191.316" width="70" height="30" fill="black">
<rect fill="white" x="143.793" y="191.316" width="70" height="30"/>
<path d="M210.123 192.663C211.874 193.085 212.966 194.854 212.386 196.56C210.169 203.078 206.105 208.842 200.657 213.13C194.352 218.093 186.56 220.791 178.534 220.79C170.509 220.788 162.717 218.087 156.414 213.121C150.968 208.83 146.907 203.065 144.692 196.546C144.112 194.84 145.205 193.071 146.957 192.65C148.708 192.228 150.453 193.316 151.067 195.009C152.916 200.108 156.157 204.614 160.452 207.998C165.605 212.058 171.975 214.266 178.535 214.267C185.096 214.269 191.467 212.063 196.621 208.006C200.918 204.624 204.161 200.119 206.012 195.02C206.627 193.327 208.371 192.241 210.123 192.663Z"/>
</mask>
<path d="M210.123 192.663C211.874 193.085 212.966 194.854 212.386 196.56C210.169 203.078 206.105 208.842 200.657 213.13C194.352 218.093 186.56 220.791 178.534 220.79C170.509 220.788 162.717 218.087 156.414 213.121C150.968 208.83 146.907 203.065 144.692 196.546C144.112 194.84 145.205 193.071 146.957 192.65C148.708 192.228 150.453 193.316 151.067 195.009C152.916 200.108 156.157 204.614 160.452 207.998C165.605 212.058 171.975 214.266 178.535 214.267C185.096 214.269 191.467 212.063 196.621 208.006C200.918 204.624 204.161 200.119 206.012 195.02C206.627 193.327 208.371 192.241 210.123 192.663Z" fill="#EE3C6B"/>
<path d="M210.123 192.663C211.874 193.085 212.966 194.854 212.386 196.56C210.169 203.078 206.105 208.842 200.657 213.13C194.352 218.093 186.56 220.791 178.534 220.79C170.509 220.788 162.717 218.087 156.414 213.121C150.968 208.83 146.907 203.065 144.692 196.546C144.112 194.84 145.205 193.071 146.957 192.65C148.708 192.228 150.453 193.316 151.067 195.009C152.916 200.108 156.157 204.614 160.452 207.998C165.605 212.058 171.975 214.266 178.535 214.267C185.096 214.269 191.467 212.063 196.621 208.006C200.918 204.624 204.161 200.119 206.012 195.02C206.627 193.327 208.371 192.241 210.123 192.663Z" stroke="#FF96B2" stroke-width="0.6" mask="url(#path-5-outside-2)"/>
</g>
<g filter="url(#filter3_diii)">
<path fill-rule="evenodd" clip-rule="evenodd" d="M145.198 176.924C144.874 176.814 144.576 176.639 144.32 176.411C143.428 175.613 143.194 174.29 143.895 173.319C145.321 171.343 147.142 169.673 149.249 168.42C149.292 168.395 149.335 168.369 149.378 168.344C152.132 166.737 155.265 165.896 158.453 165.908C161.642 165.919 164.769 166.783 167.511 168.41C167.554 168.436 167.597 168.461 167.639 168.487C169.526 169.628 171.179 171.104 172.52 172.836C173.462 174.051 172.955 175.76 171.609 176.501C170.263 177.242 168.591 176.723 167.567 175.577C166.733 174.644 165.757 173.839 164.671 173.194C162.782 172.074 160.629 171.479 158.433 171.471C156.238 171.463 154.08 172.042 152.183 173.149C151.011 173.833 149.966 174.702 149.085 175.719C148.136 176.814 146.655 177.422 145.284 176.954L145.198 176.924Z" fill="#EE3C6B"/>
<path d="M144.22 176.523C144.491 176.764 144.806 176.949 145.149 177.066L145.235 177.095C146.679 177.589 148.221 176.944 149.198 175.817C150.068 174.813 151.101 173.954 152.259 173.278C154.132 172.185 156.264 171.613 158.433 171.621C160.602 171.629 162.729 172.217 164.594 173.323C165.667 173.96 166.631 174.755 167.455 175.677C168.512 176.859 170.257 177.416 171.681 176.633C173.093 175.855 173.646 174.044 172.639 172.744C171.287 170.998 169.62 169.509 167.717 168.359C167.674 168.333 167.631 168.307 167.587 168.281C164.823 166.641 161.669 165.77 158.454 165.758C155.239 165.746 152.079 166.594 149.302 168.214C149.259 168.24 149.216 168.265 149.172 168.291C147.048 169.555 145.212 171.238 143.773 173.231C143.021 174.273 143.279 175.681 144.22 176.523Z" stroke="#FF96B2" stroke-width="0.3"/>
</g>
<g filter="url(#filter4_diii)">
<path fill-rule="evenodd" clip-rule="evenodd" d="M185.4 176.875C185.086 176.797 184.788 176.665 184.519 176.484C183.307 175.672 182.905 174.047 183.794 172.89C185.17 171.1 186.877 169.581 188.829 168.42C188.872 168.395 188.915 168.369 188.958 168.344C191.712 166.737 194.845 165.896 198.034 165.908C201.222 165.919 204.349 166.783 207.091 168.41C207.134 168.436 207.177 168.461 207.219 168.487C209.106 169.628 210.759 171.104 212.1 172.836C213.042 174.051 212.535 175.76 211.189 176.501C209.843 177.242 208.171 176.723 207.147 175.577C206.313 174.644 205.337 173.839 204.251 173.194C202.362 172.074 200.209 171.479 198.013 171.471C195.818 171.463 193.66 172.042 191.763 173.149C190.536 173.865 189.636 174.9 188.808 175.886C188.006 176.842 186.738 177.21 185.527 176.907L185.4 176.875Z" fill="#EE3C6B"/>
<path d="M184.436 176.609C184.719 176.799 185.033 176.938 185.363 177.021L185.491 177.053C186.753 177.368 188.081 176.986 188.923 175.983C189.752 174.995 190.636 173.98 191.839 173.278C193.712 172.185 195.844 171.613 198.013 171.621C200.182 171.629 202.309 172.217 204.174 173.323C205.247 173.96 206.211 174.755 207.035 175.677C208.092 176.859 209.837 177.416 211.261 176.633C212.673 175.855 213.227 174.044 212.219 172.744C210.867 170.998 209.2 169.509 207.297 168.359C207.254 168.333 207.211 168.307 207.167 168.281C204.403 166.641 201.249 165.77 198.034 165.758C194.819 165.746 191.659 166.594 188.883 168.214C188.839 168.24 188.796 168.265 188.753 168.291C186.783 169.462 185.062 170.994 183.675 172.798C182.725 174.036 183.164 175.756 184.436 176.609Z" stroke="#FF96B2" stroke-width="0.3"/>
</g>
<g clip-path="url(#clip0)">
<g filter="url(#filter5_di)">
<path d="M105.749 50.8941L110.599 128.812C110.599 128.812 126.011 129.133 140.122 122.344C154.233 115.556 163.601 103.314 163.601 103.314L105.749 50.8941Z" fill="url(#paint1_linear)"/>
<path d="M105.749 50.8941L110.599 128.812C110.599 128.812 126.011 129.133 140.122 122.344C154.233 115.556 163.601 103.314 163.601 103.314L105.749 50.8941Z" fill="url(#paint2_linear)"/>
<path d="M111.069 128.314L106.324 52.0902L162.919 103.371C162.878 103.421 162.833 103.477 162.784 103.537C162.503 103.881 162.086 104.381 161.541 105.003C160.451 106.248 158.849 107.979 156.809 109.921C152.725 113.809 146.898 118.53 139.905 121.894C132.913 125.258 125.587 126.864 120.001 127.629C117.21 128.01 114.858 128.181 113.205 128.257C112.379 128.294 111.728 128.308 111.284 128.313C111.206 128.313 111.134 128.314 111.069 128.314Z" stroke="white"/>
</g>
<g filter="url(#filter6_d)">
<path d="M105.75 50.894C105.75 50.894 131.792 105.026 140.123 122.344C154.234 115.556 163.602 103.314 163.602 103.314L105.75 50.894Z" fill="url(#paint3_linear)"/>
<path d="M105.75 50.894C105.75 50.894 131.792 105.026 140.123 122.344C154.234 115.556 163.602 103.314 163.602 103.314L105.75 50.894Z" fill="url(#paint4_linear)"/>
<path d="M107.309 52.9814L162.92 103.371C162.879 103.421 162.834 103.477 162.785 103.537C162.504 103.881 162.087 104.381 161.542 105.003C160.451 106.248 158.85 107.979 156.81 109.921C152.814 113.725 147.149 118.327 140.356 121.675L140.324 121.61L140.273 121.504L140.222 121.397L140.17 121.289L140.118 121.181L140.065 121.071L140.012 120.961L139.959 120.85L139.905 120.739L139.851 120.626L139.797 120.513L139.742 120.399L139.687 120.284L139.631 120.169L139.575 120.052L139.519 119.935L139.462 119.817L139.405 119.698L139.348 119.579L139.29 119.459L139.232 119.338L139.173 119.216L139.114 119.094L139.055 118.971L138.995 118.847L138.935 118.723L138.875 118.597L138.815 118.471L138.754 118.345L138.692 118.217L138.631 118.089L138.569 117.96L138.506 117.831L138.444 117.7L138.381 117.57L138.317 117.438L138.254 117.306L138.19 117.173L138.126 117.039L138.061 116.905L137.996 116.77L137.931 116.634L137.865 116.498L137.799 116.361L137.733 116.224L137.667 116.085L137.6 115.947L137.533 115.807L137.466 115.667L137.398 115.526L137.33 115.385L137.262 115.243L137.193 115.1L137.124 114.957L137.055 114.813L136.985 114.669L136.916 114.524L136.846 114.378L136.775 114.232L136.705 114.085L136.634 113.938L136.563 113.79L136.491 113.641L136.419 113.492L136.347 113.343L136.275 113.193L136.203 113.042L136.13 112.89L136.057 112.739L135.983 112.586L135.91 112.433L135.836 112.28L135.762 112.126L135.687 111.971L135.613 111.816L135.538 111.66L135.463 111.504L135.388 111.348L135.312 111.19L135.236 111.033L135.16 110.875L135.084 110.716L135.007 110.557L134.93 110.397L134.853 110.237L134.776 110.076L134.699 109.915L134.621 109.754L134.543 109.592L134.465 109.429L134.386 109.266L134.308 109.103L134.229 108.939L134.15 108.775L134.071 108.61L133.991 108.445L133.911 108.279L133.832 108.113L133.751 107.947L133.671 107.78L133.591 107.612L133.51 107.445L133.429 107.277L133.348 107.108L133.267 106.939L133.185 106.77L133.104 106.6L133.022 106.43L132.94 106.259L132.857 106.088L132.775 105.917L132.692 105.745L132.61 105.573L132.527 105.401L132.444 105.228L132.36 105.055L132.277 104.881L132.193 104.708L132.109 104.533L132.025 104.359L131.941 104.184L131.857 104.009L131.773 103.833L131.688 103.657L131.603 103.481L131.518 103.305L131.433 103.128L131.348 102.951L131.263 102.773L131.177 102.596L131.092 102.418L131.006 102.239L130.92 102.061L130.834 101.882L130.748 101.703L130.661 101.523L130.575 101.343L130.488 101.163L130.402 100.983L130.315 100.803L130.228 100.622L130.141 100.441L130.053 100.26L129.966 100.078L129.879 99.8962L129.791 99.7142L129.703 99.532L129.616 99.3495L129.528 99.1668L129.44 98.9839L129.352 98.8008L129.263 98.6174L129.175 98.4339L129.087 98.2501L128.998 98.0662L128.91 97.882L128.821 97.6977L128.732 97.5131L128.643 97.3284L128.554 97.1435L128.465 96.9584L128.376 96.7732L128.287 96.5878L128.198 96.4022L128.108 96.2165L128.019 96.0306L127.929 95.8445L127.84 95.6583L127.75 95.472L127.661 95.2855L127.571 95.0989L127.481 94.9122L127.391 94.7253L127.301 94.5383L127.211 94.3512L127.121 94.164L127.031 93.9767L126.941 93.7892L126.85 93.6017L126.76 93.414L126.67 93.2263L126.579 93.0385L126.489 92.8506L126.399 92.6626L126.308 92.4745L126.218 92.2863L126.127 92.0981L126.037 91.9098L125.946 91.7215L125.855 91.5331L125.765 91.3446L125.674 91.1561L125.583 90.9676L125.493 90.779L125.402 90.5903L125.311 90.4017L125.22 90.213L125.129 90.0242L125.039 89.8355L124.948 89.6467L124.857 89.458L124.766 89.2692L124.675 89.0804L124.585 88.8916L124.494 88.7028L124.403 88.514L124.312 88.3253L124.221 88.1365L124.13 87.9478L124.04 87.7591L123.949 87.5704L123.858 87.3817L123.767 87.1931L123.677 87.0046L123.586 86.816L123.495 86.6275L123.405 86.4391L123.314 86.2507L123.223 86.0624L123.133 85.8742L123.042 85.686L122.952 85.4979L122.861 85.3098L122.771 85.1219L122.681 84.934L122.59 84.7462L122.5 84.5585L122.41 84.3709L122.32 84.1834L122.229 83.996L122.139 83.8088L122.049 83.6216L121.959 83.4345L121.869 83.2476L121.779 83.0608L121.69 82.8741L121.6 82.6876L121.51 82.5012L121.421 82.3149L121.331 82.1288L121.242 81.9428L121.152 81.757L121.063 81.5714L120.974 81.3859L120.885 81.2005L120.795 81.0154L120.706 80.8304L120.618 80.6456L120.529 80.461L120.44 80.2765L120.351 80.0923L120.263 79.9082L120.174 79.7243L120.086 79.5407L119.998 79.3572L119.91 79.174L119.822 78.991L119.734 78.8082L119.646 78.6256L119.558 78.4432L119.47 78.2611L119.383 78.0792L119.296 77.8975L119.208 77.7161L119.121 77.535L119.034 77.3541L118.947 77.1734L118.86 76.993L118.774 76.8129L118.687 76.633L118.601 76.4534L118.515 76.2741L118.428 76.095L118.342 75.9163L118.257 75.7378L118.171 75.5596L118.085 75.3818L118 75.2042L117.915 75.0269L117.829 74.8499L117.744 74.6733L117.66 74.4969L117.575 74.3209L117.49 74.1452L117.406 73.9698L117.322 73.7948L117.238 73.6201L117.154 73.4457L117.07 73.2717L116.987 73.098L116.903 72.9247L116.82 72.7518L116.737 72.5792L116.654 72.4069L116.571 72.2351L116.489 72.0636L116.407 71.8925L116.325 71.7217L116.243 71.5514L116.161 71.3814L116.079 71.2119L115.998 71.0427L115.917 70.8739L115.836 70.7056L115.755 70.5376L115.674 70.3701L115.594 70.203L115.514 70.0363L115.434 69.87L115.354 69.7041L115.274 69.5387L115.195 69.3738L115.116 69.2092L115.037 69.0452L114.958 68.8815L114.88 68.7184L114.801 68.5556L114.723 68.3934L114.646 68.2316L114.568 68.0703L114.491 67.9094L114.413 67.7491L114.336 67.5892L114.26 67.4298L114.183 67.2709L114.107 67.1125L114.031 66.9546L113.955 66.7971L113.88 66.6402L113.805 66.4839L113.73 66.328L113.655 66.1726L113.581 66.0178L113.506 65.8635L113.432 65.7097L113.359 65.5565L113.285 65.4038L113.212 65.2516L113.139 65.1L113.066 64.949L112.994 64.7985L112.922 64.6485L112.85 64.4992L112.778 64.3504L112.707 64.2021L112.636 64.0545L112.565 63.9074L112.495 63.7609L112.425 63.615L112.355 63.4697L112.285 63.325L112.216 63.1809L112.147 63.0373L112.078 62.8944L112.009 62.7522L111.941 62.6105L111.873 62.4694L111.806 62.329L111.739 62.1892L111.672 62.0501L111.605 61.9115L111.539 61.7737L111.473 61.6364L111.407 61.4998L111.342 61.3639L111.277 61.2286L111.212 61.094L111.147 60.96L111.083 60.8268L111.019 60.6942L110.956 60.5622L110.893 60.431L110.83 60.3004L110.768 60.1706L110.705 60.0414L110.644 59.9129L110.582 59.7851L110.521 59.6581L110.46 59.5317L110.4 59.4061L110.34 59.2811L110.28 59.1569L110.221 59.0335L110.161 58.9107L110.103 58.7887L110.044 58.6674L109.986 58.5469L109.929 58.4271L109.872 58.3081L109.815 58.1898L109.758 58.0723L109.702 57.9555L109.646 57.8396L109.591 57.7243L109.536 57.6099L109.481 57.4962L109.427 57.3834L109.373 57.2713L109.319 57.16L109.266 57.0495L109.213 56.9398L109.161 56.8309L109.109 56.7228L109.057 56.6155L109.006 56.5091L108.955 56.4034L108.905 56.2986L108.855 56.1946L108.805 56.0915L108.756 55.9892L108.707 55.8877L108.659 55.7871L108.611 55.6873L108.563 55.5883L108.516 55.4903L108.469 55.3931L108.423 55.2967L108.377 55.2012L108.331 55.1066L108.286 55.0129L108.242 54.92L108.197 54.8281L108.154 54.737L108.11 54.6468L108.067 54.5575L108.025 54.4692L107.983 54.3817L107.941 54.2951L107.9 54.2095L107.859 54.1247L107.819 54.0409L107.779 53.958L107.739 53.8761L107.7 53.7951L107.662 53.715L107.624 53.6358L107.586 53.5576L107.549 53.4804L107.512 53.4041L107.476 53.3288L107.44 53.2544L107.405 53.181L107.37 53.1086L107.336 53.0371L107.309 52.9814Z" stroke="white"/>
</g>
<g filter="url(#filter7_di)">
<path d="M98.907 36.6714L106.73 42.7927L116.208 39.8183L112.804 49.1502L118.562 57.2451L108.634 56.8914L102.715 64.8685L99.9838 55.3178L90.5679 52.1533L98.8073 46.6043L98.907 36.6714Z" fill="url(#paint5_linear)"/>
<path d="M98.907 36.6714L106.73 42.7927L116.208 39.8183L112.804 49.1502L118.562 57.2451L108.634 56.8914L102.715 64.8685L99.9838 55.3178L90.5679 52.1533L98.8073 46.6043L98.907 36.6714Z" fill="url(#paint6_linear)"/>
<path d="M99.3968 37.6895L106.422 43.1864L106.629 43.3484L106.88 43.2697L115.392 40.5987L112.335 48.9788L112.244 49.2258L112.397 49.44L117.567 56.7093L108.652 56.3917L108.389 56.3823L108.233 56.5934L102.917 63.757L100.465 55.1803L100.392 54.9276L100.143 54.8438L91.6875 52.0021L99.0866 47.019L99.3046 46.8722L99.3073 46.6093L99.3968 37.6895Z" stroke="white"/>
</g>
<g filter="url(#filter8_d)">
<path d="M98.9072 36.6714L106.731 42.7926L116.209 39.8182L112.804 49.1501L118.562 57.2451L108.635 56.8913L98.9072 36.6714Z" fill="url(#paint7_linear)"/>
<path d="M98.9072 36.6714L106.731 42.7926L116.209 39.8182L112.804 49.1501L118.562 57.2451L108.635 56.8913L98.9072 36.6714Z" fill="url(#paint8_linear)"/>
<path d="M100.287 38.3856L106.423 43.1864L106.63 43.3484L106.88 43.2697L115.392 40.5986L112.335 48.9788L112.245 49.2257L112.397 49.4399L117.567 56.7093L108.954 56.4024L100.287 38.3856Z" stroke="white"/>
</g>
<g filter="url(#filter9_di)">
<path d="M150.712 91.635C146.144 95.9794 139.625 101.258 131.791 105.027C123.957 108.795 115.764 110.595 109.519 111.452L110.599 128.812C110.599 128.812 126.011 129.133 140.122 122.345C154.233 115.556 163.601 103.314 163.601 103.314L150.712 91.635Z" fill="url(#paint9_linear)"/>
<path d="M150.712 91.635C146.144 95.9794 139.625 101.258 131.791 105.027C123.957 108.795 115.764 110.595 109.519 111.452L110.599 128.812C110.599 128.812 126.011 129.133 140.122 122.345C154.233 115.556 163.601 103.314 163.601 103.314L150.712 91.635Z" fill="url(#paint10_linear)"/>
<path d="M132.008 105.477C139.713 101.77 146.147 96.6198 150.719 92.3164L162.919 103.371C162.878 103.421 162.833 103.477 162.784 103.538C162.504 103.881 162.086 104.382 161.541 105.004C160.451 106.248 158.849 107.979 156.809 109.922C152.725 113.809 146.898 118.53 139.905 121.894C132.913 125.258 125.588 126.865 120.001 127.629C117.21 128.011 114.858 128.181 113.205 128.257C112.379 128.295 111.728 128.308 111.284 128.313C111.206 128.314 111.134 128.314 111.069 128.314L110.047 111.883C116.262 110.997 124.302 109.184 132.008 105.477Z" stroke="white"/>
</g>
<g filter="url(#filter10_d)">
<path d="M150.496 91.6C145.996 96.0145 139.56 101.393 131.785 105.282C134.216 110.142 135.506 112.721 140.383 122.47C154.387 115.464 163.565 103.079 163.565 103.079L150.496 91.6Z" fill="url(#paint11_linear)"/>
<path d="M150.496 91.6C145.996 96.0145 139.56 101.393 131.785 105.282C134.216 110.142 135.506 112.721 140.383 122.47C154.387 115.464 163.565 103.079 163.565 103.079L150.496 91.6Z" fill="url(#paint12_linear)"/>
<path d="M156.875 109.79C152.939 113.656 147.345 118.344 140.605 121.797C136.665 113.921 135.126 110.844 133.317 107.228C133.039 106.673 132.755 106.104 132.455 105.504C139.903 101.7 146.097 96.5695 150.514 92.2812L162.884 103.146C162.844 103.197 162.799 103.253 162.751 103.315C162.476 103.663 162.067 104.169 161.531 104.8C160.46 106.061 158.885 107.816 156.875 109.79Z" stroke="white"/>
</g>
<g filter="url(#filter11_d)">
<path d="M150.712 91.6347L130.334 73.1703C127.142 75.5171 123.538 77.7929 119.601 79.687C115.664 81.5811 111.636 82.9761 107.81 84.0058L109.519 111.452C115.764 110.594 123.957 108.795 131.791 105.027C139.625 101.258 146.144 95.9792 150.712 91.6347Z" fill="url(#paint13_linear)"/>
<path d="M150.712 91.6347L130.334 73.1703C127.142 75.5171 123.538 77.7929 119.601 79.687C115.664 81.5811 111.636 82.9761 107.81 84.0058L109.519 111.452C115.764 110.594 123.957 108.795 131.791 105.027C139.625 101.258 146.144 95.9792 150.712 91.6347Z" fill="url(#paint14_linear)"/>
<path d="M119.818 80.1376C123.653 78.2927 127.17 76.0904 130.3 73.8144L149.976 91.6425C145.454 95.8917 139.125 100.944 131.574 104.576C124.023 108.209 116.127 110 109.984 110.882L108.335 84.3814C112.067 83.3562 115.983 81.9825 119.818 80.1376Z" stroke="white"/>
</g>
<g filter="url(#filter12_di)">
<path d="M150.712 91.6346L130.334 73.1701C127.142 75.5169 123.538 77.7927 119.601 79.6868C123.486 87.7621 126.593 94.221 131.791 105.026C139.625 101.257 146.145 95.979 150.712 91.6346Z" fill="url(#paint15_linear)"/>
<path d="M150.712 91.6346L130.334 73.1701C127.142 75.5169 123.538 77.7927 119.601 79.6868C123.486 87.7621 126.593 94.221 131.791 105.026C139.625 101.257 146.145 95.979 150.712 91.6346Z" fill="url(#paint16_linear)"/>
<path d="M120.267 79.9188C123.928 78.1197 127.293 76.001 130.3 73.8142L149.976 91.6424C145.544 95.8069 139.376 100.742 132.024 104.357L132 104.306L131.969 104.244L131.939 104.181L131.909 104.119L131.88 104.057L131.85 103.995L131.82 103.933L131.79 103.871L131.76 103.809L131.731 103.747L131.701 103.686L131.671 103.624L131.642 103.563L131.612 103.501L131.583 103.44L131.554 103.379L131.524 103.318L131.495 103.257L131.466 103.196L131.436 103.135L131.407 103.075L131.378 103.014L131.349 102.954L131.32 102.893L131.291 102.833L131.262 102.773L131.233 102.713L131.204 102.653L131.175 102.593L131.146 102.533L131.118 102.473L131.089 102.413L131.06 102.354L131.032 102.294L131.003 102.235L130.975 102.175L130.946 102.116L130.918 102.057L130.889 101.998L130.861 101.939L130.832 101.88L130.804 101.821L130.776 101.763L130.748 101.704L130.72 101.645L130.691 101.587L130.663 101.529L130.635 101.47L130.607 101.412L130.579 101.354L130.551 101.296L130.524 101.238L130.496 101.18L130.468 101.122L130.44 101.065L130.412 101.007L130.385 100.95L130.357 100.892L130.33 100.835L130.302 100.777L130.274 100.72L130.247 100.663L130.22 100.606L130.192 100.549L130.165 100.492L130.137 100.435L130.11 100.379L130.083 100.322L130.056 100.266L130.029 100.209L130.001 100.153L129.974 100.096L129.947 100.04L129.92 99.9839L129.893 99.9278L129.866 99.8718L129.839 99.8159L129.813 99.76L129.786 99.7042L129.759 99.6485L129.732 99.5929L129.705 99.5373L129.679 99.4819L129.652 99.4265L129.625 99.3711L129.599 99.3159L129.572 99.2607L129.546 99.2056L129.519 99.1506L129.493 99.0956L129.466 99.0408L129.44 98.986L129.414 98.9312L129.387 98.8766L129.361 98.822L129.335 98.7675L129.309 98.713L129.283 98.6586L129.257 98.6043L129.23 98.5501L129.204 98.496L129.178 98.4419L129.152 98.3879L129.126 98.3339L129.101 98.28L129.075 98.2262L129.049 98.1725L129.023 98.1188L128.997 98.0652L128.971 98.0117L128.946 97.9582L128.92 97.9048L128.894 97.8515L128.869 97.7982L128.843 97.745L128.818 97.6919L128.792 97.6389L128.767 97.5859L128.741 97.5329L128.716 97.4801L128.69 97.4273L128.665 97.3746L128.64 97.3219L128.614 97.2693L128.589 97.2168L128.564 97.1643L128.539 97.1119L128.513 97.0595L128.488 97.0073L128.463 96.955L128.438 96.9029L128.413 96.8508L128.388 96.7988L128.363 96.7468L128.338 96.6949L128.313 96.6431L128.288 96.5913L128.263 96.5396L128.238 96.4879L128.214 96.4363L128.189 96.3848L128.164 96.3333L128.139 96.2819L128.115 96.2305L128.09 96.1792L128.065 96.128L128.041 96.0768L128.016 96.0257L127.991 95.9746L127.967 95.9236L127.942 95.8726L127.918 95.8217L127.893 95.7709L127.869 95.7201L127.845 95.6694L127.82 95.6187L127.796 95.5681L127.772 95.5176L127.747 95.4671L127.723 95.4166L127.699 95.3663L127.675 95.3159L127.65 95.2656L127.626 95.2154L127.602 95.1652L127.578 95.1151L127.554 95.0651L127.53 95.0151L127.506 94.9651L127.482 94.9152L127.458 94.8653L127.434 94.8155L127.41 94.7658L127.386 94.7161L127.362 94.6664L127.338 94.6168L127.314 94.5673L127.291 94.5178L127.267 94.4684L127.243 94.419L127.219 94.3696L127.196 94.3203L127.172 94.2711L127.148 94.2219L127.125 94.1727L127.101 94.1236L127.077 94.0746L127.054 94.0256L127.03 93.9766L127.007 93.9277L126.983 93.8788L126.96 93.83L126.936 93.7813L126.913 93.7325L126.889 93.6839L126.866 93.6352L126.843 93.5866L126.819 93.5381L126.796 93.4896L126.773 93.4411L126.749 93.3927L126.726 93.3444L126.703 93.2961L126.68 93.2478L126.656 93.1995L126.633 93.1514L126.61 93.1032L126.587 93.0551L126.564 93.007L126.541 92.959L126.518 92.911L126.495 92.8631L126.472 92.8152L126.449 92.7673L126.425 92.7195L126.403 92.6718L126.38 92.624L126.357 92.5763L126.334 92.5287L126.311 92.481L126.288 92.4335L126.265 92.3859L126.242 92.3384L126.219 92.291L126.197 92.2435L126.174 92.1962L126.151 92.1488L126.128 92.1015L126.105 92.0542L126.083 92.007L126.06 91.9598L126.037 91.9126L126.015 91.8655L125.992 91.8184L125.969 91.7713L125.947 91.7243L125.924 91.6773L125.902 91.6303L125.879 91.5834L125.856 91.5365L125.834 91.4897L125.811 91.4429L125.789 91.3961L125.766 91.3493L125.744 91.3026L125.721 91.2559L125.699 91.2092L125.677 91.1626L125.654 91.116L125.632 91.0695L125.609 91.0229L125.587 90.9764L125.565 90.93L125.542 90.8835L125.52 90.8371L125.498 90.7907L125.475 90.7444L125.453 90.698L125.431 90.6517L125.408 90.6055L125.386 90.5592L125.364 90.513L125.342 90.4669L125.32 90.4207L125.297 90.3746L125.275 90.3285L125.253 90.2824L125.231 90.2364L125.209 90.1903L125.187 90.1443L125.165 90.0984L125.142 90.0524L125.12 90.0065L125.098 89.9606L125.076 89.9147L125.054 89.8689L125.032 89.8231L125.01 89.7773L124.988 89.7315L124.966 89.6858L124.944 89.64L124.922 89.5943L124.9 89.5486L124.878 89.503L124.856 89.4573L124.834 89.4117L124.812 89.3661L124.79 89.3206L124.768 89.275L124.747 89.2295L124.725 89.184L124.703 89.1385L124.681 89.093L124.659 89.0475L124.637 89.0021L124.615 88.9567L124.593 88.9113L124.572 88.8659L124.55 88.8206L124.528 88.7752L124.506 88.7299L124.484 88.6846L124.463 88.6393L124.441 88.594L124.419 88.5488L124.397 88.5035L124.376 88.4583L124.354 88.4131L124.332 88.3679L124.31 88.3227L124.289 88.2776L124.267 88.2324L124.245 88.1873L124.223 88.1422L124.202 88.0971L124.18 88.052L124.158 88.0069L124.137 87.9618L124.115 87.9168L124.093 87.8717L124.072 87.8267L124.05 87.7817L124.028 87.7367L124.007 87.6917L123.985 87.6467L123.963 87.6017L123.942 87.5568L123.92 87.5118L123.899 87.4669L123.877 87.422L123.855 87.3771L123.834 87.3321L123.812 87.2872L123.791 87.2424L123.769 87.1975L123.747 87.1526L123.726 87.1077L123.704 87.0629L123.683 87.018L123.661 86.9732L123.64 86.9283L123.618 86.8835L123.596 86.8387L123.575 86.7939L123.553 86.7491L123.532 86.7043L123.51 86.6595L123.489 86.6147L123.467 86.5699L123.446 86.5251L123.424 86.4803L123.402 86.4355L123.381 86.3907L123.359 86.346L123.338 86.3012L123.316 86.2564L123.295 86.2117L123.273 86.1669L123.252 86.1222L123.23 86.0774L123.209 86.0327L123.187 85.9879L123.166 85.9432L123.144 85.8984L123.123 85.8537L123.101 85.8089L123.079 85.7642L123.058 85.7194L123.036 85.6747L123.015 85.6299L122.993 85.5852L122.972 85.5404L122.95 85.4957L122.929 85.4509L122.907 85.4061L122.886 85.3614L122.864 85.3166L122.843 85.2719L122.821 85.2271L122.8 85.1823L122.778 85.1375L122.756 85.0928L122.735 85.048L122.713 85.0032L122.692 84.9584L122.67 84.9136L122.649 84.8688L122.627 84.824L122.606 84.7792L122.584 84.7344L122.562 84.6895L122.541 84.6447L122.519 84.5999L122.498 84.555L122.476 84.5101L122.455 84.4653L122.433 84.4204L122.411 84.3755L122.39 84.3306L122.368 84.2858L122.347 84.2408L122.325 84.1959L122.303 84.151L122.282 84.1061L122.26 84.0611L122.239 84.0162L122.217 83.9712L122.195 83.9262L122.174 83.8812L122.152 83.8362L122.13 83.7912L122.109 83.7462L122.087 83.7012L122.065 83.6561L122.044 83.6111L122.022 83.566L122 83.5209L121.979 83.4758L121.957 83.4307L121.935 83.3856L121.913 83.3404L121.892 83.2953L121.87 83.2501L121.848 83.2049L121.827 83.1597L121.805 83.1145L121.783 83.0693L121.761 83.024L121.739 82.9788L121.718 82.9335L121.696 82.8882L121.674 82.8429L121.652 82.7975L121.63 82.7522L121.609 82.7068L121.587 82.6614L121.565 82.616L121.543 82.5706L121.521 82.5251L121.499 82.4797L121.477 82.4342L121.456 82.3887L121.434 82.3432L121.412 82.2976L121.39 82.252L121.368 82.2065L121.346 82.1609L121.324 82.1152L121.302 82.0696L121.28 82.0239L121.258 81.9782L121.236 81.9325L121.214 81.8867L121.192 81.841L121.17 81.7952L121.148 81.7494L121.126 81.7035L121.104 81.6577L121.082 81.6118L121.06 81.5659L121.038 81.52L121.016 81.474L120.993 81.428L120.971 81.382L120.949 81.336L120.927 81.2899L120.905 81.2438L120.883 81.1977L120.86 81.1516L120.838 81.1054L120.816 81.0592L120.794 81.013L120.772 80.9667L120.749 80.9204L120.727 80.8741L120.705 80.8278L120.682 80.7814L120.66 80.735L120.638 80.6886L120.615 80.6421L120.593 80.5956L120.571 80.5491L120.548 80.5026L120.526 80.456L120.503 80.4094L120.481 80.3627L120.458 80.316L120.436 80.2693L120.414 80.2226L120.391 80.1758L120.369 80.129L120.346 80.0822L120.323 80.0353L120.301 79.9884L120.278 79.9414L120.267 79.9188Z" stroke="white"/>
</g>
</g>
<path d="M90.2734 289V280.031H94.9766V277.727H87.4062V289H90.2734ZM99.7812 289.203C102.57 289.203 104.211 287.516 104.211 284.648C104.211 281.82 102.531 280.102 99.7812 280.102C97.0469 280.102 95.3516 281.836 95.3516 284.648C95.3516 287.508 97 289.203 99.7812 289.203ZM99.7812 287.094C98.7656 287.094 98.1875 286.203 98.1875 284.648C98.1875 283.133 98.7812 282.211 99.7812 282.211C100.781 282.211 101.375 283.133 101.375 284.648C101.375 286.195 100.797 287.094 99.7812 287.094ZM112.758 280.305H105.008V282.352H107.5V289H110.266V282.352H112.758V280.305ZM118.219 289.203C121.008 289.203 122.648 287.516 122.648 284.648C122.648 281.82 120.969 280.102 118.219 280.102C115.484 280.102 113.789 281.836 113.789 284.648C113.789 287.508 115.438 289.203 118.219 289.203ZM118.219 287.094C117.203 287.094 116.625 286.203 116.625 284.648C116.625 283.133 117.219 282.211 118.219 282.211C119.219 282.211 119.812 283.133 119.812 284.648C119.812 286.195 119.234 287.094 118.219 287.094ZM128.398 281.945C129.133 281.945 129.531 282.297 129.531 282.859C129.531 283.438 129.102 283.789 128.32 283.789H127.234V281.945H128.398ZM128.445 285.242C129.328 285.242 129.836 285.602 129.836 286.289C129.836 286.984 129.359 287.359 128.484 287.359H127.234V285.242H128.445ZM124.523 289H129.328C131.359 289 132.625 287.992 132.625 286.477C132.625 285.406 131.797 284.555 130.602 284.469V284.32C131.539 284.195 132.234 283.406 132.234 282.484C132.234 281.125 131.117 280.305 129.219 280.305H124.523V289ZM138.469 289.203C141.258 289.203 142.898 287.516 142.898 284.648C142.898 281.82 141.219 280.102 138.469 280.102C135.734 280.102 134.039 281.836 134.039 284.648C134.039 287.508 135.688 289.203 138.469 289.203ZM138.469 287.094C137.453 287.094 136.875 286.203 136.875 284.648C136.875 283.133 137.469 282.211 138.469 282.211C139.469 282.211 140.062 283.133 140.062 284.648C140.062 286.195 139.484 287.094 138.469 287.094ZM145.164 277.727L145.414 285.305H147.914L148.164 277.727H145.164ZM146.664 289.273C147.672 289.273 148.266 288.75 148.266 287.852C148.266 286.945 147.672 286.422 146.664 286.422C145.656 286.422 145.07 286.945 145.07 287.852C145.07 288.75 145.656 289.273 146.664 289.273Z" fill="#EE3C6B"/>
<path d="M160.258 289V279.469H163.734V277.727H154.773V279.469H158.242V289H160.258ZM168.461 281.82C169.625 281.82 170.391 282.633 170.43 283.898H166.406C166.492 282.648 167.305 281.82 168.461 281.82ZM170.445 286.648C170.164 287.281 169.5 287.633 168.539 287.633C167.266 287.633 166.445 286.742 166.398 285.32V285.219H172.367V284.594C172.367 281.898 170.906 280.281 168.469 280.281C165.992 280.281 164.453 282.008 164.453 284.758C164.453 287.508 165.969 289.172 168.484 289.172C170.5 289.172 171.914 288.203 172.281 286.648H170.445ZM180.016 289H181.953V280.453H174.461V289H176.398V282H180.016V289ZM188.07 281.82C189.234 281.82 190 282.633 190.039 283.898H186.016C186.102 282.648 186.914 281.82 188.07 281.82ZM190.055 286.648C189.773 287.281 189.109 287.633 188.148 287.633C186.875 287.633 186.055 286.742 186.008 285.32V285.219H191.977V284.594C191.977 281.898 190.516 280.281 188.078 280.281C185.602 280.281 184.062 282.008 184.062 284.758C184.062 287.508 185.578 289.172 188.094 289.172C190.109 289.172 191.523 288.203 191.891 286.648H190.055ZM198.727 280.312C197.555 280.312 196.562 280.898 196.07 281.867H195.938V280.453H194.07V291.844H196.008V287.703H196.141C196.578 288.609 197.523 289.141 198.75 289.141C200.906 289.141 202.25 287.453 202.25 284.727C202.25 281.984 200.891 280.312 198.727 280.312ZM198.117 287.492C196.797 287.492 195.977 286.438 195.969 284.727C195.977 283.023 196.805 281.961 198.125 281.961C199.453 281.961 200.258 283 200.258 284.727C200.258 286.453 199.461 287.492 198.117 287.492ZM207.766 284.555C208.719 284.555 209.336 285.125 209.336 286C209.336 286.867 208.727 287.453 207.766 287.453H206.305V284.555H207.766ZM204.367 289H208C209.992 289 211.266 287.836 211.266 286.008C211.266 284.18 209.992 283.016 208 283.016H206.305V280.453H204.367V289ZM221.133 281.812C221.992 281.812 222.406 282.227 222.406 282.867C222.406 283.562 221.938 283.945 220.977 283.945H219.453V281.812H221.133ZM221.094 285.219C222.172 285.219 222.75 285.609 222.75 286.43C222.75 287.211 222.227 287.641 221.266 287.641H219.453V285.219H221.094ZM217.539 289H221.633C223.531 289 224.688 288.023 224.688 286.531C224.688 285.492 223.945 284.68 222.82 284.562V284.422C223.672 284.273 224.305 283.492 224.305 282.617C224.305 281.289 223.297 280.453 221.578 280.453H217.539V289ZM234.797 289H236.727V280.453H234.797V289ZM230.25 284.555C231.203 284.555 231.82 285.125 231.82 286C231.82 286.867 231.211 287.453 230.25 287.453H228.789V284.555H230.25ZM226.852 289H230.484C232.477 289 233.75 287.836 233.75 286.008C233.75 284.18 232.477 283.016 230.484 283.016H228.789V280.453H226.852V289ZM94.6484 303.328C94.4453 301.531 93.1172 300.281 90.9219 300.281C88.3516 300.281 86.8438 301.93 86.8438 304.703C86.8438 307.516 88.3594 309.172 90.9297 309.172C93.0938 309.172 94.4375 307.969 94.6484 306.18H92.8047C92.6016 307.07 91.9297 307.547 90.9219 307.547C89.6016 307.547 88.8047 306.5 88.8047 304.703C88.8047 302.93 89.5938 301.906 90.9219 301.906C91.9844 301.906 92.625 302.5 92.8047 303.328H94.6484ZM103.625 309V300.453H101.688V303.828C101.344 304.18 100.758 304.492 99.8906 304.492C98.8438 304.492 98.2578 303.867 98.2578 302.859V300.453H96.3203V303.016C96.3203 304.898 97.5078 306.18 99.5156 306.18C100.391 306.18 101.094 305.891 101.555 305.484H101.688V309H103.625ZM109.078 307.617C108.219 307.617 107.602 307.188 107.602 306.469C107.602 305.773 108.109 305.383 109.195 305.312L111.125 305.188V305.867C111.125 306.859 110.25 307.617 109.078 307.617ZM108.508 309.141C109.625 309.141 110.562 308.656 111.039 307.828H111.172V309H113.039V303.164C113.039 301.352 111.805 300.281 109.609 300.281C107.578 300.281 106.164 301.242 106.008 302.75H107.836C108.016 302.172 108.625 301.859 109.516 301.859C110.562 301.859 111.125 302.328 111.125 303.164V303.883L108.922 304.016C106.844 304.141 105.68 305.031 105.68 306.578C105.68 308.141 106.859 309.141 108.508 309.141ZM122.914 303.328C122.711 301.531 121.383 300.281 119.188 300.281C116.617 300.281 115.109 301.93 115.109 304.703C115.109 307.516 116.625 309.172 119.195 309.172C121.359 309.172 122.703 307.969 122.914 306.18H121.07C120.867 307.07 120.195 307.547 119.188 307.547C117.867 307.547 117.07 306.5 117.07 304.703C117.07 302.93 117.859 301.906 119.188 301.906C120.25 301.906 120.891 302.5 121.07 303.328H122.914ZM131.094 300.453H123.891V302H126.523V309H128.461V302H131.094V300.453ZM134.992 305.023L135.203 302H137.711V309H139.641V300.453H133.516L133.234 304.914C133.148 306.336 132.867 307.328 132.039 307.328C131.828 307.328 131.656 307.297 131.57 307.273V308.992C131.68 309.031 131.898 309.086 132.219 309.086C134.195 309.086 134.828 307.492 134.992 305.023ZM144.078 309L147.789 303.305H147.93V309H149.836V300.453H147.93L144.211 306.109H144.078V300.453H142.164V309H144.078ZM155.945 301.812C156.805 301.812 157.219 302.227 157.219 302.867C157.219 303.562 156.75 303.945 155.789 303.945H154.266V301.812H155.945ZM155.906 305.219C156.984 305.219 157.562 305.609 157.562 306.43C157.562 307.211 157.039 307.641 156.078 307.641H154.266V305.219H155.906ZM152.352 309H156.445C158.344 309 159.5 308.023 159.5 306.531C159.5 305.492 158.758 304.68 157.633 304.562V304.422C158.484 304.273 159.117 303.492 159.117 302.617C159.117 301.289 158.109 300.453 156.391 300.453H152.352V309ZM169.609 309H171.539V300.453H169.609V309ZM165.062 304.555C166.016 304.555 166.633 305.125 166.633 306C166.633 306.867 166.023 307.453 165.062 307.453H163.602V304.555H165.062ZM161.664 309H165.297C167.289 309 168.562 307.836 168.562 306.008C168.562 304.18 167.289 303.016 165.297 303.016H163.602V300.453H161.664V309ZM175.969 309L179.68 303.305H179.82V309H181.727V300.453H179.82L176.102 306.109H175.969V300.453H174.055V309H175.969ZM174.945 296.547C174.945 298.094 176.086 299.219 177.812 299.219C179.531 299.219 180.68 298.094 180.68 296.547H179.156C179.141 297.383 178.633 298.055 177.812 298.055C176.992 298.055 176.484 297.383 176.477 296.547H174.945ZM192.203 309.172C194.758 309.172 196.312 307.5 196.312 304.727C196.312 301.961 194.75 300.281 192.203 300.281C189.664 300.281 188.094 301.969 188.094 304.727C188.094 307.5 189.641 309.172 192.203 309.172ZM192.203 307.547C190.852 307.547 190.078 306.516 190.078 304.727C190.078 302.945 190.852 301.906 192.203 301.906C193.547 301.906 194.32 302.945 194.32 304.727C194.32 306.516 193.555 307.547 192.203 307.547ZM202.172 307.547C200.797 307.547 200.016 306.57 200.016 304.859C200.016 303.219 200.805 302.273 202.172 302.273C203.539 302.273 204.328 303.219 204.328 304.859C204.328 306.57 203.539 307.547 202.172 307.547ZM199.562 302.32C199.797 300.367 200.484 299.281 202.656 299.195L203.641 299.156C205.203 299.102 205.758 298.742 205.758 298.742V297.133C205.75 297.141 204.852 297.469 203.523 297.523L202.516 297.562C199.273 297.688 198.023 299.828 198.023 304.055C198.023 307.492 199.555 309.172 202.195 309.172C204.742 309.172 206.32 307.516 206.32 304.82C206.32 302.266 204.797 300.711 202.562 300.711C201.148 300.711 200.211 301.359 199.695 302.32H199.562ZM210.898 305.023L211.109 302H213.617V309H215.547V300.453H209.422L209.141 304.914C209.055 306.336 208.773 307.328 207.945 307.328C207.734 307.328 207.562 307.297 207.477 307.273V308.992C207.586 309.031 207.805 309.086 208.125 309.086C210.102 309.086 210.734 307.492 210.898 305.023ZM221 307.617C220.141 307.617 219.523 307.188 219.523 306.469C219.523 305.773 220.031 305.383 221.117 305.312L223.047 305.188V305.867C223.047 306.859 222.172 307.617 221 307.617ZM220.43 309.141C221.547 309.141 222.484 308.656 222.961 307.828H223.094V309H224.961V303.164C224.961 301.352 223.727 300.281 221.531 300.281C219.5 300.281 218.086 301.242 217.93 302.75H219.758C219.938 302.172 220.547 301.859 221.438 301.859C222.484 301.859 223.047 302.328 223.047 303.164V303.883L220.844 304.016C218.766 304.141 217.602 305.031 217.602 306.578C217.602 308.141 218.781 309.141 220.43 309.141ZM232.906 307.453H229.219V307.312C229.594 306.781 229.789 305.953 229.859 305.023L230.078 301.992H232.906V307.453ZM228.25 311.227V309H234.375V311.227H236.156V307.453H234.844V300.453H228.414L228.117 304.914C228.039 306.062 227.773 307.078 227.141 307.453H226.469V311.227H228.25ZM240.734 307.617C239.875 307.617 239.258 307.188 239.258 306.469C239.258 305.773 239.766 305.383 240.852 305.312L242.781 305.188V305.867C242.781 306.859 241.906 307.617 240.734 307.617ZM240.164 309.141C241.281 309.141 242.219 308.656 242.695 307.828H242.828V309H244.695V303.164C244.695 301.352 243.461 300.281 241.266 300.281C239.234 300.281 237.82 301.242 237.664 302.75H239.492C239.672 302.172 240.281 301.859 241.172 301.859C242.219 301.859 242.781 302.328 242.781 303.164V303.883L240.578 304.016C238.5 304.141 237.336 305.031 237.336 306.578C237.336 308.141 238.516 309.141 240.164 309.141ZM253.703 300.453H246.5V302H249.133V309H251.07V302H253.703V300.453ZM258.867 301.82C260.031 301.82 260.797 302.633 260.836 303.898H256.812C256.898 302.648 257.711 301.82 258.867 301.82ZM260.852 306.648C260.57 307.281 259.906 307.633 258.945 307.633C257.672 307.633 256.852 306.742 256.805 305.32V305.219H262.773V304.594C262.773 301.898 261.312 300.281 258.875 300.281C256.398 300.281 254.859 302.008 254.859 304.758C254.859 307.508 256.375 309.172 258.891 309.172C260.906 309.172 262.32 308.203 262.688 306.648H260.852ZM267.164 305.023L267.375 302H269.883V309H271.812V300.453H265.688L265.406 304.914C265.32 306.336 265.039 307.328 264.211 307.328C264 307.328 263.828 307.297 263.742 307.273V308.992C263.852 309.031 264.07 309.086 264.391 309.086C266.367 309.086 267 307.492 267.164 305.023ZM277.734 304.555C278.688 304.555 279.305 305.125 279.305 306C279.305 306.867 278.695 307.453 277.734 307.453H276.273V304.555H277.734ZM274.336 309H277.969C279.961 309 281.234 307.836 281.234 306.008C281.234 304.18 279.961 303.016 277.969 303.016H276.273V300.453H274.336V309ZM89.7734 325.023L89.9844 322H92.4922V329H94.4219V320.453H88.2969L88.0156 324.914C87.9297 326.336 87.6484 327.328 86.8203 327.328C86.6094 327.328 86.4375 327.297 86.3516 327.273V328.992C86.4609 329.031 86.6797 329.086 87 329.086C88.9766 329.086 89.6094 327.492 89.7734 325.023ZM97.8906 332.102C99.8047 332.102 100.719 331.398 101.445 329.273L104.531 320.453H102.484L100.492 327.125H100.359L98.3594 320.453H96.2344L99.2891 329.039L99.1875 329.414C98.9375 330.203 98.4766 330.516 97.6562 330.516C97.5234 330.516 97.2344 330.508 97.125 330.484V332.07C97.25 332.094 97.7734 332.102 97.8906 332.102ZM113.344 329V320.453H111.406V323.828C111.062 324.18 110.477 324.492 109.609 324.492C108.562 324.492 107.977 323.867 107.977 322.859V320.453H106.039V323.016C106.039 324.898 107.227 326.18 109.234 326.18C110.109 326.18 110.812 325.891 111.273 325.484H111.406V329H113.344ZM115.867 329H127.133V320.453H125.195V327.453H122.469V320.453H120.531V327.453H117.805V320.453H115.867V329ZM133.242 321.82C134.406 321.82 135.172 322.633 135.211 323.898H131.188C131.273 322.648 132.086 321.82 133.242 321.82ZM135.227 326.648C134.945 327.281 134.281 327.633 133.32 327.633C132.047 327.633 131.227 326.742 131.18 325.32V325.219H137.148V324.594C137.148 321.898 135.688 320.281 133.25 320.281C130.773 320.281 129.234 322.008 129.234 324.758C129.234 327.508 130.75 329.172 133.266 329.172C135.281 329.172 136.695 328.203 137.062 326.648H135.227ZM145 322V320.453H139.242V329H141.18V322H145ZM150.391 329.172C152.945 329.172 154.5 327.5 154.5 324.727C154.5 321.961 152.938 320.281 150.391 320.281C147.852 320.281 146.281 321.969 146.281 324.727C146.281 327.5 147.828 329.172 150.391 329.172ZM150.391 327.547C149.039 327.547 148.266 326.516 148.266 324.727C148.266 322.945 149.039 321.906 150.391 321.906C151.734 321.906 152.508 322.945 152.508 324.727C152.508 326.516 151.742 327.547 150.391 327.547ZM167.391 320.453H160.188V322H162.82V329H164.758V322H167.391V320.453ZM172.016 327.617C171.156 327.617 170.539 327.188 170.539 326.469C170.539 325.773 171.047 325.383 172.133 325.312L174.062 325.188V325.867C174.062 326.859 173.188 327.617 172.016 327.617ZM171.445 329.141C172.562 329.141 173.5 328.656 173.977 327.828H174.109V329H175.977V323.164C175.977 321.352 174.742 320.281 172.547 320.281C170.516 320.281 169.102 321.242 168.945 322.75H170.773C170.953 322.172 171.562 321.859 172.453 321.859C173.5 321.859 174.062 322.328 174.062 323.164V323.883L171.859 324.016C169.781 324.141 168.617 325.031 168.617 326.578C168.617 328.141 169.797 329.141 171.445 329.141ZM183.117 320.312C181.945 320.312 180.953 320.898 180.461 321.867H180.328V320.453H178.461V331.844H180.398V327.703H180.531C180.969 328.609 181.914 329.141 183.141 329.141C185.297 329.141 186.641 327.453 186.641 324.727C186.641 321.984 185.281 320.312 183.117 320.312ZM182.508 327.492C181.188 327.492 180.367 326.438 180.359 324.727C180.367 323.023 181.195 321.961 182.516 321.961C183.844 321.961 184.648 323 184.648 324.727C184.648 326.453 183.852 327.492 182.508 327.492ZM190.672 329L194.383 323.305H194.523V329H196.43V320.453H194.523L190.805 326.109H190.672V320.453H188.758V329H190.672ZM203.07 327.555C201.492 327.516 200.492 326.469 200.492 324.727C200.492 322.992 201.5 321.938 203.07 321.898V327.555ZM207.516 324.727C207.516 326.461 206.508 327.516 204.945 327.555V321.898C206.516 321.938 207.516 322.984 207.516 324.727ZM203.055 329.117V331.844H204.961V329.117C207.688 329.062 209.484 327.383 209.484 324.727C209.484 322.047 207.703 320.398 204.961 320.336V317.656H203.055V320.336C200.32 320.391 198.531 322.07 198.531 324.727C198.531 327.398 200.312 329.055 203.055 329.117ZM214.516 327.617C213.656 327.617 213.039 327.188 213.039 326.469C213.039 325.773 213.547 325.383 214.633 325.312L216.562 325.188V325.867C216.562 326.859 215.688 327.617 214.516 327.617ZM213.945 329.141C215.062 329.141 216 328.656 216.477 327.828H216.609V329H218.477V323.164C218.477 321.352 217.242 320.281 215.047 320.281C213.016 320.281 211.602 321.242 211.445 322.75H213.273C213.453 322.172 214.062 321.859 214.953 321.859C216 321.859 216.562 322.328 216.562 323.164V323.883L214.359 324.016C212.281 324.141 211.117 325.031 211.117 326.578C211.117 328.141 212.297 329.141 213.945 329.141ZM228.82 321.812C229.68 321.812 230.094 322.227 230.094 322.867C230.094 323.562 229.625 323.945 228.664 323.945H227.141V321.812H228.82ZM228.781 325.219C229.859 325.219 230.438 325.609 230.438 326.43C230.438 327.211 229.914 327.641 228.953 327.641H227.141V325.219H228.781ZM225.227 329H229.32C231.219 329 232.375 328.023 232.375 326.531C232.375 325.492 231.633 324.68 230.508 324.562V324.422C231.359 324.273 231.992 323.492 231.992 322.617C231.992 321.289 230.984 320.453 229.266 320.453H225.227V329ZM244.562 322V320.453H238.805V329H240.742V322H244.562ZM249.953 329.172C252.508 329.172 254.062 327.5 254.062 324.727C254.062 321.961 252.5 320.281 249.953 320.281C247.414 320.281 245.844 321.969 245.844 324.727C245.844 327.5 247.391 329.172 249.953 329.172ZM249.953 327.547C248.602 327.547 247.828 326.516 247.828 324.727C247.828 322.945 248.602 321.906 249.953 321.906C251.297 321.906 252.07 322.945 252.07 324.727C252.07 326.516 251.305 327.547 249.953 327.547ZM260.82 320.312C259.648 320.312 258.656 320.898 258.164 321.867H258.031V320.453H256.164V331.844H258.102V327.703H258.234C258.672 328.609 259.617 329.141 260.844 329.141C263 329.141 264.344 327.453 264.344 324.727C264.344 321.984 262.984 320.312 260.82 320.312ZM260.211 327.492C258.891 327.492 258.07 326.438 258.062 324.727C258.07 323.023 258.898 321.961 260.219 321.961C261.547 321.961 262.352 323 262.352 324.727C262.352 326.453 261.555 327.492 260.211 327.492ZM270.156 329.172C272.711 329.172 274.266 327.5 274.266 324.727C274.266 321.961 272.703 320.281 270.156 320.281C267.617 320.281 266.047 321.969 266.047 324.727C266.047 327.5 267.594 329.172 270.156 329.172ZM270.156 327.547C268.805 327.547 268.031 326.516 268.031 324.727C268.031 322.945 268.805 321.906 270.156 321.906C271.5 321.906 272.273 322.945 272.273 324.727C272.273 326.516 271.508 327.547 270.156 327.547ZM281.719 327.453H278.031V327.312C278.406 326.781 278.602 325.953 278.672 325.023L278.891 321.992H281.719V327.453ZM277.062 331.227V329H283.188V331.227H284.969V327.453H283.656V320.453H277.227L276.93 324.914C276.852 326.062 276.586 327.078 275.953 327.453H275.281V331.227H277.062ZM290.211 321.82C291.375 321.82 292.141 322.633 292.18 323.898H288.156C288.242 322.648 289.055 321.82 290.211 321.82ZM292.195 326.648C291.914 327.281 291.25 327.633 290.289 327.633C289.016 327.633 288.195 326.742 288.148 325.32V325.219H294.117V324.594C294.117 321.898 292.656 320.281 290.219 320.281C287.742 320.281 286.203 322.008 286.203 324.758C286.203 327.508 287.719 329.172 290.234 329.172C292.25 329.172 293.664 328.203 294.031 326.648H292.195ZM301.852 329.164C302.594 329.164 303.102 328.633 303.102 327.93C303.102 327.219 302.594 326.695 301.852 326.695C301.117 326.695 300.602 327.219 300.602 327.93C300.602 328.633 301.117 329.164 301.852 329.164ZM301.852 323.305C302.594 323.305 303.102 322.781 303.102 322.078C303.102 321.367 302.594 320.844 301.852 320.844C301.117 320.844 300.602 321.367 300.602 322.078C300.602 322.781 301.117 323.305 301.852 323.305ZM309.273 324.281C309.273 321.414 308.523 319.055 306.992 317.148H305.242C306.375 318.586 307.273 321.578 307.273 324.273C307.273 326.977 306.383 329.961 305.242 331.414H306.992C308.531 329.492 309.273 327.125 309.273 324.281Z" fill="black"/>
<path d="M305 127.5C328.333 118.5 366.3 124.8 365.5 138M287.5 177.5C298.7 180.3 309.833 188.5 317 195.5M281.5 52C285.5 42.3333 303.8 28.5 313 28.5M185 39.5L192 0.5M68 68.5C57 64.5 51.5 60 37 57.5M58.5 133C34.5 132 16.5 137 0.5 146" stroke="#EE3C6B" stroke-width="2"/>
<defs>
<filter id="filter0_di" x="93.7695" y="78.1348" width="168.727" height="162.265" filterUnits="userSpaceOnUse" color-interpolation-filters="sRGB">
<feFlood flood-opacity="0" result="BackgroundImageFix"/>
<feColorMatrix in="SourceAlpha" type="matrix" values="0 0 0 0 0 0 0 0 0 0 0 0 0 0 0 0 0 0 127 0"/>
<feOffset dy="1"/>
<feColorMatrix type="matrix" values="0 0 0 0 0.876333 0 0 0 0 0.87824 0 0 0 0 0.88 0 0 0 0.4 0"/>
<feBlend mode="normal" in2="BackgroundImageFix" result="effect1_dropShadow"/>
<feBlend mode="normal" in="SourceGraphic" in2="effect1_dropShadow" result="shape"/>
<feColorMatrix in="SourceAlpha" type="matrix" values="0 0 0 0 0 0 0 0 0 0 0 0 0 0 0 0 0 0 127 0" result="hardAlpha"/>
<feOffset dy="1"/>
<feGaussianBlur stdDeviation="2"/>
<feComposite in2="hardAlpha" operator="arithmetic" k2="-1" k3="1"/>
<feColorMatrix type="matrix" values="0 0 0 0 0 0 0 0 0 0 0 0 0 0 0 0 0 0 0.15 0"/>
<feBlend mode="normal" in2="shape" result="effect2_innerShadow"/>
</filter>
<filter id="filter1_diii" x="221.453" y="58.5562" width="61.9843" height="63.9578" filterUnits="userSpaceOnUse" color-interpolation-filters="sRGB">
<feFlood flood-opacity="0" result="BackgroundImageFix"/>
<feColorMatrix in="SourceAlpha" type="matrix" values="0 0 0 0 0 0 0 0 0 0 0 0 0 0 0 0 0 0 127 0"/>
<feOffset dy="1"/>
<feColorMatrix type="matrix" values="0 0 0 0 1 0 0 0 0 1 0 0 0 0 1 0 0 0 1 0"/>
<feBlend mode="normal" in2="BackgroundImageFix" result="effect1_dropShadow"/>
<feBlend mode="normal" in="SourceGraphic" in2="effect1_dropShadow" result="shape"/>
<feColorMatrix in="SourceAlpha" type="matrix" values="0 0 0 0 0 0 0 0 0 0 0 0 0 0 0 0 0 0 127 0" result="hardAlpha"/>
<feOffset dy="0.6"/>
<feComposite in2="hardAlpha" operator="arithmetic" k2="-1" k3="1"/>
<feColorMatrix type="matrix" values="0 0 0 0 0 0 0 0 0 0 0 0 0 0 0 0 0 0 0.15 0"/>
<feBlend mode="normal" in2="shape" result="effect2_innerShadow"/>
<feColorMatrix in="SourceAlpha" type="matrix" values="0 0 0 0 0 0 0 0 0 0 0 0 0 0 0 0 0 0 127 0" result="hardAlpha"/>
<feOffset dy="2"/>
<feGaussianBlur stdDeviation="1"/>
<feComposite in2="hardAlpha" operator="arithmetic" k2="-1" k3="1"/>
<feColorMatrix type="matrix" values="0 0 0 0 0.766667 0 0 0 0 0.233194 0 0 0 0 0.375042 0 0 0 0.79 0"/>
<feBlend mode="normal" in2="effect2_innerShadow" result="effect3_innerShadow"/>
<feColorMatrix in="SourceAlpha" type="matrix" values="0 0 0 0 0 0 0 0 0 0 0 0 0 0 0 0 0 0 127 0" result="hardAlpha"/>
<feOffset dy="1"/>
<feComposite in2="hardAlpha" operator="arithmetic" k2="-1" k3="1"/>
<feColorMatrix type="matrix" values="0 0 0 0 0 0 0 0 0 0 0 0 0 0 0 0 0 0 0.15 0"/>
<feBlend mode="normal" in2="effect3_innerShadow" result="effect4_innerShadow"/>
</filter>
<filter id="filter2_diii" x="144.235" y="192.258" width="68.6087" height="30.8312" filterUnits="userSpaceOnUse" color-interpolation-filters="sRGB">
<feFlood flood-opacity="0" result="BackgroundImageFix"/>
<feColorMatrix in="SourceAlpha" type="matrix" values="0 0 0 0 0 0 0 0 0 0 0 0 0 0 0 0 0 0 127 0"/>
<feOffset dy="1"/>
<feColorMatrix type="matrix" values="0 0 0 0 1 0 0 0 0 1 0 0 0 0 1 0 0 0 1 0"/>
<feBlend mode="normal" in2="BackgroundImageFix" result="effect1_dropShadow"/>
<feBlend mode="normal" in="SourceGraphic" in2="effect1_dropShadow" result="shape"/>
<feColorMatrix in="SourceAlpha" type="matrix" values="0 0 0 0 0 0 0 0 0 0 0 0 0 0 0 0 0 0 127 0" result="hardAlpha"/>
<feOffset dy="0.6"/>
<feComposite in2="hardAlpha" operator="arithmetic" k2="-1" k3="1"/>
<feColorMatrix type="matrix" values="0 0 0 0 0 0 0 0 0 0 0 0 0 0 0 0 0 0 0.15 0"/>
<feBlend mode="normal" in2="shape" result="effect2_innerShadow"/>
<feColorMatrix in="SourceAlpha" type="matrix" values="0 0 0 0 0 0 0 0 0 0 0 0 0 0 0 0 0 0 127 0" result="hardAlpha"/>
<feOffset dy="2"/>
<feGaussianBlur stdDeviation="1"/>
<feComposite in2="hardAlpha" operator="arithmetic" k2="-1" k3="1"/>
<feColorMatrix type="matrix" values="0 0 0 0 0.766667 0 0 0 0 0.233194 0 0 0 0 0.375042 0 0 0 0.79 0"/>
<feBlend mode="normal" in2="effect2_innerShadow" result="effect3_innerShadow"/>
<feColorMatrix in="SourceAlpha" type="matrix" values="0 0 0 0 0 0 0 0 0 0 0 0 0 0 0 0 0 0 127 0" result="hardAlpha"/>
<feOffset dy="1"/>
<feComposite in2="hardAlpha" operator="arithmetic" k2="-1" k3="1"/>
<feColorMatrix type="matrix" values="0 0 0 0 0 0 0 0 0 0 0 0 0 0 0 0 0 0 0.15 0"/>
<feBlend mode="normal" in2="effect3_innerShadow" result="effect4_innerShadow"/>
</filter>
<filter id="filter3_diii" x="143.185" y="165.608" width="30.1199" height="13.8057" filterUnits="userSpaceOnUse" color-interpolation-filters="sRGB">
<feFlood flood-opacity="0" result="BackgroundImageFix"/>
<feColorMatrix in="SourceAlpha" type="matrix" values="0 0 0 0 0 0 0 0 0 0 0 0 0 0 0 0 0 0 127 0"/>
<feOffset dy="1"/>
<feColorMatrix type="matrix" values="0 0 0 0 1 0 0 0 0 1 0 0 0 0 1 0 0 0 1 0"/>
<feBlend mode="normal" in2="BackgroundImageFix" result="effect1_dropShadow"/>
<feBlend mode="normal" in="SourceGraphic" in2="effect1_dropShadow" result="shape"/>
<feColorMatrix in="SourceAlpha" type="matrix" values="0 0 0 0 0 0 0 0 0 0 0 0 0 0 0 0 0 0 127 0" result="hardAlpha"/>
<feOffset dy="0.6"/>
<feComposite in2="hardAlpha" operator="arithmetic" k2="-1" k3="1"/>
<feColorMatrix type="matrix" values="0 0 0 0 0 0 0 0 0 0 0 0 0 0 0 0 0 0 0.15 0"/>
<feBlend mode="normal" in2="shape" result="effect2_innerShadow"/>
<feColorMatrix in="SourceAlpha" type="matrix" values="0 0 0 0 0 0 0 0 0 0 0 0 0 0 0 0 0 0 127 0" result="hardAlpha"/>
<feOffset dy="2"/>
<feGaussianBlur stdDeviation="1"/>
<feComposite in2="hardAlpha" operator="arithmetic" k2="-1" k3="1"/>
<feColorMatrix type="matrix" values="0 0 0 0 0.766667 0 0 0 0 0.233194 0 0 0 0 0.375042 0 0 0 0.79 0"/>
<feBlend mode="normal" in2="effect2_innerShadow" result="effect3_innerShadow"/>
<feColorMatrix in="SourceAlpha" type="matrix" values="0 0 0 0 0 0 0 0 0 0 0 0 0 0 0 0 0 0 127 0" result="hardAlpha"/>
<feOffset dy="1"/>
<feComposite in2="hardAlpha" operator="arithmetic" k2="-1" k3="1"/>
<feColorMatrix type="matrix" values="0 0 0 0 0 0 0 0 0 0 0 0 0 0 0 0 0 0 0.15 0"/>
<feBlend mode="normal" in2="effect3_innerShadow" result="effect4_innerShadow"/>
</filter>
<filter id="filter4_diii" x="183.013" y="165.608" width="29.8719" height="13.7027" filterUnits="userSpaceOnUse" color-interpolation-filters="sRGB">
<feFlood flood-opacity="0" result="BackgroundImageFix"/>
<feColorMatrix in="SourceAlpha" type="matrix" values="0 0 0 0 0 0 0 0 0 0 0 0 0 0 0 0 0 0 127 0"/>
<feOffset dy="1"/>
<feColorMatrix type="matrix" values="0 0 0 0 1 0 0 0 0 1 0 0 0 0 1 0 0 0 1 0"/>
<feBlend mode="normal" in2="BackgroundImageFix" result="effect1_dropShadow"/>
<feBlend mode="normal" in="SourceGraphic" in2="effect1_dropShadow" result="shape"/>
<feColorMatrix in="SourceAlpha" type="matrix" values="0 0 0 0 0 0 0 0 0 0 0 0 0 0 0 0 0 0 127 0" result="hardAlpha"/>
<feOffset dy="0.6"/>
<feComposite in2="hardAlpha" operator="arithmetic" k2="-1" k3="1"/>
<feColorMatrix type="matrix" values="0 0 0 0 0 0 0 0 0 0 0 0 0 0 0 0 0 0 0.15 0"/>
<feBlend mode="normal" in2="shape" result="effect2_innerShadow"/>
<feColorMatrix in="SourceAlpha" type="matrix" values="0 0 0 0 0 0 0 0 0 0 0 0 0 0 0 0 0 0 127 0" result="hardAlpha"/>
<feOffset dy="2"/>
<feGaussianBlur stdDeviation="1"/>
<feComposite in2="hardAlpha" operator="arithmetic" k2="-1" k3="1"/>
<feColorMatrix type="matrix" values="0 0 0 0 0.766667 0 0 0 0 0.233194 0 0 0 0 0.375042 0 0 0 0.79 0"/>
<feBlend mode="normal" in2="effect2_innerShadow" result="effect3_innerShadow"/>
<feColorMatrix in="SourceAlpha" type="matrix" values="0 0 0 0 0 0 0 0 0 0 0 0 0 0 0 0 0 0 127 0" result="hardAlpha"/>
<feOffset dy="1"/>
<feComposite in2="hardAlpha" operator="arithmetic" k2="-1" k3="1"/>
<feColorMatrix type="matrix" values="0 0 0 0 0 0 0 0 0 0 0 0 0 0 0 0 0 0 0.15 0"/>
<feBlend mode="normal" in2="effect3_innerShadow" result="effect4_innerShadow"/>
</filter>
<filter id="filter5_di" x="102.749" y="50.894" width="63.8522" height="83.9204" filterUnits="userSpaceOnUse" color-interpolation-filters="sRGB">
<feFlood flood-opacity="0" result="BackgroundImageFix"/>
<feColorMatrix in="SourceAlpha" type="matrix" values="0 0 0 0 0 0 0 0 0 0 0 0 0 0 0 0 0 0 127 0"/>
<feOffset dy="3"/>
<feGaussianBlur stdDeviation="1.5"/>
<feColorMatrix type="matrix" values="0 0 0 0 0.876333 0 0 0 0 0.87824 0 0 0 0 0.88 0 0 0 1 0"/>
<feBlend mode="normal" in2="BackgroundImageFix" result="effect1_dropShadow"/>
<feBlend mode="normal" in="SourceGraphic" in2="effect1_dropShadow" result="shape"/>
<feColorMatrix in="SourceAlpha" type="matrix" values="0 0 0 0 0 0 0 0 0 0 0 0 0 0 0 0 0 0 127 0" result="hardAlpha"/>
<feOffset/>
<feGaussianBlur stdDeviation="1.5"/>
<feComposite in2="hardAlpha" operator="arithmetic" k2="-1" k3="1"/>
<feColorMatrix type="matrix" values="0 0 0 0 0 0 0 0 0 0 0 0 0 0 0 0 0 0 0.18 0"/>
<feBlend mode="normal" in2="shape" result="effect2_innerShadow"/>
</filter>
<filter id="filter6_d" x="102.75" y="50.894" width="63.8522" height="77.4503" filterUnits="userSpaceOnUse" color-interpolation-filters="sRGB">
<feFlood flood-opacity="0" result="BackgroundImageFix"/>
<feColorMatrix in="SourceAlpha" type="matrix" values="0 0 0 0 0 0 0 0 0 0 0 0 0 0 0 0 0 0 127 0"/>
<feOffset dy="3"/>
<feGaussianBlur stdDeviation="1.5"/>
<feColorMatrix type="matrix" values="0 0 0 0 0.775 0 0 0 0 0.174375 0 0 0 0 0.332115 0 0 0 1 0"/>
<feBlend mode="normal" in2="BackgroundImageFix" result="effect1_dropShadow"/>
<feBlend mode="normal" in="SourceGraphic" in2="effect1_dropShadow" result="shape"/>
</filter>
<filter id="filter7_di" x="87.5674" y="36.6714" width="33.9939" height="34.1971" filterUnits="userSpaceOnUse" color-interpolation-filters="sRGB">
<feFlood flood-opacity="0" result="BackgroundImageFix"/>
<feColorMatrix in="SourceAlpha" type="matrix" values="0 0 0 0 0 0 0 0 0 0 0 0 0 0 0 0 0 0 127 0"/>
<feOffset dy="3"/>
<feGaussianBlur stdDeviation="1.5"/>
<feColorMatrix type="matrix" values="0 0 0 0 0.972549 0 0 0 0 0.180392 0 0 0 0 0.388235 0 0 0 0.1 0"/>
<feBlend mode="normal" in2="BackgroundImageFix" result="effect1_dropShadow"/>
<feBlend mode="normal" in="SourceGraphic" in2="effect1_dropShadow" result="shape"/>
<feColorMatrix in="SourceAlpha" type="matrix" values="0 0 0 0 0 0 0 0 0 0 0 0 0 0 0 0 0 0 127 0" result="hardAlpha"/>
<feOffset/>
<feGaussianBlur stdDeviation="1.5"/>
<feComposite in2="hardAlpha" operator="arithmetic" k2="-1" k3="1"/>
<feColorMatrix type="matrix" values="0 0 0 0 0 0 0 0 0 0 0 0 0 0 0 0 0 0 0.18 0"/>
<feBlend mode="normal" in2="shape" result="effect2_innerShadow"/>
</filter>
<filter id="filter8_d" x="96.9072" y="36.6714" width="23.6547" height="24.5737" filterUnits="userSpaceOnUse" color-interpolation-filters="sRGB">
<feFlood flood-opacity="0" result="BackgroundImageFix"/>
<feColorMatrix in="SourceAlpha" type="matrix" values="0 0 0 0 0 0 0 0 0 0 0 0 0 0 0 0 0 0 127 0"/>
<feOffset dy="2"/>
<feGaussianBlur stdDeviation="1"/>
<feColorMatrix type="matrix" values="0 0 0 0 0.775 0 0 0 0 0.174375 0 0 0 0 0.332115 0 0 0 0.3 0"/>
<feBlend mode="normal" in2="BackgroundImageFix" result="effect1_dropShadow"/>
<feBlend mode="normal" in="SourceGraphic" in2="effect1_dropShadow" result="shape"/>
</filter>
<filter id="filter9_di" x="106.519" y="91.6353" width="60.0827" height="43.1797" filterUnits="userSpaceOnUse" color-interpolation-filters="sRGB">
<feFlood flood-opacity="0" result="BackgroundImageFix"/>
<feColorMatrix in="SourceAlpha" type="matrix" values="0 0 0 0 0 0 0 0 0 0 0 0 0 0 0 0 0 0 127 0"/>
<feOffset dy="3"/>
<feGaussianBlur stdDeviation="1.5"/>
<feColorMatrix type="matrix" values="0 0 0 0 0.876333 0 0 0 0 0.87824 0 0 0 0 0.88 0 0 0 1 0"/>
<feBlend mode="normal" in2="BackgroundImageFix" result="effect1_dropShadow"/>
<feBlend mode="normal" in="SourceGraphic" in2="effect1_dropShadow" result="shape"/>
<feColorMatrix in="SourceAlpha" type="matrix" values="0 0 0 0 0 0 0 0 0 0 0 0 0 0 0 0 0 0 127 0" result="hardAlpha"/>
<feOffset/>
<feGaussianBlur stdDeviation="1.5"/>
<feComposite in2="hardAlpha" operator="arithmetic" k2="-1" k3="1"/>
<feColorMatrix type="matrix" values="0 0 0 0 0 0 0 0 0 0 0 0 0 0 0 0 0 0 0.18 0"/>
<feBlend mode="normal" in2="shape" result="effect2_innerShadow"/>
</filter>
<filter id="filter10_d" x="128.784" y="91.6001" width="37.7804" height="36.8696" filterUnits="userSpaceOnUse" color-interpolation-filters="sRGB">
<feFlood flood-opacity="0" result="BackgroundImageFix"/>
<feColorMatrix in="SourceAlpha" type="matrix" values="0 0 0 0 0 0 0 0 0 0 0 0 0 0 0 0 0 0 127 0"/>
<feOffset dy="3"/>
<feGaussianBlur stdDeviation="1.5"/>
<feColorMatrix type="matrix" values="0 0 0 0 0.775 0 0 0 0 0.174375 0 0 0 0 0.332115 0 0 0 1 0"/>
<feBlend mode="normal" in2="BackgroundImageFix" result="effect1_dropShadow"/>
<feBlend mode="normal" in="SourceGraphic" in2="effect1_dropShadow" result="shape"/>
</filter>
<filter id="filter11_d" x="104.811" y="73.1704" width="48.9016" height="44.2815" filterUnits="userSpaceOnUse" color-interpolation-filters="sRGB">
<feFlood flood-opacity="0" result="BackgroundImageFix"/>
<feColorMatrix in="SourceAlpha" type="matrix" values="0 0 0 0 0 0 0 0 0 0 0 0 0 0 0 0 0 0 127 0"/>
<feOffset dy="3"/>
<feGaussianBlur stdDeviation="1.5"/>
<feColorMatrix type="matrix" values="0 0 0 0 0.775 0 0 0 0 0.174375 0 0 0 0 0.332115 0 0 0 0.1 0"/>
<feBlend mode="normal" in2="BackgroundImageFix" result="effect1_dropShadow"/>
<feBlend mode="normal" in="SourceGraphic" in2="effect1_dropShadow" result="shape"/>
</filter>
<filter id="filter12_di" x="116.601" y="73.1699" width="37.1112" height="37.856" filterUnits="userSpaceOnUse" color-interpolation-filters="sRGB">
<feFlood flood-opacity="0" result="BackgroundImageFix"/>
<feColorMatrix in="SourceAlpha" type="matrix" values="0 0 0 0 0 0 0 0 0 0 0 0 0 0 0 0 0 0 127 0"/>
<feOffset dy="3"/>
<feGaussianBlur stdDeviation="1.5"/>
<feColorMatrix type="matrix" values="0 0 0 0 0.775 0 0 0 0 0.174375 0 0 0 0 0.332115 0 0 0 1 0"/>
<feBlend mode="normal" in2="BackgroundImageFix" result="effect1_dropShadow"/>
<feBlend mode="normal" in="SourceGraphic" in2="effect1_dropShadow" result="shape"/>
<feColorMatrix in="SourceAlpha" type="matrix" values="0 0 0 0 0 0 0 0 0 0 0 0 0 0 0 0 0 0 127 0" result="hardAlpha"/>
<feOffset/>
<feGaussianBlur stdDeviation="1.5"/>
<feComposite in2="hardAlpha" operator="arithmetic" k2="-1" k3="1"/>
<feColorMatrix type="matrix" values="0 0 0 0 0 0 0 0 0 0 0 0 0 0 0 0 0 0 0.18 0"/>
<feBlend mode="normal" in2="shape" result="effect2_innerShadow"/>
</filter>
<linearGradient id="paint0_linear" x1="231" y1="115" x2="87.9577" y2="129.386" gradientUnits="userSpaceOnUse">
<stop stop-color="#F7F9FC"/>
<stop offset="1" stop-color="#E1E7EB"/>
</linearGradient>
<linearGradient id="paint1_linear" x1="136.554" y1="22.5844" x2="71.2401" y2="66.2471" gradientUnits="userSpaceOnUse">
<stop stop-color="#FCFEFF"/>
<stop offset="1" stop-color="#E7EAEC"/>
</linearGradient>
<linearGradient id="paint2_linear" x1="105.749" y1="50.8941" x2="140.122" y2="122.344" gradientUnits="userSpaceOnUse">
<stop stop-color="#E73564"/>
<stop offset="1" stop-color="#FE2B63"/>
</linearGradient>
<linearGradient id="paint3_linear" x1="131.768" y1="24.8873" x2="97.4072" y2="44.5237" gradientUnits="userSpaceOnUse">
<stop stop-color="#FCFEFF"/>
<stop offset="1" stop-color="#E7EAEC"/>
</linearGradient>
<linearGradient id="paint4_linear" x1="119.001" y1="44.5195" x2="153.373" y2="115.97" gradientUnits="userSpaceOnUse">
<stop stop-color="#E73564"/>
<stop offset="1" stop-color="#FE2B63"/>
</linearGradient>
<linearGradient id="paint5_linear" x1="114.56" y1="24.5369" x2="84.5272" y2="47.2157" gradientUnits="userSpaceOnUse">
<stop stop-color="#FCFEFF"/>
<stop offset="1" stop-color="#E7EAEC"/>
</linearGradient>
<linearGradient id="paint6_linear" x1="98.9072" y1="36.6713" x2="110.638" y2="61.0568" gradientUnits="userSpaceOnUse">
<stop stop-color="#E73564"/>
<stop offset="1" stop-color="#FE2B63"/>
</linearGradient>
<linearGradient id="paint7_linear" x1="112.245" y1="25.6509" x2="95.9495" y2="35.6096" gradientUnits="userSpaceOnUse">
<stop stop-color="#FCFEFF"/>
<stop offset="1" stop-color="#E7EAEC"/>
</linearGradient>
<linearGradient id="paint8_linear" x1="105.317" y1="33.5876" x2="117.049" y2="57.973" gradientUnits="userSpaceOnUse">
<stop stop-color="#E73564"/>
<stop offset="1" stop-color="#FE2B63"/>
</linearGradient>
<linearGradient id="paint9_linear" x1="164.656" y1="80.9995" x2="120.408" y2="136.954" gradientUnits="userSpaceOnUse">
<stop stop-color="#FCFEFF"/>
<stop offset="1" stop-color="#E7EAEC"/>
</linearGradient>
<linearGradient id="paint10_linear" x1="130.115" y1="101.543" x2="140.122" y2="122.345" gradientUnits="userSpaceOnUse">
<stop stop-color="#E73564"/>
<stop offset="1" stop-color="#FE2B63"/>
</linearGradient>
<linearGradient id="paint11_linear" x1="159.884" y1="83.0967" x2="129.836" y2="107.66" gradientUnits="userSpaceOnUse">
<stop stop-color="#FCFEFF"/>
<stop offset="1" stop-color="#E7EAEC"/>
</linearGradient>
<linearGradient id="paint12_linear" x1="143.29" y1="95.0666" x2="153.449" y2="116.184" gradientUnits="userSpaceOnUse">
<stop stop-color="#E73564"/>
<stop offset="1" stop-color="#FE2B63"/>
</linearGradient>
<linearGradient id="paint13_linear" x1="145.16" y1="61.0463" x2="101.429" y2="100.808" gradientUnits="userSpaceOnUse">
<stop stop-color="#FCFEFF"/>
<stop offset="1" stop-color="#E7EAEC"/>
</linearGradient>
<linearGradient id="paint14_linear" x1="119.072" y1="78.588" x2="131.791" y2="105.026" gradientUnits="userSpaceOnUse">
<stop stop-color="#E73564"/>
<stop offset="1" stop-color="#FE2B63"/>
</linearGradient>
<linearGradient id="paint15_linear" x1="141.439" y1="62.836" x2="116.203" y2="79.9625" gradientUnits="userSpaceOnUse">
<stop stop-color="#FCFEFF"/>
<stop offset="1" stop-color="#E7EAEC"/>
</linearGradient>
<linearGradient id="paint16_linear" x1="129.371" y1="73.6336" x2="142.089" y2="100.072" gradientUnits="userSpaceOnUse">
<stop stop-color="#E73564"/>
<stop offset="1" stop-color="#FE2B63"/>
</linearGradient>
<clipPath id="clip0">
<rect width="95.2972" height="95.2972" fill="white" transform="translate(56 57.313) rotate(-25.6911)"/>
</clipPath>
</defs>
</svg>
