<svg width="180" height="94" viewBox="0 0 180 94" fill="none" xmlns="http://www.w3.org/2000/svg">
<g id="Frame 102">
<g id="Frame 103">
<g id="Union">
<path d="M16.791 63.1138L16.876 62.6211L16.8338 62.6138H16.791H13C11.067 62.6138 9.5 61.0468 9.5 59.1138V15C9.5 13.067 11.067 11.5 13 11.5H89C90.933 11.5 92.5 13.067 92.5 15V62.6138H27.715H27.5207L27.3774 62.745L20.1356 69.3737C20.3309 68.4573 20.4533 67.2668 20.2252 66.0144C19.9612 64.5645 19.1203 63.7083 18.3539 63.2249C17.974 62.9852 17.6117 62.8361 17.3437 62.7465C17.2092 62.7015 17.0971 62.671 17.0164 62.6514C16.976 62.6415 16.9434 62.6344 16.9196 62.6295L16.8908 62.6238L16.8816 62.6221L16.8783 62.6215L16.877 62.6213L16.8765 62.6212C16.8762 62.6212 16.876 62.6211 16.791 63.1138Z" fill="#F7F7F7"/>
<path d="M16.791 63.1138L16.876 62.6211L16.8338 62.6138H16.791H13C11.067 62.6138 9.5 61.0468 9.5 59.1138V15C9.5 13.067 11.067 11.5 13 11.5H89C90.933 11.5 92.5 13.067 92.5 15V62.6138H27.715H27.5207L27.3774 62.745L20.1356 69.3737C20.3309 68.4573 20.4533 67.2668 20.2252 66.0144C19.9612 64.5645 19.1203 63.7083 18.3539 63.2249C17.974 62.9852 17.6117 62.8361 17.3437 62.7465C17.2092 62.7015 17.0971 62.671 17.0164 62.6514C16.976 62.6415 16.9434 62.6344 16.9196 62.6295L16.8908 62.6238L16.8816 62.6221L16.8783 62.6215L16.877 62.6213L16.8765 62.6212C16.8762 62.6212 16.876 62.6211 16.791 63.1138Z" fill="url(#paint0_linear)"/>
<path d="M16.791 63.1138L16.876 62.6211L16.8338 62.6138H16.791H13C11.067 62.6138 9.5 61.0468 9.5 59.1138V15C9.5 13.067 11.067 11.5 13 11.5H89C90.933 11.5 92.5 13.067 92.5 15V62.6138H27.715H27.5207L27.3774 62.745L20.1356 69.3737C20.3309 68.4573 20.4533 67.2668 20.2252 66.0144C19.9612 64.5645 19.1203 63.7083 18.3539 63.2249C17.974 62.9852 17.6117 62.8361 17.3437 62.7465C17.2092 62.7015 17.0971 62.671 17.0164 62.6514C16.976 62.6415 16.9434 62.6344 16.9196 62.6295L16.8908 62.6238L16.8816 62.6221L16.8783 62.6215L16.877 62.6213L16.8765 62.6212C16.8762 62.6212 16.876 62.6211 16.791 63.1138Z" fill="url(#paint1_linear)"/>
<path d="M16.791 63.1138L16.876 62.6211L16.8338 62.6138H16.791H13C11.067 62.6138 9.5 61.0468 9.5 59.1138V15C9.5 13.067 11.067 11.5 13 11.5H89C90.933 11.5 92.5 13.067 92.5 15V62.6138H27.715H27.5207L27.3774 62.745L20.1356 69.3737C20.3309 68.4573 20.4533 67.2668 20.2252 66.0144C19.9612 64.5645 19.1203 63.7083 18.3539 63.2249C17.974 62.9852 17.6117 62.8361 17.3437 62.7465C17.2092 62.7015 17.0971 62.671 17.0164 62.6514C16.976 62.6415 16.9434 62.6344 16.9196 62.6295L16.8908 62.6238L16.8816 62.6221L16.8783 62.6215L16.877 62.6213L16.8765 62.6212C16.8762 62.6212 16.876 62.6211 16.791 63.1138Z" stroke="white"/>
</g>
<g id="Ellipse 45" filter="url(#filter0_diii)">
<circle cx="27" cy="39" r="6" fill="white"/>
<circle cx="27" cy="39" r="6.15" stroke="#FF96B2" stroke-width="0.3"/>
</g>
<g id="Ellipse 46" filter="url(#filter1_diii)">
<circle cx="49" cy="39" r="6" fill="white"/>
<circle cx="49" cy="39" r="6.15" stroke="#FF96B2" stroke-width="0.3"/>
</g>
<g id="Ellipse 47" filter="url(#filter2_diii)">
<circle cx="71" cy="39" r="6" fill="white"/>
<circle cx="71" cy="39" r="6.15" stroke="#FF96B2" stroke-width="0.3"/>
</g>
</g>
<path id="Union_2" d="M156.887 75.6508L156.896 75.6515H158C159.933 75.6515 161.5 74.0845 161.5 72.1515V25C161.5 23.067 159.933 21.5 158 21.5H84C82.067 21.5 80.5 23.067 80.5 25V72.1515C80.5 74.0845 82.067 75.6515 84 75.6515H132.958H133.169L133.316 75.8019L146.123 88.8978C145.904 88.2751 145.669 87.558 145.45 86.7883C145.098 85.5521 144.784 84.1703 144.64 82.8201C144.496 81.4758 144.517 80.1278 144.865 78.9767L144.874 78.9461L144.887 78.917C145.392 77.7891 146.469 77.0593 147.683 76.5812C148.905 76.0998 150.344 75.8417 151.701 75.707C153.061 75.5718 154.364 75.5586 155.324 75.5787C155.805 75.5888 156.201 75.6073 156.478 75.6234C156.617 75.6314 156.726 75.6388 156.801 75.6442C156.838 75.647 156.867 75.6492 156.887 75.6508Z" fill="url(#paint2_linear)" stroke="white"/>
<g id="Ellipse 49" filter="url(#filter3_diii)">
<circle cx="109" cy="37" r="6" fill="#EE3C6B"/>
<circle cx="109" cy="37" r="6.15" stroke="#FF96B2" stroke-width="0.3"/>
</g>
<g id="Ellipse 50" filter="url(#filter4_diii)">
<circle cx="133" cy="37" r="6" fill="#EE3C6B"/>
<circle cx="133" cy="37" r="6.15" stroke="#FF96B2" stroke-width="0.3"/>
</g>
<g id="Ellipse 53 (Stroke)" filter="url(#filter5_diii)">
<path fill-rule="evenodd" clip-rule="evenodd" d="M129.546 60.5459C131.235 58.8572 132.43 56.7672 133.038 54.5L106.962 54.5C107.57 56.7672 108.765 58.8572 110.454 60.5459C112.986 63.0777 116.42 64.5 120 64.5C123.58 64.5 127.014 63.0777 129.546 60.5459ZM103.364 54.5C103.124 53.3576 103 52.1852 103 51L137 51C137 52.1852 136.876 53.3576 136.636 54.5C135.962 57.7035 134.371 60.6707 132.021 63.0208C128.833 66.2089 124.509 68 120 68C115.491 68 111.167 66.2089 107.979 63.0208C105.629 60.6708 104.038 57.7035 103.364 54.5Z" fill="#EE3C6B"/>
<path d="M103 50.85L102.85 50.85V51C102.85 52.1956 102.975 53.3784 103.217 54.5309C103.897 57.7626 105.502 60.7561 107.873 63.1269C111.089 66.3431 115.452 68.15 120 68.15C124.548 68.15 128.911 66.3431 132.127 63.1269C134.498 60.7561 136.103 57.7626 136.783 54.5309C137.025 53.3784 137.15 52.1956 137.15 51V50.85L137 50.85L103 50.85ZM107.159 54.65L132.841 54.65C132.225 56.8192 131.063 58.8169 129.44 60.4399C126.936 62.9435 123.541 64.35 120 64.35C116.459 64.35 113.064 62.9435 110.56 60.4399C108.937 58.8169 107.775 56.8192 107.159 54.65Z" stroke="#FF96B2" stroke-width="0.3"/>
</g>
</g>
<defs>
<filter id="filter0_diii" x="20.7" y="32.7" width="12.6" height="14.6" filterUnits="userSpaceOnUse" color-interpolation-filters="sRGB">
<feFlood flood-opacity="0" result="BackgroundImageFix"/>
<feColorMatrix in="SourceAlpha" type="matrix" values="0 0 0 0 0 0 0 0 0 0 0 0 0 0 0 0 0 0 127 0"/>
<feOffset dy="0.2"/>
<feColorMatrix type="matrix" values="0 0 0 0 1 0 0 0 0 1 0 0 0 0 1 0 0 0 0.5 0"/>
<feBlend mode="normal" in2="BackgroundImageFix" result="effect1_dropShadow"/>
<feBlend mode="normal" in="SourceGraphic" in2="effect1_dropShadow" result="shape"/>
<feColorMatrix in="SourceAlpha" type="matrix" values="0 0 0 0 0 0 0 0 0 0 0 0 0 0 0 0 0 0 127 0" result="hardAlpha"/>
<feOffset dy="0.6"/>
<feComposite in2="hardAlpha" operator="arithmetic" k2="-1" k3="1"/>
<feColorMatrix type="matrix" values="0 0 0 0 0 0 0 0 0 0 0 0 0 0 0 0 0 0 0.15 0"/>
<feBlend mode="normal" in2="shape" result="effect2_innerShadow"/>
<feColorMatrix in="SourceAlpha" type="matrix" values="0 0 0 0 0 0 0 0 0 0 0 0 0 0 0 0 0 0 127 0" result="hardAlpha"/>
<feOffset dy="2"/>
<feGaussianBlur stdDeviation="1.5"/>
<feComposite in2="hardAlpha" operator="arithmetic" k2="-1" k3="1"/>
<feColorMatrix type="matrix" values="0 0 0 0 0.766667 0 0 0 0 0.233194 0 0 0 0 0.375042 0 0 0 0.79 0"/>
<feBlend mode="normal" in2="effect2_innerShadow" result="effect3_innerShadow"/>
<feColorMatrix in="SourceAlpha" type="matrix" values="0 0 0 0 0 0 0 0 0 0 0 0 0 0 0 0 0 0 127 0" result="hardAlpha"/>
<feOffset dy="1"/>
<feComposite in2="hardAlpha" operator="arithmetic" k2="-1" k3="1"/>
<feColorMatrix type="matrix" values="0 0 0 0 0 0 0 0 0 0 0 0 0 0 0 0 0 0 0.15 0"/>
<feBlend mode="normal" in2="effect3_innerShadow" result="effect4_innerShadow"/>
</filter>
<filter id="filter1_diii" x="42.7" y="32.7" width="12.6" height="14.6" filterUnits="userSpaceOnUse" color-interpolation-filters="sRGB">
<feFlood flood-opacity="0" result="BackgroundImageFix"/>
<feColorMatrix in="SourceAlpha" type="matrix" values="0 0 0 0 0 0 0 0 0 0 0 0 0 0 0 0 0 0 127 0"/>
<feOffset dy="0.2"/>
<feColorMatrix type="matrix" values="0 0 0 0 1 0 0 0 0 1 0 0 0 0 1 0 0 0 0.5 0"/>
<feBlend mode="normal" in2="BackgroundImageFix" result="effect1_dropShadow"/>
<feBlend mode="normal" in="SourceGraphic" in2="effect1_dropShadow" result="shape"/>
<feColorMatrix in="SourceAlpha" type="matrix" values="0 0 0 0 0 0 0 0 0 0 0 0 0 0 0 0 0 0 127 0" result="hardAlpha"/>
<feOffset dy="0.6"/>
<feComposite in2="hardAlpha" operator="arithmetic" k2="-1" k3="1"/>
<feColorMatrix type="matrix" values="0 0 0 0 0 0 0 0 0 0 0 0 0 0 0 0 0 0 0.15 0"/>
<feBlend mode="normal" in2="shape" result="effect2_innerShadow"/>
<feColorMatrix in="SourceAlpha" type="matrix" values="0 0 0 0 0 0 0 0 0 0 0 0 0 0 0 0 0 0 127 0" result="hardAlpha"/>
<feOffset dy="2"/>
<feGaussianBlur stdDeviation="1.5"/>
<feComposite in2="hardAlpha" operator="arithmetic" k2="-1" k3="1"/>
<feColorMatrix type="matrix" values="0 0 0 0 0.766667 0 0 0 0 0.233194 0 0 0 0 0.375042 0 0 0 0.79 0"/>
<feBlend mode="normal" in2="effect2_innerShadow" result="effect3_innerShadow"/>
<feColorMatrix in="SourceAlpha" type="matrix" values="0 0 0 0 0 0 0 0 0 0 0 0 0 0 0 0 0 0 127 0" result="hardAlpha"/>
<feOffset dy="1"/>
<feComposite in2="hardAlpha" operator="arithmetic" k2="-1" k3="1"/>
<feColorMatrix type="matrix" values="0 0 0 0 0 0 0 0 0 0 0 0 0 0 0 0 0 0 0.15 0"/>
<feBlend mode="normal" in2="effect3_innerShadow" result="effect4_innerShadow"/>
</filter>
<filter id="filter2_diii" x="64.7" y="32.7" width="12.6" height="14.6" filterUnits="userSpaceOnUse" color-interpolation-filters="sRGB">
<feFlood flood-opacity="0" result="BackgroundImageFix"/>
<feColorMatrix in="SourceAlpha" type="matrix" values="0 0 0 0 0 0 0 0 0 0 0 0 0 0 0 0 0 0 127 0"/>
<feOffset dy="0.2"/>
<feColorMatrix type="matrix" values="0 0 0 0 1 0 0 0 0 1 0 0 0 0 1 0 0 0 0.5 0"/>
<feBlend mode="normal" in2="BackgroundImageFix" result="effect1_dropShadow"/>
<feBlend mode="normal" in="SourceGraphic" in2="effect1_dropShadow" result="shape"/>
<feColorMatrix in="SourceAlpha" type="matrix" values="0 0 0 0 0 0 0 0 0 0 0 0 0 0 0 0 0 0 127 0" result="hardAlpha"/>
<feOffset dy="0.6"/>
<feComposite in2="hardAlpha" operator="arithmetic" k2="-1" k3="1"/>
<feColorMatrix type="matrix" values="0 0 0 0 0 0 0 0 0 0 0 0 0 0 0 0 0 0 0.15 0"/>
<feBlend mode="normal" in2="shape" result="effect2_innerShadow"/>
<feColorMatrix in="SourceAlpha" type="matrix" values="0 0 0 0 0 0 0 0 0 0 0 0 0 0 0 0 0 0 127 0" result="hardAlpha"/>
<feOffset dy="2"/>
<feGaussianBlur stdDeviation="1.5"/>
<feComposite in2="hardAlpha" operator="arithmetic" k2="-1" k3="1"/>
<feColorMatrix type="matrix" values="0 0 0 0 0.766667 0 0 0 0 0.233194 0 0 0 0 0.375042 0 0 0 0.79 0"/>
<feBlend mode="normal" in2="effect2_innerShadow" result="effect3_innerShadow"/>
<feColorMatrix in="SourceAlpha" type="matrix" values="0 0 0 0 0 0 0 0 0 0 0 0 0 0 0 0 0 0 127 0" result="hardAlpha"/>
<feOffset dy="1"/>
<feComposite in2="hardAlpha" operator="arithmetic" k2="-1" k3="1"/>
<feColorMatrix type="matrix" values="0 0 0 0 0 0 0 0 0 0 0 0 0 0 0 0 0 0 0.15 0"/>
<feBlend mode="normal" in2="effect3_innerShadow" result="effect4_innerShadow"/>
</filter>
<filter id="filter3_diii" x="102.7" y="30.7" width="12.6" height="14.6" filterUnits="userSpaceOnUse" color-interpolation-filters="sRGB">
<feFlood flood-opacity="0" result="BackgroundImageFix"/>
<feColorMatrix in="SourceAlpha" type="matrix" values="0 0 0 0 0 0 0 0 0 0 0 0 0 0 0 0 0 0 127 0"/>
<feOffset dy="1"/>
<feColorMatrix type="matrix" values="0 0 0 0 1 0 0 0 0 1 0 0 0 0 1 0 0 0 1 0"/>
<feBlend mode="normal" in2="BackgroundImageFix" result="effect1_dropShadow"/>
<feBlend mode="normal" in="SourceGraphic" in2="effect1_dropShadow" result="shape"/>
<feColorMatrix in="SourceAlpha" type="matrix" values="0 0 0 0 0 0 0 0 0 0 0 0 0 0 0 0 0 0 127 0" result="hardAlpha"/>
<feOffset dy="0.6"/>
<feComposite in2="hardAlpha" operator="arithmetic" k2="-1" k3="1"/>
<feColorMatrix type="matrix" values="0 0 0 0 0 0 0 0 0 0 0 0 0 0 0 0 0 0 0.15 0"/>
<feBlend mode="normal" in2="shape" result="effect2_innerShadow"/>
<feColorMatrix in="SourceAlpha" type="matrix" values="0 0 0 0 0 0 0 0 0 0 0 0 0 0 0 0 0 0 127 0" result="hardAlpha"/>
<feOffset dy="2"/>
<feGaussianBlur stdDeviation="1"/>
<feComposite in2="hardAlpha" operator="arithmetic" k2="-1" k3="1"/>
<feColorMatrix type="matrix" values="0 0 0 0 0.766667 0 0 0 0 0.233194 0 0 0 0 0.375042 0 0 0 0.79 0"/>
<feBlend mode="normal" in2="effect2_innerShadow" result="effect3_innerShadow"/>
<feColorMatrix in="SourceAlpha" type="matrix" values="0 0 0 0 0 0 0 0 0 0 0 0 0 0 0 0 0 0 127 0" result="hardAlpha"/>
<feOffset dy="1"/>
<feComposite in2="hardAlpha" operator="arithmetic" k2="-1" k3="1"/>
<feColorMatrix type="matrix" values="0 0 0 0 0 0 0 0 0 0 0 0 0 0 0 0 0 0 0.15 0"/>
<feBlend mode="normal" in2="effect3_innerShadow" result="effect4_innerShadow"/>
</filter>
<filter id="filter4_diii" x="126.7" y="30.7" width="12.6" height="14.6" filterUnits="userSpaceOnUse" color-interpolation-filters="sRGB">
<feFlood flood-opacity="0" result="BackgroundImageFix"/>
<feColorMatrix in="SourceAlpha" type="matrix" values="0 0 0 0 0 0 0 0 0 0 0 0 0 0 0 0 0 0 127 0"/>
<feOffset dy="1"/>
<feColorMatrix type="matrix" values="0 0 0 0 1 0 0 0 0 1 0 0 0 0 1 0 0 0 1 0"/>
<feBlend mode="normal" in2="BackgroundImageFix" result="effect1_dropShadow"/>
<feBlend mode="normal" in="SourceGraphic" in2="effect1_dropShadow" result="shape"/>
<feColorMatrix in="SourceAlpha" type="matrix" values="0 0 0 0 0 0 0 0 0 0 0 0 0 0 0 0 0 0 127 0" result="hardAlpha"/>
<feOffset dy="0.6"/>
<feComposite in2="hardAlpha" operator="arithmetic" k2="-1" k3="1"/>
<feColorMatrix type="matrix" values="0 0 0 0 0 0 0 0 0 0 0 0 0 0 0 0 0 0 0.15 0"/>
<feBlend mode="normal" in2="shape" result="effect2_innerShadow"/>
<feColorMatrix in="SourceAlpha" type="matrix" values="0 0 0 0 0 0 0 0 0 0 0 0 0 0 0 0 0 0 127 0" result="hardAlpha"/>
<feOffset dy="2"/>
<feGaussianBlur stdDeviation="1"/>
<feComposite in2="hardAlpha" operator="arithmetic" k2="-1" k3="1"/>
<feColorMatrix type="matrix" values="0 0 0 0 0.766667 0 0 0 0 0.233194 0 0 0 0 0.375042 0 0 0 0.79 0"/>
<feBlend mode="normal" in2="effect2_innerShadow" result="effect3_innerShadow"/>
<feColorMatrix in="SourceAlpha" type="matrix" values="0 0 0 0 0 0 0 0 0 0 0 0 0 0 0 0 0 0 127 0" result="hardAlpha"/>
<feOffset dy="1"/>
<feComposite in2="hardAlpha" operator="arithmetic" k2="-1" k3="1"/>
<feColorMatrix type="matrix" values="0 0 0 0 0 0 0 0 0 0 0 0 0 0 0 0 0 0 0.15 0"/>
<feBlend mode="normal" in2="effect3_innerShadow" result="effect4_innerShadow"/>
</filter>
<filter id="filter5_diii" x="102.7" y="50.7" width="34.6" height="19.6" filterUnits="userSpaceOnUse" color-interpolation-filters="sRGB">
<feFlood flood-opacity="0" result="BackgroundImageFix"/>
<feColorMatrix in="SourceAlpha" type="matrix" values="0 0 0 0 0 0 0 0 0 0 0 0 0 0 0 0 0 0 127 0"/>
<feOffset dy="1"/>
<feColorMatrix type="matrix" values="0 0 0 0 1 0 0 0 0 1 0 0 0 0 1 0 0 0 1 0"/>
<feBlend mode="normal" in2="BackgroundImageFix" result="effect1_dropShadow"/>
<feBlend mode="normal" in="SourceGraphic" in2="effect1_dropShadow" result="shape"/>
<feColorMatrix in="SourceAlpha" type="matrix" values="0 0 0 0 0 0 0 0 0 0 0 0 0 0 0 0 0 0 127 0" result="hardAlpha"/>
<feOffset dy="0.6"/>
<feComposite in2="hardAlpha" operator="arithmetic" k2="-1" k3="1"/>
<feColorMatrix type="matrix" values="0 0 0 0 0 0 0 0 0 0 0 0 0 0 0 0 0 0 0.15 0"/>
<feBlend mode="normal" in2="shape" result="effect2_innerShadow"/>
<feColorMatrix in="SourceAlpha" type="matrix" values="0 0 0 0 0 0 0 0 0 0 0 0 0 0 0 0 0 0 127 0" result="hardAlpha"/>
<feOffset dy="2"/>
<feGaussianBlur stdDeviation="1"/>
<feComposite in2="hardAlpha" operator="arithmetic" k2="-1" k3="1"/>
<feColorMatrix type="matrix" values="0 0 0 0 0.766667 0 0 0 0 0.233194 0 0 0 0 0.375042 0 0 0 0.79 0"/>
<feBlend mode="normal" in2="effect2_innerShadow" result="effect3_innerShadow"/>
<feColorMatrix in="SourceAlpha" type="matrix" values="0 0 0 0 0 0 0 0 0 0 0 0 0 0 0 0 0 0 127 0" result="hardAlpha"/>
<feOffset dy="1"/>
<feComposite in2="hardAlpha" operator="arithmetic" k2="-1" k3="1"/>
<feColorMatrix type="matrix" values="0 0 0 0 0 0 0 0 0 0 0 0 0 0 0 0 0 0 0.15 0"/>
<feBlend mode="normal" in2="effect3_innerShadow" result="effect4_innerShadow"/>
</filter>
<linearGradient id="paint0_linear" x1="62.2" y1="-6.94083" x2="62.2" y2="71" gradientUnits="userSpaceOnUse">
<stop stop-color="white"/>
<stop offset="1" stop-color="#EDEDED"/>
</linearGradient>
<linearGradient id="paint1_linear" x1="123.8" y1="-6.94082" x2="-4.1353" y2="62.2435" gradientUnits="userSpaceOnUse">
<stop stop-color="#EE3C6B"/>
<stop offset="1" stop-color="#E63262"/>
</linearGradient>
<linearGradient id="paint2_linear" x1="80" y1="15.9091" x2="173.721" y2="43.5537" gradientUnits="userSpaceOnUse">
<stop stop-color="#F0F6FC"/>
<stop offset="1" stop-color="#E1E7EB"/>
</linearGradient>
</defs>
</svg>
