<svg width="180" height="90" viewBox="0 0 180 90" fill="none" xmlns="http://www.w3.org/2000/svg">
<rect x="46" y="2" width="80" height="3.99999" rx="2" transform="rotate(90 46 2)" fill="white"/>
<rect x="46" y="33" width="49" height="4" rx="2" transform="rotate(90 46 33)" fill="#EE3C6B"/>
<g filter="url(#filter0_d)">
<ellipse cx="44" cy="32" rx="8" ry="8" transform="rotate(90 44 32)" fill="white"/>
<path d="M44 39C40.134 39 37 35.866 37 32C37 28.134 40.134 25 44 25C47.866 25 51 28.134 51 32C51 35.866 47.866 39 44 39Z" stroke="white" stroke-width="2"/>
</g>
<ellipse cx="44" cy="32" rx="4" ry="4" transform="rotate(90 44 32)" fill="#EE3C6B"/>
<g filter="url(#filter1_d)">
<rect x="28" y="2" width="78" height="4" rx="2" transform="rotate(90 28 2)" fill="white"/>
</g>
<g filter="url(#filter2_d)">
<rect x="28" y="51" width="31" height="4" rx="2" transform="rotate(90 28 51)" fill="#EE3C6B"/>
</g>
<path d="M26 58C22.134 58 19 54.866 19 51C19 47.134 22.134 44 26 44C29.866 44 33 47.134 33 51C33 54.866 29.866 58 26 58Z" fill="white" stroke="white" stroke-width="2"/>
<ellipse cx="26" cy="51" rx="4" ry="4" transform="rotate(90 26 51)" fill="#EE3C6B"/>
<rect x="10" y="2" width="78" height="3.99999" rx="2" transform="rotate(90 10 2)" fill="white"/>
<g filter="url(#filter3_d)">
<rect x="10" y="19" width="63" height="4" rx="2" transform="rotate(90 10 19)" fill="#EE3C6B"/>
</g>
<path d="M8 25C4.13401 25 1 21.866 1 18C1 14.134 4.13401 11 8 11C11.866 11 15 14.134 15 18C15 21.866 11.866 25 8 25Z" fill="white" stroke="white" stroke-width="2"/>
<ellipse cx="8" cy="18" rx="4" ry="4" transform="rotate(90 8 18)" fill="#EE3C6B"/>
<g filter="url(#filter4_i)">
<rect x="60" y="2" width="118" height="24" rx="4" fill="url(#paint0_linear)"/>
</g>
<rect x="60.5" y="2.5" width="117" height="23" rx="3.5" stroke="white"/>
<g filter="url(#filter5_i)">
<rect x="60" y="58" width="118" height="24" rx="4" fill="url(#paint1_linear)"/>
</g>
<rect x="60.5" y="58.5" width="117" height="23" rx="3.5" stroke="white"/>
<rect x="60.5" y="30.5" width="117" height="23" rx="3.5" fill="#F7F7F7"/>
<rect x="60.5" y="30.5" width="117" height="23" rx="3.5" fill="url(#paint2_linear)"/>
<rect x="60.5" y="30.5" width="117" height="23" rx="3.5" fill="url(#paint3_linear)"/>
<rect x="60.5" y="30.5" width="117" height="23" rx="3.5" stroke="white"/>
<g filter="url(#filter6_dii)">
<path d="M76 34L78.3041 38.8287L83.6085 39.5279L79.7281 43.2113L80.7023 48.4721L76 45.92L71.2977 48.4721L72.2719 43.2113L68.3915 39.5279L73.6959 38.8287L76 34Z" fill="white"/>
<path d="M76.1354 33.9354L76 33.6517L75.8646 33.9354L73.5956 38.6906L68.3719 39.3792L68.0603 39.4202L68.2883 39.6367L72.1095 43.2641L71.1502 48.4448L71.093 48.7539L71.3693 48.604L76 46.0907L80.6307 48.604L80.907 48.7539L80.8498 48.4448L79.8905 43.2641L83.7117 39.6367L83.9397 39.4202L83.6281 39.3792L78.4044 38.6906L76.1354 33.9354Z" stroke="#FF96B2" stroke-width="0.3"/>
</g>
<g clip-path="url(#clip0)">
<path fill-rule="evenodd" clip-rule="evenodd" d="M159.53 45.3677L166 39.375L164.769 38.25L158.282 44.2591L155.231 41.55L154 42.675L158.308 46.5L158.308 46.5L158.308 46.5L158.313 46.4947L159.538 45.375L159.53 45.3677Z" fill="white"/>
</g>
<defs>
<filter id="filter0_d" x="35" y="22" width="18" height="18" filterUnits="userSpaceOnUse" color-interpolation-filters="sRGB">
<feFlood flood-opacity="0" result="BackgroundImageFix"/>
<feColorMatrix in="SourceAlpha" type="matrix" values="0 0 0 0 0 0 0 0 0 0 0 0 0 0 0 0 0 0 127 0"/>
<feOffset dy="-1"/>
<feGaussianBlur stdDeviation="0.5"/>
<feColorMatrix type="matrix" values="0 0 0 0 0.0864062 0 0 0 0 0.209672 0 0 0 0 0.2625 0 0 0 0.09 0"/>
<feBlend mode="normal" in2="BackgroundImageFix" result="effect1_dropShadow"/>
<feBlend mode="normal" in="SourceGraphic" in2="effect1_dropShadow" result="shape"/>
</filter>
<filter id="filter1_d" x="18" y="0" width="16" height="90" filterUnits="userSpaceOnUse" color-interpolation-filters="sRGB">
<feFlood flood-opacity="0" result="BackgroundImageFix"/>
<feColorMatrix in="SourceAlpha" type="matrix" values="0 0 0 0 0 0 0 0 0 0 0 0 0 0 0 0 0 0 127 0"/>
<feOffset dy="4"/>
<feGaussianBlur stdDeviation="3"/>
<feColorMatrix type="matrix" values="0 0 0 0 0 0 0 0 0 0 0 0 0 0 0 0 0 0 0.12 0"/>
<feBlend mode="normal" in2="BackgroundImageFix" result="effect1_dropShadow"/>
<feBlend mode="normal" in="SourceGraphic" in2="effect1_dropShadow" result="shape"/>
</filter>
<filter id="filter2_d" x="23" y="51" width="6" height="33" filterUnits="userSpaceOnUse" color-interpolation-filters="sRGB">
<feFlood flood-opacity="0" result="BackgroundImageFix"/>
<feColorMatrix in="SourceAlpha" type="matrix" values="0 0 0 0 0 0 0 0 0 0 0 0 0 0 0 0 0 0 127 0"/>
<feOffset dy="1"/>
<feGaussianBlur stdDeviation="0.5"/>
<feColorMatrix type="matrix" values="0 0 0 0 1 0 0 0 0 1 0 0 0 0 1 0 0 0 0.63 0"/>
<feBlend mode="normal" in2="BackgroundImageFix" result="effect1_dropShadow"/>
<feBlend mode="normal" in="SourceGraphic" in2="effect1_dropShadow" result="shape"/>
</filter>
<filter id="filter3_d" x="2" y="19" width="12" height="71" filterUnits="userSpaceOnUse" color-interpolation-filters="sRGB">
<feFlood flood-opacity="0" result="BackgroundImageFix"/>
<feColorMatrix in="SourceAlpha" type="matrix" values="0 0 0 0 0 0 0 0 0 0 0 0 0 0 0 0 0 0 127 0"/>
<feOffset dy="4"/>
<feGaussianBlur stdDeviation="2"/>
<feColorMatrix type="matrix" values="0 0 0 0 1 0 0 0 0 1 0 0 0 0 1 0 0 0 1 0"/>
<feBlend mode="normal" in2="BackgroundImageFix" result="effect1_dropShadow"/>
<feBlend mode="normal" in="SourceGraphic" in2="effect1_dropShadow" result="shape"/>
</filter>
<filter id="filter4_i" x="60" y="2" width="118" height="25" filterUnits="userSpaceOnUse" color-interpolation-filters="sRGB">
<feFlood flood-opacity="0" result="BackgroundImageFix"/>
<feBlend mode="normal" in="SourceGraphic" in2="BackgroundImageFix" result="shape"/>
<feColorMatrix in="SourceAlpha" type="matrix" values="0 0 0 0 0 0 0 0 0 0 0 0 0 0 0 0 0 0 127 0" result="hardAlpha"/>
<feOffset dy="1"/>
<feGaussianBlur stdDeviation="2"/>
<feComposite in2="hardAlpha" operator="arithmetic" k2="-1" k3="1"/>
<feColorMatrix type="matrix" values="0 0 0 0 0 0 0 0 0 0 0 0 0 0 0 0 0 0 0.15 0"/>
<feBlend mode="normal" in2="shape" result="effect1_innerShadow"/>
</filter>
<filter id="filter5_i" x="60" y="58" width="118" height="25" filterUnits="userSpaceOnUse" color-interpolation-filters="sRGB">
<feFlood flood-opacity="0" result="BackgroundImageFix"/>
<feBlend mode="normal" in="SourceGraphic" in2="BackgroundImageFix" result="shape"/>
<feColorMatrix in="SourceAlpha" type="matrix" values="0 0 0 0 0 0 0 0 0 0 0 0 0 0 0 0 0 0 127 0" result="hardAlpha"/>
<feOffset dy="1"/>
<feGaussianBlur stdDeviation="2"/>
<feComposite in2="hardAlpha" operator="arithmetic" k2="-1" k3="1"/>
<feColorMatrix type="matrix" values="0 0 0 0 0 0 0 0 0 0 0 0 0 0 0 0 0 0 0.15 0"/>
<feBlend mode="normal" in2="shape" result="effect1_innerShadow"/>
</filter>
<filter id="filter6_dii" x="67.729" y="33.3034" width="16.5419" height="17.7323" filterUnits="userSpaceOnUse" color-interpolation-filters="sRGB">
<feFlood flood-opacity="0" result="BackgroundImageFix"/>
<feColorMatrix in="SourceAlpha" type="matrix" values="0 0 0 0 0 0 0 0 0 0 0 0 0 0 0 0 0 0 127 0"/>
<feOffset dy="1"/>
<feColorMatrix type="matrix" values="0 0 0 0 1 0 0 0 0 1 0 0 0 0 1 0 0 0 0.11 0"/>
<feBlend mode="normal" in2="BackgroundImageFix" result="effect1_dropShadow"/>
<feBlend mode="normal" in="SourceGraphic" in2="effect1_dropShadow" result="shape"/>
<feColorMatrix in="SourceAlpha" type="matrix" values="0 0 0 0 0 0 0 0 0 0 0 0 0 0 0 0 0 0 127 0" result="hardAlpha"/>
<feOffset dy="0.6"/>
<feComposite in2="hardAlpha" operator="arithmetic" k2="-1" k3="1"/>
<feColorMatrix type="matrix" values="0 0 0 0 0 0 0 0 0 0 0 0 0 0 0 0 0 0 0.15 0"/>
<feBlend mode="normal" in2="shape" result="effect2_innerShadow"/>
<feColorMatrix in="SourceAlpha" type="matrix" values="0 0 0 0 0 0 0 0 0 0 0 0 0 0 0 0 0 0 127 0" result="hardAlpha"/>
<feOffset dy="2"/>
<feGaussianBlur stdDeviation="1"/>
<feComposite in2="hardAlpha" operator="arithmetic" k2="-1" k3="1"/>
<feColorMatrix type="matrix" values="0 0 0 0 0.766667 0 0 0 0 0.233194 0 0 0 0 0.375042 0 0 0 0.79 0"/>
<feBlend mode="normal" in2="effect2_innerShadow" result="effect3_innerShadow"/>
</filter>
<linearGradient id="paint0_linear" x1="175.016" y1="0.515466" x2="93.9492" y2="64.4117" gradientUnits="userSpaceOnUse">
<stop stop-color="#F0F6FC"/>
<stop offset="1" stop-color="#E1E7EB"/>
</linearGradient>
<linearGradient id="paint1_linear" x1="175.016" y1="56.5155" x2="93.9492" y2="120.412" gradientUnits="userSpaceOnUse">
<stop stop-color="#F0F6FC"/>
<stop offset="1" stop-color="#DDE5EB"/>
</linearGradient>
<linearGradient id="paint2_linear" x1="119" y1="30" x2="119" y2="54" gradientUnits="userSpaceOnUse">
<stop stop-color="white"/>
<stop offset="1" stop-color="#EDEDED"/>
</linearGradient>
<linearGradient id="paint3_linear" x1="178" y1="30" x2="136.643" y2="99.5649" gradientUnits="userSpaceOnUse">
<stop stop-color="#EE3C6B"/>
<stop offset="1" stop-color="#E63262"/>
</linearGradient>
<clipPath id="clip0">
<rect width="12" height="12" fill="white" transform="translate(154 36)"/>
</clipPath>
</defs>
</svg>
