<svg width="200" height="73" viewBox="0 0 200 73" fill="none" xmlns="http://www.w3.org/2000/svg">
<g filter="url(#filter0_di)">
<rect width="200" height="72" rx="4" fill="url(#paint0_linear)"/>
<rect x="0.5" y="0.5" width="199" height="71" rx="3.5" stroke="white"/>
</g>
<g filter="url(#filter1_diii)">
<rect x="12" y="16" width="128" height="40" rx="4" fill="white"/>
<rect x="12.5" y="16.5" width="127" height="39" rx="3.5" stroke="white"/>
</g>
<path fill-rule="evenodd" clip-rule="evenodd" d="M29.0001 36.0001H35.0001V42.0001H29.0001V36.0001ZM30.5001 40.5001V37.5001H33.5001V40.5001H30.5001Z" fill="#4BA3DA"/>
<path fill-rule="evenodd" clip-rule="evenodd" d="M32.0001 24.4395L43.7804 36.2198L42.7197 37.2804L40.2501 34.8108V46.5001H23.7501V34.8108L21.2804 37.2804L20.2197 36.2198L32.0001 24.4395ZM32.0001 26.5608L38.7501 33.3108V45.0001H25.2501V33.3108L32.0001 26.5608Z" fill="#4BA3DA"/>
<rect x="51" y="24" width="2" height="24" fill="#EE3C6B"/>
<g filter="url(#filter2_d)">
<rect x="144" y="16" width="40" height="40" rx="4" fill="#F7F7F7"/>
<rect x="144" y="16" width="40" height="40" rx="4" fill="url(#paint1_linear)"/>
<rect x="144" y="16" width="40" height="40" rx="4" fill="url(#paint2_linear)"/>
<rect x="144.5" y="16.5" width="39" height="39" rx="3.5" stroke="white"/>
</g>
<g clip-path="url(#clip0)">
<path d="M167.742 38.3275C168.529 37.2524 169 35.9317 169 34.5C169 30.916 166.084 28 162.5 28C158.916 28 156 30.916 156 34.5C156 38.084 158.916 41 162.5 41C163.932 41 165.252 40.529 166.328 39.7416L170.586 43.9999L172 42.5859C172 42.5858 167.742 38.3275 167.742 38.3275ZM162.5 39C160.019 39 158 36.9814 158 34.5C158 32.0185 160.019 30 162.5 30C164.981 30 167 32.0185 167 34.5C167 36.9814 164.981 39 162.5 39Z" fill="white"/>
</g>
<defs>
<filter id="filter0_di" x="0" y="0" width="200" height="73" filterUnits="userSpaceOnUse" color-interpolation-filters="sRGB">
<feFlood flood-opacity="0" result="BackgroundImageFix"/>
<feColorMatrix in="SourceAlpha" type="matrix" values="0 0 0 0 0 0 0 0 0 0 0 0 0 0 0 0 0 0 127 0"/>
<feOffset dy="1"/>
<feColorMatrix type="matrix" values="0 0 0 0 0.876333 0 0 0 0 0.87824 0 0 0 0 0.88 0 0 0 0.4 0"/>
<feBlend mode="normal" in2="BackgroundImageFix" result="effect1_dropShadow"/>
<feBlend mode="normal" in="SourceGraphic" in2="effect1_dropShadow" result="shape"/>
<feColorMatrix in="SourceAlpha" type="matrix" values="0 0 0 0 0 0 0 0 0 0 0 0 0 0 0 0 0 0 127 0" result="hardAlpha"/>
<feOffset dy="1"/>
<feGaussianBlur stdDeviation="2"/>
<feComposite in2="hardAlpha" operator="arithmetic" k2="-1" k3="1"/>
<feColorMatrix type="matrix" values="0 0 0 0 0 0 0 0 0 0 0 0 0 0 0 0 0 0 0.15 0"/>
<feBlend mode="normal" in2="shape" result="effect2_innerShadow"/>
</filter>
<filter id="filter1_diii" x="11" y="15" width="130" height="43" filterUnits="userSpaceOnUse" color-interpolation-filters="sRGB">
<feFlood flood-opacity="0" result="BackgroundImageFix"/>
<feColorMatrix in="SourceAlpha" type="matrix" values="0 0 0 0 0 0 0 0 0 0 0 0 0 0 0 0 0 0 127 0"/>
<feOffset dy="1"/>
<feGaussianBlur stdDeviation="0.5"/>
<feColorMatrix type="matrix" values="0 0 0 0 0.373559 0 0 0 0 0.37839 0 0 0 0 0.38 0 0 0 0.07 0"/>
<feBlend mode="normal" in2="BackgroundImageFix" result="effect1_dropShadow"/>
<feBlend mode="normal" in="SourceGraphic" in2="effect1_dropShadow" result="shape"/>
<feColorMatrix in="SourceAlpha" type="matrix" values="0 0 0 0 0 0 0 0 0 0 0 0 0 0 0 0 0 0 127 0" result="hardAlpha"/>
<feOffset dy="1"/>
<feGaussianBlur stdDeviation="1.5"/>
<feComposite in2="hardAlpha" operator="arithmetic" k2="-1" k3="1"/>
<feColorMatrix type="matrix" values="0 0 0 0 0 0 0 0 0 0 0 0 0 0 0 0 0 0 0.2 0"/>
<feBlend mode="normal" in2="shape" result="effect2_innerShadow"/>
<feColorMatrix in="SourceAlpha" type="matrix" values="0 0 0 0 0 0 0 0 0 0 0 0 0 0 0 0 0 0 127 0" result="hardAlpha"/>
<feOffset dy="-1"/>
<feComposite in2="hardAlpha" operator="arithmetic" k2="-1" k3="1"/>
<feColorMatrix type="matrix" values="0 0 0 0 0 0 0 0 0 0 0 0 0 0 0 0 0 0 0.2 0"/>
<feBlend mode="normal" in2="effect2_innerShadow" result="effect3_innerShadow"/>
<feColorMatrix in="SourceAlpha" type="matrix" values="0 0 0 0 0 0 0 0 0 0 0 0 0 0 0 0 0 0 127 0" result="hardAlpha"/>
<feOffset dy="-2"/>
<feGaussianBlur stdDeviation="0.5"/>
<feComposite in2="hardAlpha" operator="arithmetic" k2="-1" k3="1"/>
<feColorMatrix type="matrix" values="0 0 0 0 0 0 0 0 0 0 0 0 0 0 0 0 0 0 0.12 0"/>
<feBlend mode="normal" in2="effect3_innerShadow" result="effect4_innerShadow"/>
</filter>
<filter id="filter2_d" x="141" y="16" width="46" height="46" filterUnits="userSpaceOnUse" color-interpolation-filters="sRGB">
<feFlood flood-opacity="0" result="BackgroundImageFix"/>
<feColorMatrix in="SourceAlpha" type="matrix" values="0 0 0 0 0 0 0 0 0 0 0 0 0 0 0 0 0 0 127 0"/>
<feOffset dy="3"/>
<feGaussianBlur stdDeviation="1.5"/>
<feColorMatrix type="matrix" values="0 0 0 0 0.876333 0 0 0 0 0.87824 0 0 0 0 0.88 0 0 0 1 0"/>
<feBlend mode="normal" in2="BackgroundImageFix" result="effect1_dropShadow"/>
<feBlend mode="normal" in="SourceGraphic" in2="effect1_dropShadow" result="shape"/>
</filter>
<linearGradient id="paint0_linear" x1="194.942" y1="-4.4536" x2="9.04378" y2="78.3284" gradientUnits="userSpaceOnUse">
<stop stop-color="#F0F6FC"/>
<stop offset="1" stop-color="#E1E7EB"/>
</linearGradient>
<linearGradient id="paint1_linear" x1="164" y1="16" x2="164" y2="56" gradientUnits="userSpaceOnUse">
<stop stop-color="white"/>
<stop offset="1" stop-color="#EDEDED"/>
</linearGradient>
<linearGradient id="paint2_linear" x1="184" y1="16" x2="135.94" y2="32.4419" gradientUnits="userSpaceOnUse">
<stop stop-color="#EE3C6B"/>
<stop offset="1" stop-color="#E63262"/>
</linearGradient>
<clipPath id="clip0">
<rect width="16" height="16" fill="white" transform="translate(156 28)"/>
</clipPath>
</defs>
</svg>
