<svg width="160" height="20" viewBox="0 0 160 20" fill="none" xmlns="http://www.w3.org/2000/svg">
<path d="M29.5719 16.0782L31.1676 14.1652C32.4536 15.4126 34.1655 16.1215 35.9546 16.1478C37.5936 16.1478 38.6429 15.3652 38.6429 14.2347C38.6429 13.1478 38.0272 12.5565 35.2174 11.9043C31.9914 11.1217 30.1703 10.1652 30.1703 7.35647C30.1703 4.74777 32.3383 2.94777 35.3735 2.94777C37.3778 2.90712 39.3307 3.58555 40.8803 4.86081L39.4147 6.79995C38.2523 5.83884 36.8094 5.28332 35.3042 5.21734C33.7432 5.21734 32.8239 6.02603 32.8239 7.01734C32.8239 8.19125 33.5177 8.75647 36.4402 9.39995C39.6575 10.1826 41.2966 11.3391 41.2966 13.8521C41.2966 16.6956 39.0678 18.3999 35.8678 18.3999C33.5375 18.4114 31.2877 17.5456 29.5632 15.9739L29.5719 16.0782ZM49.3443 10.8782C51.3649 10.8782 52.6136 9.74777 52.6136 8.15647C52.6136 6.37386 51.3302 5.43473 49.3443 5.43473H46.2483V10.913L49.3443 10.8782ZM43.586 2.96516H49.5697C53.134 2.96516 55.328 4.99125 55.328 8.06081C55.328 11.4782 52.605 13.2782 49.2575 13.2782H46.2483V18.2608H43.5773V3.06951L43.586 2.96516ZM57.6261 2.96516H68.8998V5.46081H60.3145V9.42603H67.9285V11.8086H60.2971V15.8956H68.9692V18.2608H57.6261V2.96516ZM71.7182 2.96516H82.992V5.46081H74.4066V9.42603H82.0033V11.8086H74.3979V15.8956H83.07V18.2608H71.7269V3.06951L71.7182 2.96516ZM88.4554 5.51299V15.8608H91.4472C92.1381 15.9062 92.8308 15.8059 93.4806 15.5662C94.1303 15.3266 94.7228 14.953 95.2196 14.4695C95.7165 13.9861 96.1067 13.4035 96.3651 12.7595C96.6235 12.1154 96.7444 11.4242 96.7199 10.7304C96.7514 10.0309 96.6361 9.33248 96.3813 8.68049C96.1266 8.0285 95.7381 7.43744 95.241 6.94558C94.744 6.45372 94.1494 6.07204 93.4959 5.82526C92.8423 5.57847 92.1444 5.47209 91.4472 5.51299H88.4554ZM85.8537 3.06951H91.5166C96.2863 3.06951 99.5817 6.34777 99.5817 10.6347C99.5817 14.9217 96.2863 18.2347 91.5166 18.2347H85.8537V3.06951ZM105.8 5.55647H100.987V3.06951H113.301V5.55647H108.488V18.2608H105.8V5.55647ZM116.119 3.06951H127.393V5.46081H118.808V9.42603H126.422V11.8086H118.808V15.8956H127.48V18.2608H116.163L116.119 3.06951ZM129.613 16.113L131.209 14.1999C132.495 15.4473 134.207 16.1563 135.996 16.1826C137.635 16.1826 138.684 15.3999 138.684 14.2695C138.684 13.1826 138.068 12.5912 135.259 11.9391C132.033 11.1565 130.211 10.1999 130.211 7.39125C130.211 4.78255 132.379 2.98255 135.415 2.98255C137.419 2.9419 139.372 3.62033 140.922 4.8956L139.491 6.92168C138.346 5.91834 136.905 5.31954 135.389 5.21734C133.828 5.21734 132.908 6.02603 132.908 7.01734C132.908 8.19125 133.602 8.75647 136.525 9.39995C139.742 10.1826 141.381 11.3391 141.381 13.8521C141.381 16.6956 139.152 18.3999 135.952 18.3999C133.622 18.4114 131.372 17.5456 129.648 15.9739L129.613 16.113ZM147.955 5.45212H143.159V3.06951H155.473V5.55647H150.66V18.2608H147.963V5.55647L147.955 5.45212Z" fill="#808080"/>
<path d="M19.0786 19.1303C20.571 17.6348 21.5875 15.729 21.9995 13.6541C22.4116 11.5792 22.2007 9.42832 21.3935 7.4736C20.5864 5.51888 19.2192 3.8481 17.465 2.67258C15.7107 1.49707 13.6482 0.869629 11.5383 0.869629C9.42834 0.869629 7.36581 1.49707 5.61156 2.67258C3.8573 3.8481 2.49013 5.51888 1.68297 7.4736C0.875812 9.42832 0.664922 11.5792 1.07698 13.6541C1.48903 15.729 2.50552 17.6348 3.99787 19.1303L5.51549 17.6086C4.32431 16.4128 3.51342 14.8897 3.18532 13.2318C2.85722 11.574 3.02663 9.85584 3.67214 8.29452C4.31765 6.7332 5.41028 5.39882 6.81194 4.46002C8.21359 3.52122 9.86134 3.02016 11.5469 3.02016C13.2325 3.02016 14.8803 3.52122 16.2819 4.46002C17.6836 5.39882 18.7762 6.7332 19.4217 8.29452C20.0672 9.85584 20.2366 11.574 19.9085 13.2318C19.5804 14.8897 18.7695 16.4128 17.5784 17.6086L19.0786 19.1303Z" fill="#808080"/>
<path d="M11.2738 13.7218L9.3833 11.8261L15.4538 6.51306L16.5811 7.6435L11.2738 13.7218Z" fill="#808080"/>
<path d="M157.953 4.28693C158.135 4.28693 158.257 4.19128 158.257 4.03476C158.257 3.87824 158.144 3.79998 157.953 3.79998H157.58V4.28693H157.953ZM157.329 3.56519H157.979C158.131 3.55705 158.279 3.60677 158.396 3.70433C158.451 3.76297 158.49 3.83522 158.509 3.91382C158.528 3.99242 158.526 4.07462 158.503 4.15215C158.48 4.22968 158.437 4.29982 158.379 4.35553C158.321 4.41124 158.249 4.45056 158.17 4.46954L158.56 5.02607H158.257L157.893 4.51302H157.572V5.02607H157.32L157.329 3.56519Z" fill="#808080"/>
<path d="M157.832 3.06083C157.588 3.06941 157.353 3.14921 157.154 3.29039C156.955 3.43157 156.802 3.62797 156.713 3.8554C156.624 4.08284 156.604 4.33137 156.654 4.57039C156.704 4.80941 156.823 5.02849 156.996 5.20063C157.169 5.37277 157.388 5.49047 157.627 5.53922C157.865 5.58797 158.113 5.56564 158.339 5.475C158.565 5.38435 158.76 5.22934 158.9 5.02906C159.039 4.82877 159.117 4.59196 159.124 4.34779C159.129 4.17672 159.099 4.00648 159.035 3.84756C158.972 3.68865 158.877 3.54444 158.756 3.42384C158.635 3.30323 158.49 3.2088 158.331 3.14637C158.172 3.08393 158.002 3.05482 157.832 3.06083ZM157.832 3.22605C158.045 3.22605 158.252 3.28929 158.429 3.40777C158.606 3.52625 158.744 3.69465 158.825 3.89168C158.907 4.0887 158.928 4.30551 158.887 4.51467C158.845 4.72383 158.743 4.91596 158.592 5.06676C158.442 5.21755 158.25 5.32025 158.042 5.36185C157.833 5.40346 157.617 5.3821 157.42 5.30049C157.224 5.21888 157.056 5.08068 156.938 4.90336C156.82 4.72604 156.757 4.51757 156.757 4.30431C156.757 4.01834 156.87 3.74408 157.071 3.54186C157.273 3.33965 157.547 3.22605 157.832 3.22605Z" fill="#808080"/>
</svg>
